<svg width="64" height="64" viewBox="0 0 64 64" fill="none" xmlns="http://www.w3.org/2000/svg">
<rect width="64" height="64" rx="14.2222" fill="url(#paint0_linear)"/>
<path d="M30.6413 48.2628C28.6957 47.7466 28.1101 46.8268 27.9241 43.9924C27.6562 39.9374 26.574 38.8262 22.5734 38.4997C18.967 38.204 18.088 37.3714 18.0726 34.2396C18.064 32.5847 18.3287 31.7129 19.0779 30.9299C19.677 30.3042 20.4177 30.1213 22.3703 30.1213C23.7204 30.1196 24.1282 30.1846 24.7598 30.5042C25.9324 31.0957 26.2754 31.8787 26.4666 34.3849C26.6918 37.3663 27.2893 38.5305 29.0011 39.322C29.7709 39.6776 30.2898 39.7784 31.65 39.8349C35.5381 39.9973 37.2466 38.792 37.7534 35.5268C38.0897 33.3643 37.4719 30.6991 36.4137 29.7418C35.6882 29.0853 34.4747 28.7229 32.5444 28.5862C30.4007 28.434 29.397 28.1075 28.7672 27.357C28.2314 26.7176 28.0606 26.0441 27.844 23.6747C27.5026 19.9445 26.4358 18.9205 22.6177 18.6589C19.9039 18.4726 19.0267 18.0486 18.385 16.6143C17.936 15.6108 17.9088 13.2637 18.3354 12.2567C18.9652 10.7729 19.8067 10.3575 22.6365 10.1352C26.4699 9.83261 27.6443 8.61196 27.9157 4.6425C28.088 2.09699 28.4754 1.28499 29.7879 0.707168C31.3343 0.0267708 34.019 0.151573 35.0671 0.951628C35.9186 1.60296 36.2139 2.40813 36.3692 4.51086C36.5366 6.78631 36.8864 7.89915 37.6836 8.6992C38.5916 9.60703 39.5677 9.96596 41.5716 10.1267C44.0173 10.3233 44.4287 10.4224 45.1148 10.99C45.9819 11.7063 46.3182 12.8277 46.2277 14.7133C46.1388 16.5819 45.6815 17.5153 44.5498 18.1495C43.8825 18.5239 43.5736 18.5786 42.162 18.5786C40.7728 18.5803 40.4178 18.5187 39.6872 18.1529C38.431 17.5238 38.0403 16.7135 37.8729 14.3919C37.6528 11.349 37.0229 10.0685 35.3538 9.28563C34.4714 8.87188 34.2204 8.83597 32.1774 8.83942C30.2351 8.84286 29.8529 8.89249 29.1052 9.23434C27.3917 10.0173 26.6474 11.2755 26.5007 13.6415C26.3147 16.6212 27.098 18.5153 28.8851 19.4094C29.7026 19.8197 30.1924 19.924 31.9437 20.0625C35.5347 20.3462 36.0997 20.8916 36.3624 24.3209C36.5331 26.5535 36.7295 27.3091 37.3694 28.1947C38.1854 29.3213 39.3083 29.7606 42.0888 30.0375C44.241 30.2529 44.4834 30.3128 45.0465 30.7658C45.9393 31.4821 46.2755 32.5523 46.2123 34.4789C46.1697 35.7337 46.0826 36.1594 45.7379 36.7851C45.0807 37.9766 44.3093 38.3134 41.802 38.5048C39.2622 38.698 38.1938 39.1134 37.3951 40.2178C36.7261 41.1409 36.5331 41.8777 36.3659 44.1531C36.1355 47.273 35.2667 48.2235 32.5496 48.3398C31.7815 48.3722 30.9229 48.3381 30.6413 48.2628Z" fill="url(#paint1_linear)"/>
<defs>
<linearGradient id="paint0_linear" x1="32" y1="0" x2="32" y2="64" gradientUnits="userSpaceOnUse">
<stop stop-color="#FFCC4E"/>
<stop offset="0.192308" stop-color="#FEDD90"/>
<stop offset="1" stop-color="#96E6F0" stop-opacity="0.7"/>
</linearGradient>
<linearGradient id="paint1_linear" x1="32" y1="0" x2="32" y2="48.4" gradientUnits="userSpaceOnUse">
<stop stop-color="white"/>
<stop offset="1" stop-color="white" stop-opacity="0.7"/>
</linearGradient>
</defs>
</svg>
