<svg width="14" height="14" viewBox="0 0 14 14" fill="none" xmlns="http://www.w3.org/2000/svg">
<path d="M12.6878 6.125C12.6868 7.05295 12.3178 7.9426 11.6616 8.59876C11.0054 9.25491 10.1158 9.62399 9.18784 9.625H2.80636L4.68488 11.503C4.76697 11.5851 4.81309 11.6964 4.81309 11.8125C4.81309 11.9286 4.76697 12.0399 4.68488 12.122C4.60278 12.2041 4.49144 12.2502 4.37534 12.2502C4.25925 12.2502 4.14791 12.2041 4.06581 12.122L1.44081 9.49703C1.40014 9.4564 1.36787 9.40815 1.34585 9.35504C1.32383 9.30193 1.3125 9.24499 1.3125 9.1875C1.3125 9.13001 1.32383 9.07308 1.34585 9.01996C1.36787 8.96685 1.40014 8.9186 1.44081 8.87797L4.06581 6.25297C4.14791 6.17088 4.25925 6.12476 4.37534 6.12476C4.49144 6.12476 4.60278 6.17088 4.68488 6.25297C4.76697 6.33506 4.81309 6.4464 4.81309 6.5625C4.81309 6.6786 4.76697 6.78994 4.68488 6.87203L2.80636 8.75H9.18784C9.88404 8.75 10.5517 8.47344 11.044 7.98116C11.5363 7.48887 11.8128 6.82119 11.8128 6.125C11.8128 5.42881 11.5363 4.76113 11.044 4.26884C10.5517 3.77656 9.88404 3.5 9.18784 3.5H4.37534C4.25931 3.5 4.14803 3.45391 4.06598 3.37186C3.98394 3.28981 3.93784 3.17853 3.93784 3.0625C3.93784 2.94647 3.98394 2.83519 4.06598 2.75314C4.14803 2.67109 4.25931 2.625 4.37534 2.625H9.18784C10.1158 2.62601 11.0054 2.99509 11.6616 3.65125C12.3178 4.3074 12.6868 5.19705 12.6878 6.125Z" fill="#218256"/>
</svg>
