<svg width="67" height="14" viewBox="0 0 67 14" fill="none" xmlns="http://www.w3.org/2000/svg">
<path d="M0.163574 3.63249C0.163574 1.45308 1.9071 0.0182991 4.52239 0.0182991C6.86526 0.0182991 8.40901 1.32595 8.60878 3.50535H7.28298C7.13768 2.03425 6.13879 1.19881 4.50423 1.19881C2.66989 1.19881 1.47122 2.14322 1.47122 3.61432C1.47122 4.75851 2.1432 5.48498 3.50533 5.83006L5.73923 6.37491C7.77334 6.86528 8.82673 8.02763 8.82673 9.78932C8.82673 12.0414 7.0832 13.4762 4.39526 13.4762C1.87078 13.4762 0.163574 12.1503 0.000118243 10.0254H1.34409C1.41673 11.3876 2.61541 12.2775 4.39526 12.2775C6.30224 12.2775 7.51908 11.3512 7.51908 9.86196C7.51908 8.69961 6.86526 7.93682 5.4668 7.60991L3.26923 7.06506C1.23512 6.57469 0.163574 5.41234 0.163574 3.63249ZM12.4213 13.4762C10.5507 13.4762 9.44279 12.4228 9.44279 10.879C9.44279 9.26263 10.6778 8.24557 12.7301 8.08211L15.6359 7.84601V7.55542C15.6359 5.83006 14.6007 5.2852 13.3112 5.2852C11.7857 5.2852 10.8776 5.97535 10.8776 7.15586H9.73338C9.73338 5.37601 11.1863 4.23182 13.3476 4.23182C15.3817 4.23182 16.8709 5.24888 16.8709 7.57358V13.2582H15.8176L15.6541 11.7145C15.1093 12.8223 13.9106 13.4762 12.4213 13.4762ZM12.7119 12.4591C14.5644 12.4591 15.6359 11.1696 15.6359 9.26263V8.79042L13.0388 8.9902C11.3861 9.13549 10.7141 9.86196 10.7141 10.8427C10.7141 11.9142 11.5132 12.4591 12.7119 12.4591ZM20.4738 13.2582L16.8777 4.46793H18.2217L20.4919 10.1344C20.728 10.7701 20.9641 11.3694 21.1276 11.9506C21.291 11.3512 21.5271 10.7701 21.7814 10.1344L24.0879 4.46793H25.3774L21.7269 13.2582H20.4738ZM29.1421 13.4762C26.5632 13.4762 24.8378 11.6237 24.8378 8.86307C24.8378 6.12065 26.545 4.23182 29.0513 4.23182C31.4305 4.23182 33.0469 5.92087 33.0469 8.40902V9.02652H26.0547C26.1455 11.1696 27.2715 12.4046 29.1603 12.4046C30.5951 12.4046 31.5213 11.7871 31.8482 10.6248H33.0469C32.5747 12.4773 31.2126 13.4762 29.1421 13.4762ZM29.0513 5.30337C27.3986 5.30337 26.3089 6.39307 26.091 8.11844H31.7938C31.7938 6.42939 30.7041 5.30337 29.0513 5.30337ZM40.0492 1.43492H37.3976V0.254402H41.3024V13.2582H40.0492V1.43492ZM47.0501 13.4762C44.4349 13.4762 42.764 11.8416 42.764 9.28079H44.0716C44.0716 11.1514 45.2158 12.2775 47.0683 12.2775C49.0298 12.2775 50.3011 10.9698 50.3011 9.04469C50.3011 7.22851 49.1206 5.79373 47.0683 5.79373C45.8696 5.79373 44.7799 6.33859 44.0716 7.11954L43.0364 6.79263L44.5983 0.254402H50.8823V1.45308H45.5427L44.562 5.53947C45.2885 4.95829 46.2329 4.63138 47.2499 4.63138C49.956 4.63138 51.6269 6.57469 51.6269 9.00836C51.6269 11.6237 49.7744 13.4762 47.0501 13.4762ZM58.6092 3.23293C58.6092 5.10359 57.2834 6.44756 55.4309 6.44756C53.5784 6.44756 52.2345 5.10359 52.2345 3.23293C52.2345 1.36227 53.5784 0.000137601 55.4309 0.000137601C57.2834 0.000137601 58.6092 1.36227 58.6092 3.23293ZM65.2019 0.254402L55.322 13.2582H54.0143L63.8761 0.254402H65.2019ZM57.5195 3.23293C57.5195 1.94344 56.6659 1.05352 55.4309 1.05352C54.1778 1.05352 53.3242 1.94344 53.3242 3.23293C53.3242 4.50425 54.1959 5.41234 55.4309 5.41234C56.6478 5.41234 57.5195 4.50425 57.5195 3.23293ZM67 10.2797C67 12.1503 65.6741 13.4943 63.8216 13.4943C61.9692 13.4943 60.6252 12.1503 60.6252 10.2797C60.6252 8.40902 61.9692 7.04689 63.8216 7.04689C65.6741 7.04689 67 8.40902 67 10.2797ZM65.9102 10.2797C65.9102 8.9902 65.0566 8.10027 63.8216 8.10027C62.5685 8.10027 61.7149 8.9902 61.7149 10.2797C61.7149 11.551 62.5866 12.4409 63.8216 12.4409C65.0385 12.4409 65.9102 11.551 65.9102 10.2797Z" fill="#FDC24C"/>
<path d="M0.163574 3.63249C0.163574 1.45308 1.9071 0.0182991 4.52239 0.0182991C6.86526 0.0182991 8.40901 1.32595 8.60878 3.50535H7.28298C7.13768 2.03425 6.13879 1.19881 4.50423 1.19881C2.66989 1.19881 1.47122 2.14322 1.47122 3.61432C1.47122 4.75851 2.1432 5.48498 3.50533 5.83006L5.73923 6.37491C7.77334 6.86528 8.82673 8.02763 8.82673 9.78932C8.82673 12.0414 7.0832 13.4762 4.39526 13.4762C1.87078 13.4762 0.163574 12.1503 0.000118243 10.0254H1.34409C1.41673 11.3876 2.61541 12.2775 4.39526 12.2775C6.30224 12.2775 7.51908 11.3512 7.51908 9.86196C7.51908 8.69961 6.86526 7.93682 5.4668 7.60991L3.26923 7.06506C1.23512 6.57469 0.163574 5.41234 0.163574 3.63249ZM12.4213 13.4762C10.5507 13.4762 9.44279 12.4228 9.44279 10.879C9.44279 9.26263 10.6778 8.24557 12.7301 8.08211L15.6359 7.84601V7.55542C15.6359 5.83006 14.6007 5.2852 13.3112 5.2852C11.7857 5.2852 10.8776 5.97535 10.8776 7.15586H9.73338C9.73338 5.37601 11.1863 4.23182 13.3476 4.23182C15.3817 4.23182 16.8709 5.24888 16.8709 7.57358V13.2582H15.8176L15.6541 11.7145C15.1093 12.8223 13.9106 13.4762 12.4213 13.4762ZM12.7119 12.4591C14.5644 12.4591 15.6359 11.1696 15.6359 9.26263V8.79042L13.0388 8.9902C11.3861 9.13549 10.7141 9.86196 10.7141 10.8427C10.7141 11.9142 11.5132 12.4591 12.7119 12.4591ZM20.4738 13.2582L16.8777 4.46793H18.2217L20.4919 10.1344C20.728 10.7701 20.9641 11.3694 21.1276 11.9506C21.291 11.3512 21.5271 10.7701 21.7814 10.1344L24.0879 4.46793H25.3774L21.7269 13.2582H20.4738ZM29.1421 13.4762C26.5632 13.4762 24.8378 11.6237 24.8378 8.86307C24.8378 6.12065 26.545 4.23182 29.0513 4.23182C31.4305 4.23182 33.0469 5.92087 33.0469 8.40902V9.02652H26.0547C26.1455 11.1696 27.2715 12.4046 29.1603 12.4046C30.5951 12.4046 31.5213 11.7871 31.8482 10.6248H33.0469C32.5747 12.4773 31.2126 13.4762 29.1421 13.4762ZM29.0513 5.30337C27.3986 5.30337 26.3089 6.39307 26.091 8.11844H31.7938C31.7938 6.42939 30.7041 5.30337 29.0513 5.30337ZM40.0492 1.43492H37.3976V0.254402H41.3024V13.2582H40.0492V1.43492ZM47.0501 13.4762C44.4349 13.4762 42.764 11.8416 42.764 9.28079H44.0716C44.0716 11.1514 45.2158 12.2775 47.0683 12.2775C49.0298 12.2775 50.3011 10.9698 50.3011 9.04469C50.3011 7.22851 49.1206 5.79373 47.0683 5.79373C45.8696 5.79373 44.7799 6.33859 44.0716 7.11954L43.0364 6.79263L44.5983 0.254402H50.8823V1.45308H45.5427L44.562 5.53947C45.2885 4.95829 46.2329 4.63138 47.2499 4.63138C49.956 4.63138 51.6269 6.57469 51.6269 9.00836C51.6269 11.6237 49.7744 13.4762 47.0501 13.4762ZM58.6092 3.23293C58.6092 5.10359 57.2834 6.44756 55.4309 6.44756C53.5784 6.44756 52.2345 5.10359 52.2345 3.23293C52.2345 1.36227 53.5784 0.000137601 55.4309 0.000137601C57.2834 0.000137601 58.6092 1.36227 58.6092 3.23293ZM65.2019 0.254402L55.322 13.2582H54.0143L63.8761 0.254402H65.2019ZM57.5195 3.23293C57.5195 1.94344 56.6659 1.05352 55.4309 1.05352C54.1778 1.05352 53.3242 1.94344 53.3242 3.23293C53.3242 4.50425 54.1959 5.41234 55.4309 5.41234C56.6478 5.41234 57.5195 4.50425 57.5195 3.23293ZM67 10.2797C67 12.1503 65.6741 13.4943 63.8216 13.4943C61.9692 13.4943 60.6252 12.1503 60.6252 10.2797C60.6252 8.40902 61.9692 7.04689 63.8216 7.04689C65.6741 7.04689 67 8.40902 67 10.2797ZM65.9102 10.2797C65.9102 8.9902 65.0566 8.10027 63.8216 8.10027C62.5685 8.10027 61.7149 8.9902 61.7149 10.2797C61.7149 11.551 62.5866 12.4409 63.8216 12.4409C65.0385 12.4409 65.9102 11.551 65.9102 10.2797Z" fill="url(#paint0_radial_0_974)" fill-opacity="0.2"/>
<defs>
<radialGradient id="paint0_radial_0_974" cx="0" cy="0" r="1" gradientTransform="matrix(46.0873 10.5908 -42.0173 62.218 4.38048 -0.143096)" gradientUnits="userSpaceOnUse">
<stop stop-color="white"/>
<stop offset="1" stop-color="white" stop-opacity="0"/>
</radialGradient>
</defs>
</svg>
