<svg width="24" height="24" viewBox="0 0 24 24" fill="none" xmlns="http://www.w3.org/2000/svg">
<path d="M15.75 1.5H11.25C9.85807 1.50149 8.52358 2.05509 7.53933 3.03933C6.55509 4.02358 6.00149 5.35807 6 6.75H5.25C4.45435 6.75 3.69129 7.06607 3.12868 7.62868C2.56607 8.19129 2.25 8.95435 2.25 9.75V12.4866C2.25067 12.8273 2.36665 13.1577 2.57906 13.4241C2.59717 13.4467 2.61658 13.4683 2.63719 13.4888L6 16.8131V20.25C6 20.6478 6.15804 21.0294 6.43934 21.3107C6.72064 21.592 7.10218 21.75 7.5 21.75H18C18.3978 21.75 18.7794 21.592 19.0607 21.3107C19.342 21.0294 19.5 20.6478 19.5 20.25V16.605L20.9419 11.5566C20.9804 11.4228 21 11.2842 21 11.145V6.75C20.9985 5.35807 20.4449 4.02358 19.4607 3.03933C18.4764 2.05509 17.1419 1.50149 15.75 1.5ZM19.5 11.145L18.0291 16.2938C18.0096 16.3608 17.9999 16.4302 18 16.5V20.25H7.5V16.5C7.49996 16.4007 7.48021 16.3025 7.44191 16.2109C7.40361 16.1193 7.34751 16.0363 7.27688 15.9666L3.75 12.48V9.75C3.75 9.35218 3.90804 8.97064 4.18934 8.68934C4.47064 8.40804 4.85218 8.25 5.25 8.25H6V9.75C6 9.94891 6.07902 10.1397 6.21967 10.2803C6.36032 10.421 6.55109 10.5 6.75 10.5C6.94891 10.5 7.13968 10.421 7.28033 10.2803C7.42098 10.1397 7.5 9.94891 7.5 9.75V6.75C7.5 5.75544 7.89509 4.80161 8.59835 4.09835C9.30161 3.39509 10.2554 3 11.25 3H15.75C16.7446 3 17.6984 3.39509 18.4017 4.09835C19.1049 4.80161 19.5 5.75544 19.5 6.75V11.145ZM16.0856 15.6713L14.4272 16.5L16.0856 17.3287C16.2637 17.4178 16.399 17.5739 16.462 17.7627C16.5249 17.9515 16.5103 18.1576 16.4213 18.3356C16.3322 18.5137 16.1761 18.649 15.9873 18.712C15.7985 18.7749 15.5924 18.7603 15.4144 18.6713L12.75 17.3381L10.0856 18.6713C9.99748 18.7153 9.90151 18.7416 9.8032 18.7486C9.70489 18.7556 9.60617 18.7431 9.51268 18.712C9.41918 18.6808 9.33274 18.6315 9.25828 18.567C9.18383 18.5024 9.12282 18.4238 9.07875 18.3356C9.03467 18.2475 9.00839 18.1515 9.00141 18.0532C8.99442 17.9549 9.00687 17.8562 9.03803 17.7627C9.0692 17.6692 9.11847 17.5827 9.18305 17.5083C9.24762 17.4338 9.32623 17.3728 9.41437 17.3287L11.0728 16.5L9.41437 15.6713C9.32623 15.6272 9.24762 15.5662 9.18305 15.4917C9.11847 15.4173 9.0692 15.3308 9.03803 15.2373C9.00687 15.1438 8.99442 15.0451 9.00141 14.9468C9.00839 14.8485 9.03467 14.7525 9.07875 14.6644C9.12282 14.5762 9.18383 14.4976 9.25828 14.433C9.33274 14.3685 9.41918 14.3192 9.51268 14.288C9.7015 14.2251 9.9076 14.2397 10.0856 14.3287L12.75 15.6619L15.4144 14.3287C15.5025 14.2847 15.5985 14.2584 15.6968 14.2514C15.7951 14.2444 15.8938 14.2569 15.9873 14.288C16.0808 14.3192 16.1673 14.3685 16.2417 14.433C16.3162 14.4976 16.3772 14.5762 16.4213 14.6644C16.4653 14.7525 16.4916 14.8485 16.4986 14.9468C16.5056 15.0451 16.4931 15.1438 16.462 15.2373C16.4308 15.3308 16.3815 15.4173 16.317 15.4917C16.2524 15.5662 16.1738 15.6272 16.0856 15.6713Z" fill="#DF2E16"/>
</svg>
