<svg width="100" height="101" viewBox="0 0 100 101" fill="none" xmlns="http://www.w3.org/2000/svg">
<g filter="url(#filter0_dddi_2001_99172)">
<g clip-path="url(#clip0_2001_99172)">
<rect x="10" y="7" width="80" height="80" rx="40" fill="white"/>
<g filter="url(#filter1_f_2001_99172)">
<g filter="url(#filter2_f_2001_99172)">
<path d="M48.0011 51.1875L116.387 26.4157L77.6505 69.3619L48.0011 51.1875Z" fill="#8A32C8"/>
</g>
<g filter="url(#filter3_f_2001_99172)" style="mix-blend-mode:plus-lighter">
<path d="M48.0011 51.1875L116.387 26.4157L77.6505 69.3619L48.0011 51.1875Z" fill="#8A32C8"/>
</g>
<g filter="url(#filter4_f_2001_99172)" style="mix-blend-mode:lighten">
<path d="M37.001 45.4L-3.99902 37V39.4L15.8397 65L37.001 59.4V45.4Z" fill="#FF9C81"/>
</g>
<g filter="url(#filter5_f_2001_99172)" style="mix-blend-mode:lighten">
<path d="M37.001 45.4L-3.99902 37V39.4L15.8397 65L37.001 59.4V45.4Z" fill="#FF9C81"/>
</g>
<g filter="url(#filter6_f_2001_99172)" style="mix-blend-mode:lighten">
<path d="M37.001 45.4L-3.99902 37V39.4L15.8397 65L37.001 59.4V45.4Z" fill="#FF9C81"/>
</g>
<g filter="url(#filter7_f_2001_99172)">
<path d="M44.8409 51.134L23.001 71.5488L26.9389 72.1586L72.8425 67.7519L67.8124 54.6909L44.8409 51.134Z" fill="#FF6128"/>
</g>
<g filter="url(#filter8_f_2001_99172)">
<path d="M44.8409 51.134L23.001 71.5488L26.9389 72.1586L72.8425 67.7519L67.8124 54.6909L44.8409 51.134Z" fill="#FF6128"/>
</g>
<g filter="url(#filter9_f_2001_99172)">
<path d="M26.001 28L78.001 34.3L41.8486 42L26.001 28Z" fill="#63AAFF"/>
</g>
<g filter="url(#filter10_f_2001_99172)" style="mix-blend-mode:soft-light">
<path d="M26.001 28L78.001 34.3L41.8486 42L26.001 28Z" fill="#63AAFF"/>
</g>
<path opacity="0.7" d="M11.3629 92.7286L39.4727 63.2461L-9.115 38.8758L-4.19949 62.1379L-3.6642 84.4063L11.3629 92.7286Z" fill="white"/>
<path d="M86.9231 34.835L56.001 97.0703L58.8056 97.9754L98.9341 75.9828L103.283 40.1146L86.9231 34.835Z" fill="white"/>
</g>
<foreignObject x="2.00098" y="4" width="100" height="62"><div xmlns="http://www.w3.org/1999/xhtml" style="backdrop-filter:blur(10px);clip-path:url(#bgblur_1_2001_99172_clip_path);height:100%;width:100%"></div></foreignObject><rect data-figma-bg-blur-radius="20" x="10" y="7" width="80" height="80" fill="url(#paint0_radial_2001_99172)"/>
<g filter="url(#filter11_d_2001_99172)">
<path d="M71 46.999C71.0048 47.6143 70.8177 48.2157 70.4649 48.7198C70.1121 49.2238 69.611 49.6054 69.0312 49.8115C69.0312 49.8115 60.6311 50.6417 57.1362 54.1371C53.6421 57.6319 52.8125 66.0303 52.8125 66.0303C52.5994 66.6044 52.2157 67.0996 51.7129 67.4492C51.2101 67.7989 50.6124 67.9863 50 67.9863C49.3876 67.9863 48.7898 67.7989 48.2871 67.4492C47.7843 67.0996 47.4006 66.6044 47.1875 66.0303C47.1875 66.0303 46.3587 57.6302 42.8637 54.1353C39.3688 50.6403 30.9687 49.8115 30.9687 49.8115C30.3946 49.5984 29.8994 49.2147 29.5498 48.7119C29.2001 48.2092 29.0127 47.6114 29.0127 46.999C29.0127 46.3866 29.2001 45.7889 29.5498 45.2861C29.8994 44.7833 30.3946 44.3996 30.9687 44.1865C30.9687 44.1865 39.3688 43.3577 42.8637 39.8628C46.3587 36.3678 47.1875 27.9678 47.1875 27.9678C47.4006 27.3936 47.7843 26.8985 48.2871 26.5488C48.7898 26.1991 49.3876 26.0117 50 26.0117C50.6124 26.0117 51.2101 26.1991 51.7129 26.5488C52.2157 26.8985 52.5994 27.3936 52.8125 27.9678C52.8125 27.9678 53.6426 36.3679 57.1381 39.8628C60.6329 43.357 69.0312 44.1865 69.0312 44.1865C69.611 44.3926 70.1121 44.7742 70.4649 45.2783C70.8177 45.7823 71.0048 46.3838 71 46.999Z" fill="white"/>
</g>
<g filter="url(#filter12_f_2001_99172)">
<g filter="url(#filter13_f_2001_99172)">
<rect x="31" y="61.4141" width="2.66667" height="2.66667" transform="rotate(-45 31 61.4141)" fill="white" fill-opacity="0.5"/>
</g>
<rect x="31.9424" y="61.4141" width="1.33333" height="1.33333" transform="rotate(-45 31.9424 61.4141)" fill="white"/>
</g>
<g filter="url(#filter14_f_2001_99172)">
<g filter="url(#filter15_f_2001_99172)">
<rect x="70" y="61.4141" width="2.66667" height="2.66667" transform="rotate(-45 70 61.4141)" fill="white" fill-opacity="0.5"/>
</g>
<rect x="70.9424" y="61.4141" width="1.33333" height="1.33333" transform="rotate(-45 70.9424 61.4141)" fill="white"/>
</g>
<g filter="url(#filter16_f_2001_99172)">
<g filter="url(#filter17_f_2001_99172)">
<rect x="70" y="35.4141" width="2.66667" height="2.66667" transform="rotate(-45 70 35.4141)" fill="white" fill-opacity="0.5"/>
</g>
<rect x="70.9424" y="35.4141" width="1.33333" height="1.33333" transform="rotate(-45 70.9424 35.4141)" fill="white"/>
</g>
<g filter="url(#filter18_f_2001_99172)">
<g filter="url(#filter19_f_2001_99172)">
<rect x="37" y="21.4141" width="2.66667" height="2.66667" transform="rotate(-45 37 21.4141)" fill="white" fill-opacity="0.5"/>
</g>
<rect x="37.9424" y="21.4141" width="1.33333" height="1.33333" transform="rotate(-45 37.9424 21.4141)" fill="white"/>
</g>
</g>
<rect x="10.5" y="7.5" width="79" height="79" rx="39.5" stroke="url(#paint1_linear_2001_99172)"/>
</g>
<defs>
<filter id="filter0_dddi_2001_99172" x="0" y="0" width="100" height="101" filterUnits="userSpaceOnUse" color-interpolation-filters="sRGB">
<feFlood flood-opacity="0" result="BackgroundImageFix"/>
<feColorMatrix in="SourceAlpha" type="matrix" values="0 0 0 0 0 0 0 0 0 0 0 0 0 0 0 0 0 0 127 0" result="hardAlpha"/>
<feMorphology radius="2" operator="dilate" in="SourceAlpha" result="effect1_dropShadow_2001_99172"/>
<feOffset dy="4"/>
<feGaussianBlur stdDeviation="4"/>
<feComposite in2="hardAlpha" operator="out"/>
<feColorMatrix type="matrix" values="0 0 0 0 0 0 0 0 0 0 0 0 0 0 0 0 0 0 0.05 0"/>
<feBlend mode="normal" in2="BackgroundImageFix" result="effect1_dropShadow_2001_99172"/>
<feColorMatrix in="SourceAlpha" type="matrix" values="0 0 0 0 0 0 0 0 0 0 0 0 0 0 0 0 0 0 127 0" result="hardAlpha"/>
<feMorphology radius="1" operator="dilate" in="SourceAlpha" result="effect2_dropShadow_2001_99172"/>
<feOffset dy="2"/>
<feGaussianBlur stdDeviation="4"/>
<feComposite in2="hardAlpha" operator="out"/>
<feColorMatrix type="matrix" values="0 0 0 0 0 0 0 0 0 0 0 0 0 0 0 0 0 0 0.05 0"/>
<feBlend mode="normal" in2="effect1_dropShadow_2001_99172" result="effect2_dropShadow_2001_99172"/>
<feColorMatrix in="SourceAlpha" type="matrix" values="0 0 0 0 0 0 0 0 0 0 0 0 0 0 0 0 0 0 127 0" result="hardAlpha"/>
<feMorphology radius="1" operator="dilate" in="SourceAlpha" result="effect3_dropShadow_2001_99172"/>
<feOffset/>
<feComposite in2="hardAlpha" operator="out"/>
<feColorMatrix type="matrix" values="0 0 0 0 0.782621 0 0 0 0 0.782621 0 0 0 0 0.782621 0 0 0 0.1 0"/>
<feBlend mode="normal" in2="effect2_dropShadow_2001_99172" result="effect3_dropShadow_2001_99172"/>
<feBlend mode="normal" in="SourceGraphic" in2="effect3_dropShadow_2001_99172" result="shape"/>
<feColorMatrix in="SourceAlpha" type="matrix" values="0 0 0 0 0 0 0 0 0 0 0 0 0 0 0 0 0 0 127 0" result="hardAlpha"/>
<feMorphology radius="2" operator="erode" in="SourceAlpha" result="effect4_innerShadow_2001_99172"/>
<feOffset/>
<feGaussianBlur stdDeviation="2"/>
<feComposite in2="hardAlpha" operator="arithmetic" k2="-1" k3="1"/>
<feColorMatrix type="matrix" values="0 0 0 0 1 0 0 0 0 1 0 0 0 0 1 0 0 0 1 0"/>
<feBlend mode="normal" in2="shape" result="effect4_innerShadow_2001_99172"/>
</filter>
<filter id="filter1_f_2001_99172" x="-21.1152" y="14.416" width="149.502" height="95.5586" filterUnits="userSpaceOnUse" color-interpolation-filters="sRGB">
<feFlood flood-opacity="0" result="BackgroundImageFix"/>
<feBlend mode="normal" in="SourceGraphic" in2="BackgroundImageFix" result="shape"/>
<feGaussianBlur stdDeviation="6" result="effect1_foregroundBlur_2001_99172"/>
</filter>
<filter id="filter2_f_2001_99172" x="36.001" y="14.416" width="92.3857" height="66.9453" filterUnits="userSpaceOnUse" color-interpolation-filters="sRGB">
<feFlood flood-opacity="0" result="BackgroundImageFix"/>
<feBlend mode="normal" in="SourceGraphic" in2="BackgroundImageFix" result="shape"/>
<feGaussianBlur stdDeviation="6" result="effect1_foregroundBlur_2001_99172"/>
</filter>
<filter id="filter3_f_2001_99172" x="24.001" y="2.41602" width="116.386" height="90.9453" filterUnits="userSpaceOnUse" color-interpolation-filters="sRGB">
<feFlood flood-opacity="0" result="BackgroundImageFix"/>
<feBlend mode="normal" in="SourceGraphic" in2="BackgroundImageFix" result="shape"/>
<feGaussianBlur stdDeviation="12" result="effect1_foregroundBlur_2001_99172"/>
</filter>
<filter id="filter4_f_2001_99172" x="-15.999" y="25" width="65" height="52" filterUnits="userSpaceOnUse" color-interpolation-filters="sRGB">
<feFlood flood-opacity="0" result="BackgroundImageFix"/>
<feBlend mode="normal" in="SourceGraphic" in2="BackgroundImageFix" result="shape"/>
<feGaussianBlur stdDeviation="6" result="effect1_foregroundBlur_2001_99172"/>
</filter>
<filter id="filter5_f_2001_99172" x="-27.999" y="13" width="89" height="76" filterUnits="userSpaceOnUse" color-interpolation-filters="sRGB">
<feFlood flood-opacity="0" result="BackgroundImageFix"/>
<feBlend mode="normal" in="SourceGraphic" in2="BackgroundImageFix" result="shape"/>
<feGaussianBlur stdDeviation="12" result="effect1_foregroundBlur_2001_99172"/>
</filter>
<filter id="filter6_f_2001_99172" x="-35.999" y="5" width="105" height="92" filterUnits="userSpaceOnUse" color-interpolation-filters="sRGB">
<feFlood flood-opacity="0" result="BackgroundImageFix"/>
<feBlend mode="normal" in="SourceGraphic" in2="BackgroundImageFix" result="shape"/>
<feGaussianBlur stdDeviation="16" result="effect1_foregroundBlur_2001_99172"/>
</filter>
<filter id="filter7_f_2001_99172" x="-0.999023" y="27.1348" width="97.8418" height="69.0234" filterUnits="userSpaceOnUse" color-interpolation-filters="sRGB">
<feFlood flood-opacity="0" result="BackgroundImageFix"/>
<feBlend mode="normal" in="SourceGraphic" in2="BackgroundImageFix" result="shape"/>
<feGaussianBlur stdDeviation="12" result="effect1_foregroundBlur_2001_99172"/>
</filter>
<filter id="filter8_f_2001_99172" x="11.001" y="39.1348" width="73.8418" height="45.0234" filterUnits="userSpaceOnUse" color-interpolation-filters="sRGB">
<feFlood flood-opacity="0" result="BackgroundImageFix"/>
<feBlend mode="normal" in="SourceGraphic" in2="BackgroundImageFix" result="shape"/>
<feGaussianBlur stdDeviation="6" result="effect1_foregroundBlur_2001_99172"/>
</filter>
<filter id="filter9_f_2001_99172" x="14.001" y="16" width="76" height="38" filterUnits="userSpaceOnUse" color-interpolation-filters="sRGB">
<feFlood flood-opacity="0" result="BackgroundImageFix"/>
<feBlend mode="normal" in="SourceGraphic" in2="BackgroundImageFix" result="shape"/>
<feGaussianBlur stdDeviation="6" result="effect1_foregroundBlur_2001_99172"/>
</filter>
<filter id="filter10_f_2001_99172" x="2.00098" y="4" width="100" height="62" filterUnits="userSpaceOnUse" color-interpolation-filters="sRGB">
<feFlood flood-opacity="0" result="BackgroundImageFix"/>
<feBlend mode="normal" in="SourceGraphic" in2="BackgroundImageFix" result="shape"/>
<feGaussianBlur stdDeviation="12" result="effect1_foregroundBlur_2001_99172"/>
</filter>
<clipPath id="bgblur_1_2001_99172_clip_path" transform="translate(-2.00098 -4)"><rect x="10" y="7" width="80" height="80"/>
</clipPath><filter id="filter11_d_2001_99172" x="20.0127" y="20.0117" width="59.9873" height="59.9746" filterUnits="userSpaceOnUse" color-interpolation-filters="sRGB">
<feFlood flood-opacity="0" result="BackgroundImageFix"/>
<feColorMatrix in="SourceAlpha" type="matrix" values="0 0 0 0 0 0 0 0 0 0 0 0 0 0 0 0 0 0 127 0" result="hardAlpha"/>
<feOffset dy="3"/>
<feGaussianBlur stdDeviation="4.5"/>
<feComposite in2="hardAlpha" operator="out"/>
<feColorMatrix type="matrix" values="0 0 0 0 0 0 0 0 0 0 0 0 0 0 0 0 0 0 0.12 0"/>
<feBlend mode="normal" in2="BackgroundImageFix" result="effect1_dropShadow_2001_99172"/>
<feBlend mode="normal" in="SourceGraphic" in2="effect1_dropShadow_2001_99172" result="shape"/>
</filter>
<filter id="filter12_f_2001_99172" x="30" y="58.5293" width="5.77148" height="5.76953" filterUnits="userSpaceOnUse" color-interpolation-filters="sRGB">
<feFlood flood-opacity="0" result="BackgroundImageFix"/>
<feBlend mode="normal" in="SourceGraphic" in2="BackgroundImageFix" result="shape"/>
<feGaussianBlur stdDeviation="0.5" result="effect1_foregroundBlur_2001_99172"/>
</filter>
<filter id="filter13_f_2001_99172" x="30" y="58.5293" width="5.77148" height="5.76953" filterUnits="userSpaceOnUse" color-interpolation-filters="sRGB">
<feFlood flood-opacity="0" result="BackgroundImageFix"/>
<feBlend mode="normal" in="SourceGraphic" in2="BackgroundImageFix" result="shape"/>
<feGaussianBlur stdDeviation="0.5" result="effect1_foregroundBlur_2001_99172"/>
</filter>
<filter id="filter14_f_2001_99172" x="69" y="58.5293" width="5.77148" height="5.76953" filterUnits="userSpaceOnUse" color-interpolation-filters="sRGB">
<feFlood flood-opacity="0" result="BackgroundImageFix"/>
<feBlend mode="normal" in="SourceGraphic" in2="BackgroundImageFix" result="shape"/>
<feGaussianBlur stdDeviation="0.5" result="effect1_foregroundBlur_2001_99172"/>
</filter>
<filter id="filter15_f_2001_99172" x="69" y="58.5293" width="5.77148" height="5.76953" filterUnits="userSpaceOnUse" color-interpolation-filters="sRGB">
<feFlood flood-opacity="0" result="BackgroundImageFix"/>
<feBlend mode="normal" in="SourceGraphic" in2="BackgroundImageFix" result="shape"/>
<feGaussianBlur stdDeviation="0.5" result="effect1_foregroundBlur_2001_99172"/>
</filter>
<filter id="filter16_f_2001_99172" x="69" y="32.5293" width="5.77148" height="5.76953" filterUnits="userSpaceOnUse" color-interpolation-filters="sRGB">
<feFlood flood-opacity="0" result="BackgroundImageFix"/>
<feBlend mode="normal" in="SourceGraphic" in2="BackgroundImageFix" result="shape"/>
<feGaussianBlur stdDeviation="0.5" result="effect1_foregroundBlur_2001_99172"/>
</filter>
<filter id="filter17_f_2001_99172" x="69" y="32.5293" width="5.77148" height="5.76953" filterUnits="userSpaceOnUse" color-interpolation-filters="sRGB">
<feFlood flood-opacity="0" result="BackgroundImageFix"/>
<feBlend mode="normal" in="SourceGraphic" in2="BackgroundImageFix" result="shape"/>
<feGaussianBlur stdDeviation="0.5" result="effect1_foregroundBlur_2001_99172"/>
</filter>
<filter id="filter18_f_2001_99172" x="36" y="18.5293" width="5.77148" height="5.76953" filterUnits="userSpaceOnUse" color-interpolation-filters="sRGB">
<feFlood flood-opacity="0" result="BackgroundImageFix"/>
<feBlend mode="normal" in="SourceGraphic" in2="BackgroundImageFix" result="shape"/>
<feGaussianBlur stdDeviation="0.5" result="effect1_foregroundBlur_2001_99172"/>
</filter>
<filter id="filter19_f_2001_99172" x="36" y="18.5293" width="5.77148" height="5.76953" filterUnits="userSpaceOnUse" color-interpolation-filters="sRGB">
<feFlood flood-opacity="0" result="BackgroundImageFix"/>
<feBlend mode="normal" in="SourceGraphic" in2="BackgroundImageFix" result="shape"/>
<feGaussianBlur stdDeviation="0.5" result="effect1_foregroundBlur_2001_99172"/>
</filter>
<radialGradient id="paint0_radial_2001_99172" cx="0" cy="0" r="1" gradientUnits="userSpaceOnUse" gradientTransform="translate(50 47) rotate(90) scale(58 50.1543)">
<stop stop-color="white" stop-opacity="0"/>
<stop offset="1" stop-color="#DDEAFF"/>
</radialGradient>
<linearGradient id="paint1_linear_2001_99172" x1="50" y1="7" x2="50" y2="87" gradientUnits="userSpaceOnUse">
<stop stop-color="white"/>
<stop offset="1" stop-color="white" stop-opacity="0"/>
</linearGradient>
<clipPath id="clip0_2001_99172">
<rect x="10" y="7" width="80" height="80" rx="40" fill="white"/>
</clipPath>
</defs>
</svg>
