<svg width="232" height="102" viewBox="0 0 232 102" fill="none" xmlns="http://www.w3.org/2000/svg">
<path d="M137.415 16.585L127.415 6.585C127.229 6.39933 127.008 6.2521 126.766 6.15173C126.523 6.05135 126.263 5.99979 126 6H106C104.939 6 103.922 6.42143 103.172 7.17157C102.421 7.92172 102 8.93913 102 10V14H98C96.9391 14 95.9217 14.4214 95.1716 15.1716C94.4214 15.9217 94 16.9391 94 18V54C94 55.0609 94.4214 56.0783 95.1716 56.8284C95.9217 57.5786 96.9391 58 98 58H126C127.061 58 128.078 57.5786 128.828 56.8284C129.579 56.0783 130 55.0609 130 54V50H134C135.061 50 136.078 49.5786 136.828 48.8284C137.579 48.0783 138 47.0609 138 46V18C138 17.7373 137.949 17.4771 137.848 17.2343C137.748 16.9915 137.601 16.7709 137.415 16.585ZM126 54H98V18H117.173L126 26.8275V47.96C126 47.975 126 47.9875 126 48C126 48.0125 126 48.025 126 48.04V54ZM134 46H130V26C130 25.7373 129.949 25.4771 129.848 25.2343C129.748 24.9915 129.601 24.7709 129.415 24.585L119.415 14.585C119.229 14.3993 119.008 14.2521 118.766 14.1517C118.523 14.0514 118.263 13.9998 118 14H106V10H125.173L134 18.8275V46ZM120 38C120 38.5304 119.789 39.0391 119.414 39.4142C119.039 39.7893 118.53 40 118 40H106C105.47 40 104.961 39.7893 104.586 39.4142C104.211 39.0391 104 38.5304 104 38C104 37.4696 104.211 36.9609 104.586 36.5858C104.961 36.2107 105.47 36 106 36H118C118.53 36 119.039 36.2107 119.414 36.5858C119.789 36.9609 120 37.4696 120 38ZM120 46C120 46.5304 119.789 47.0391 119.414 47.4142C119.039 47.7893 118.53 48 118 48H106C105.47 48 104.961 47.7893 104.586 47.4142C104.211 47.0391 104 46.5304 104 46C104 45.4696 104.211 44.9609 104.586 44.5858C104.961 44.2107 105.47 44 106 44H118C118.53 44 119.039 44.2107 119.414 44.5858C119.789 44.9609 120 45.4696 120 46Z" fill="white"/>
<path d="M5.31543 96H2.08105V94.2686H5.20117C6.19727 94.2686 7.02637 94.084 7.68848 93.7148C8.35059 93.3398 8.8457 92.792 9.17383 92.0713C9.50195 91.3447 9.66602 90.4658 9.66602 89.4346C9.66602 88.4092 9.50195 87.5391 9.17383 86.8242C8.85156 86.1094 8.36816 85.5674 7.72363 85.1982C7.0791 84.8232 6.2793 84.6357 5.32422 84.6357H2.01074V82.9043H5.44727C6.73047 82.9043 7.83203 83.165 8.75195 83.6865C9.67188 84.208 10.3779 84.958 10.8701 85.9365C11.3623 86.9092 11.6084 88.0752 11.6084 89.4346C11.6084 90.7998 11.3594 91.9717 10.8613 92.9502C10.3691 93.9287 9.6543 94.6816 8.7168 95.209C7.7793 95.7363 6.64551 96 5.31543 96ZM3.04785 82.9043V96H1.07031V82.9043H3.04785ZM13.6641 96V86.1738H15.501V87.7471H15.6064C15.7881 87.2197 16.1045 86.8037 16.5557 86.499C17.0127 86.1885 17.5283 86.0332 18.1025 86.0332C18.2197 86.0332 18.3574 86.0391 18.5156 86.0508C18.6797 86.0566 18.8115 86.0654 18.9111 86.0771V87.9053C18.835 87.8818 18.6973 87.8584 18.498 87.835C18.3047 87.8115 18.1084 87.7998 17.9092 87.7998C17.458 87.7998 17.0537 87.8965 16.6963 88.0898C16.3447 88.2773 16.0664 88.5381 15.8613 88.8721C15.6621 89.2002 15.5625 89.5811 15.5625 90.0146V96H13.6641ZM23.0938 96.2109C22.4727 96.2109 21.9102 96.0967 21.4062 95.8682C20.9023 95.6338 20.5039 95.2939 20.2109 94.8486C19.918 94.4033 19.7715 93.8613 19.7715 93.2227C19.7715 92.666 19.877 92.2119 20.0879 91.8604C20.3047 91.5029 20.5947 91.2188 20.958 91.0078C21.3213 90.7969 21.7256 90.6387 22.1709 90.5332C22.6162 90.4277 23.0732 90.3457 23.542 90.2871C24.1338 90.2227 24.6113 90.167 24.9746 90.1201C25.3379 90.0732 25.6016 90 25.7656 89.9004C25.9355 89.7949 26.0205 89.6279 26.0205 89.3994V89.3555C26.0205 88.7988 25.8623 88.3682 25.5459 88.0635C25.2354 87.7588 24.7725 87.6064 24.1572 87.6064C23.5186 87.6064 23.0117 87.7471 22.6367 88.0283C22.2676 88.3037 22.0127 88.6172 21.8721 88.9688L20.0703 88.5557C20.2871 87.958 20.6006 87.4775 21.0107 87.1143C21.4268 86.7451 21.9014 86.4756 22.4346 86.3057C22.9736 86.1357 23.5361 86.0508 24.1221 86.0508C24.5146 86.0508 24.9307 86.0977 25.3701 86.1914C25.8096 86.2793 26.2227 86.4463 26.6094 86.6924C27.002 86.9326 27.3213 87.2783 27.5674 87.7295C27.8135 88.1807 27.9365 88.7637 27.9365 89.4785V96H26.0645V94.6553H25.9941C25.877 94.8955 25.6924 95.1357 25.4404 95.376C25.1943 95.6162 24.8779 95.8154 24.4912 95.9736C24.1045 96.1318 23.6387 96.2109 23.0938 96.2109ZM23.5068 94.6816C24.04 94.6816 24.4941 94.5791 24.8691 94.374C25.2441 94.1631 25.5312 93.8877 25.7305 93.5479C25.9297 93.208 26.0293 92.8477 26.0293 92.4668V91.1924C25.959 91.2568 25.8271 91.3184 25.6338 91.377C25.4404 91.4355 25.2207 91.4854 24.9746 91.5264C24.7285 91.5674 24.4883 91.6055 24.2539 91.6406C24.0195 91.6699 23.8232 91.6934 23.665 91.7109C23.2959 91.7637 22.959 91.8457 22.6543 91.957C22.3496 92.0625 22.1035 92.2207 21.916 92.4316C21.7344 92.6367 21.6436 92.9092 21.6436 93.249C21.6436 93.7236 21.8193 94.0811 22.1709 94.3213C22.5225 94.5615 22.9678 94.6816 23.5068 94.6816ZM34.3691 99.8848C33.1973 99.8848 32.2744 99.665 31.6006 99.2256C30.9268 98.7861 30.4609 98.2646 30.2031 97.6611L31.8379 96.9844C31.9551 97.1719 32.1104 97.3711 32.3037 97.582C32.5029 97.793 32.7695 97.9717 33.1035 98.1182C33.4375 98.2646 33.8682 98.3379 34.3955 98.3379C35.1162 98.3379 35.7139 98.1621 36.1885 97.8105C36.6631 97.4648 36.9004 96.9082 36.9004 96.1406V94.2158H36.7686C36.6631 94.4209 36.502 94.6523 36.2852 94.9102C36.0684 95.1621 35.7725 95.3818 35.3975 95.5693C35.0225 95.7568 34.5332 95.8506 33.9297 95.8506C33.1562 95.8506 32.459 95.6689 31.8379 95.3057C31.2227 94.9365 30.7305 94.3975 30.3613 93.6885C29.998 92.9736 29.8164 92.0947 29.8164 91.0518C29.8164 90.0088 29.9951 89.1152 30.3525 88.3711C30.7158 87.6211 31.208 87.0469 31.8291 86.6484C32.4502 86.25 33.1562 86.0508 33.9473 86.0508C34.5566 86.0508 35.0488 86.1533 35.4238 86.3584C35.8047 86.5576 36.1006 86.792 36.3115 87.0615C36.5225 87.3311 36.6865 87.5684 36.8037 87.7734H36.9443V86.1738H38.7988V96.2197C38.7988 97.0635 38.6025 97.7549 38.21 98.2939C37.8232 98.833 37.2959 99.2314 36.6279 99.4893C35.96 99.7529 35.207 99.8848 34.3691 99.8848ZM34.3516 94.2598C35.1777 94.2598 35.8105 93.9756 36.25 93.4072C36.6953 92.833 36.918 92.0391 36.918 91.0254C36.918 90.3633 36.8213 89.7832 36.6279 89.2852C36.4346 88.7812 36.1475 88.3887 35.7666 88.1074C35.3857 87.8203 34.9141 87.6768 34.3516 87.6768C33.7773 87.6768 33.2969 87.8262 32.9102 88.125C32.5293 88.418 32.2422 88.8193 32.0488 89.3291C31.8555 89.833 31.7588 90.3984 31.7588 91.0254C31.7588 91.6641 31.8555 92.2295 32.0488 92.7217C32.2422 93.208 32.5322 93.5859 32.9189 93.8555C33.3115 94.125 33.7891 94.2598 34.3516 94.2598ZM50.3105 86.1738V87.7119H44.7646V86.1738H50.3105ZM46.2764 96V85.0312C46.2764 84.4219 46.4111 83.915 46.6807 83.5107C46.9561 83.1006 47.3135 82.7959 47.7529 82.5967C48.1982 82.3916 48.6758 82.2891 49.1855 82.2891C49.5781 82.2891 49.9121 82.3213 50.1875 82.3857C50.4629 82.4502 50.665 82.5059 50.7939 82.5527L50.3369 84.0996C50.249 84.0703 50.1348 84.0381 49.9941 84.0029C49.8594 83.9678 49.6895 83.9502 49.4844 83.9502C49.0215 83.9502 48.6875 84.0674 48.4824 84.3018C48.2773 84.5303 48.1748 84.8643 48.1748 85.3037V96H46.2764ZM52.0234 96V86.1738H53.9219V96H52.0234ZM52.9814 84.6621C52.6475 84.6621 52.3633 84.5508 52.1289 84.3281C51.8945 84.1055 51.7773 83.8389 51.7773 83.5283C51.7773 83.2119 51.8945 82.9424 52.1289 82.7197C52.3633 82.4971 52.6475 82.3857 52.9814 82.3857C53.3096 82.3857 53.5908 82.4971 53.8252 82.7197C54.0654 82.9424 54.1855 83.2119 54.1855 83.5283C54.1855 83.8389 54.0654 84.1055 53.8252 84.3281C53.5908 84.5508 53.3096 84.6621 52.9814 84.6621ZM58.1484 82.9043V96H56.25V82.9043H58.1484ZM64.7041 96.2021C63.7432 96.2021 62.9111 95.9941 62.208 95.5781C61.5049 95.1621 60.9629 94.5762 60.582 93.8203C60.207 93.0586 60.0195 92.1709 60.0195 91.1572C60.0195 90.1494 60.2041 89.2617 60.5732 88.4941C60.9482 87.7266 61.4727 87.1289 62.1465 86.7012C62.8262 86.2676 63.623 86.0508 64.5371 86.0508C65.0938 86.0508 65.6328 86.1416 66.1543 86.3232C66.6758 86.5049 67.1445 86.792 67.5605 87.1846C67.9766 87.5771 68.3047 88.0869 68.5449 88.7139C68.791 89.3408 68.9141 90.0967 68.9141 90.9814V91.667H61.1006V90.2344H67.9297L67.042 90.709C67.042 90.1055 66.9482 89.5723 66.7607 89.1094C66.5732 88.6465 66.292 88.2861 65.917 88.0283C65.5479 87.7646 65.0879 87.6328 64.5371 87.6328C63.9863 87.6328 63.5146 87.7646 63.1221 88.0283C62.7354 88.292 62.4395 88.6406 62.2344 89.0742C62.0293 89.5078 61.9268 89.9824 61.9268 90.498V91.4736C61.9268 92.1475 62.0439 92.7188 62.2783 93.1875C62.5127 93.6562 62.8379 94.0137 63.2539 94.2598C63.6758 94.5059 64.165 94.6289 64.7217 94.6289C65.085 94.6289 65.4131 94.5762 65.7061 94.4707C66.0049 94.3652 66.2627 94.207 66.4795 93.9961C66.6963 93.7852 66.8604 93.5244 66.9717 93.2139L68.7822 93.5566C68.6357 94.084 68.3779 94.5469 68.0088 94.9453C67.6396 95.3438 67.1738 95.6543 66.6113 95.877C66.0547 96.0938 65.4189 96.2021 64.7041 96.2021ZM77.1562 90.1729V96H75.2578V82.9043H77.1299V87.791H77.2617C77.4902 87.2578 77.8389 86.8359 78.3076 86.5254C78.7822 86.209 79.4004 86.0508 80.1621 86.0508C80.8359 86.0508 81.4248 86.1885 81.9287 86.4639C82.4326 86.7393 82.8252 87.1523 83.1064 87.7031C83.3936 88.2539 83.5371 88.9395 83.5371 89.7598V96H81.6211V89.9883C81.6211 89.2617 81.4336 88.6992 81.0586 88.3008C80.6895 87.9023 80.1738 87.7031 79.5117 87.7031C79.0547 87.7031 78.6504 87.8027 78.2988 88.002C77.9473 88.1953 77.6689 88.4736 77.4639 88.8369C77.2588 89.2002 77.1562 89.6455 77.1562 90.1729ZM90.0928 96.2021C89.1318 96.2021 88.2998 95.9941 87.5967 95.5781C86.8936 95.1621 86.3516 94.5762 85.9707 93.8203C85.5957 93.0586 85.4082 92.1709 85.4082 91.1572C85.4082 90.1494 85.5928 89.2617 85.9619 88.4941C86.3369 87.7266 86.8613 87.1289 87.5352 86.7012C88.2148 86.2676 89.0117 86.0508 89.9258 86.0508C90.4824 86.0508 91.0215 86.1416 91.543 86.3232C92.0645 86.5049 92.5332 86.792 92.9492 87.1846C93.3652 87.5771 93.6934 88.0869 93.9336 88.7139C94.1797 89.3408 94.3027 90.0967 94.3027 90.9814V91.667H86.4893V90.2344H93.3184L92.4307 90.709C92.4307 90.1055 92.3369 89.5723 92.1494 89.1094C91.9619 88.6465 91.6807 88.2861 91.3057 88.0283C90.9365 87.7646 90.4766 87.6328 89.9258 87.6328C89.375 87.6328 88.9033 87.7646 88.5107 88.0283C88.124 88.292 87.8281 88.6406 87.623 89.0742C87.418 89.5078 87.3154 89.9824 87.3154 90.498V91.4736C87.3154 92.1475 87.4326 92.7188 87.667 93.1875C87.9014 93.6562 88.2266 94.0137 88.6426 94.2598C89.0645 94.5059 89.5537 94.6289 90.1104 94.6289C90.4736 94.6289 90.8018 94.5762 91.0947 94.4707C91.3936 94.3652 91.6514 94.207 91.8682 93.9961C92.085 93.7852 92.249 93.5244 92.3604 93.2139L94.1709 93.5566C94.0244 94.084 93.7666 94.5469 93.3975 94.9453C93.0283 95.3438 92.5625 95.6543 92 95.877C91.4434 96.0938 90.8076 96.2021 90.0928 96.2021ZM96.1387 96V86.1738H97.9756V87.7471H98.0811C98.2627 87.2197 98.5791 86.8037 99.0303 86.499C99.4873 86.1885 100.003 86.0332 100.577 86.0332C100.694 86.0332 100.832 86.0391 100.99 86.0508C101.154 86.0566 101.286 86.0654 101.386 86.0771V87.9053C101.31 87.8818 101.172 87.8584 100.973 87.835C100.779 87.8115 100.583 87.7998 100.384 87.7998C99.9326 87.7998 99.5283 87.8965 99.1709 88.0898C98.8193 88.2773 98.541 88.5381 98.3359 88.8721C98.1367 89.2002 98.0371 89.5811 98.0371 90.0146V96H96.1387ZM106.685 96.2021C105.724 96.2021 104.892 95.9941 104.188 95.5781C103.485 95.1621 102.943 94.5762 102.562 93.8203C102.188 93.0586 102 92.1709 102 91.1572C102 90.1494 102.185 89.2617 102.554 88.4941C102.929 87.7266 103.453 87.1289 104.127 86.7012C104.807 86.2676 105.604 86.0508 106.518 86.0508C107.074 86.0508 107.613 86.1416 108.135 86.3232C108.656 86.5049 109.125 86.792 109.541 87.1846C109.957 87.5771 110.285 88.0869 110.525 88.7139C110.771 89.3408 110.895 90.0967 110.895 90.9814V91.667H103.081V90.2344H109.91L109.022 90.709C109.022 90.1055 108.929 89.5723 108.741 89.1094C108.554 88.6465 108.272 88.2861 107.897 88.0283C107.528 87.7646 107.068 87.6328 106.518 87.6328C105.967 87.6328 105.495 87.7646 105.103 88.0283C104.716 88.292 104.42 88.6406 104.215 89.0742C104.01 89.5078 103.907 89.9824 103.907 90.498V91.4736C103.907 92.1475 104.024 92.7188 104.259 93.1875C104.493 93.6562 104.818 94.0137 105.234 94.2598C105.656 94.5059 106.146 94.6289 106.702 94.6289C107.065 94.6289 107.394 94.5762 107.687 94.4707C107.985 94.3652 108.243 94.207 108.46 93.9961C108.677 93.7852 108.841 93.5244 108.952 93.2139L110.763 93.5566C110.616 94.084 110.358 94.5469 109.989 94.9453C109.62 95.3438 109.154 95.6543 108.592 95.877C108.035 96.0938 107.399 96.2021 106.685 96.2021ZM121.809 86.1738V87.7119H116.447V86.1738H121.809ZM117.88 83.8359H119.787V93.1172C119.787 93.5684 119.881 93.8994 120.068 94.1104C120.256 94.3154 120.558 94.418 120.974 94.418C121.073 94.418 121.179 94.4121 121.29 94.4004C121.407 94.3887 121.524 94.3711 121.642 94.3477L122.002 95.9297C121.809 95.9941 121.598 96.0439 121.369 96.0791C121.141 96.1143 120.912 96.1318 120.684 96.1318C119.834 96.1318 119.154 95.8945 118.645 95.4199C118.135 94.9395 117.88 94.3008 117.88 93.5039V83.8359ZM127.696 96.2021C126.776 96.2021 125.971 95.9912 125.279 95.5693C124.594 95.1475 124.061 94.5557 123.68 93.7939C123.305 93.0322 123.117 92.1475 123.117 91.1396C123.117 90.1201 123.305 89.2295 123.68 88.4678C124.061 87.7002 124.594 87.1055 125.279 86.6836C125.971 86.2617 126.776 86.0508 127.696 86.0508C128.622 86.0508 129.428 86.2617 130.113 86.6836C130.799 87.1055 131.332 87.7002 131.713 88.4678C132.094 89.2295 132.284 90.1201 132.284 91.1396C132.284 92.1475 132.094 93.0322 131.713 93.7939C131.332 94.5557 130.799 95.1475 130.113 95.5693C129.428 95.9912 128.622 96.2021 127.696 96.2021ZM127.696 94.5938C128.3 94.5938 128.798 94.4355 129.19 94.1191C129.583 93.8027 129.873 93.3838 130.061 92.8623C130.254 92.335 130.351 91.7607 130.351 91.1396C130.351 90.5068 130.254 89.9268 130.061 89.3994C129.873 88.8721 129.583 88.4502 129.19 88.1338C128.798 87.8174 128.3 87.6592 127.696 87.6592C127.099 87.6592 126.604 87.8174 126.211 88.1338C125.824 88.4502 125.534 88.8721 125.341 89.3994C125.147 89.9268 125.051 90.5068 125.051 91.1396C125.051 91.7607 125.147 92.335 125.341 92.8623C125.534 93.3838 125.824 93.8027 126.211 94.1191C126.604 94.4355 127.099 94.5938 127.696 94.5938ZM141.52 96.2109C140.898 96.2109 140.336 96.0967 139.832 95.8682C139.328 95.6338 138.93 95.2939 138.637 94.8486C138.344 94.4033 138.197 93.8613 138.197 93.2227C138.197 92.666 138.303 92.2119 138.514 91.8604C138.73 91.5029 139.021 91.2188 139.384 91.0078C139.747 90.7969 140.151 90.6387 140.597 90.5332C141.042 90.4277 141.499 90.3457 141.968 90.2871C142.56 90.2227 143.037 90.167 143.4 90.1201C143.764 90.0732 144.027 90 144.191 89.9004C144.361 89.7949 144.446 89.6279 144.446 89.3994V89.3555C144.446 88.7988 144.288 88.3682 143.972 88.0635C143.661 87.7588 143.198 87.6064 142.583 87.6064C141.944 87.6064 141.438 87.7471 141.062 88.0283C140.693 88.3037 140.438 88.6172 140.298 88.9688L138.496 88.5557C138.713 87.958 139.026 87.4775 139.437 87.1143C139.853 86.7451 140.327 86.4756 140.86 86.3057C141.399 86.1357 141.962 86.0508 142.548 86.0508C142.94 86.0508 143.356 86.0977 143.796 86.1914C144.235 86.2793 144.648 86.4463 145.035 86.6924C145.428 86.9326 145.747 87.2783 145.993 87.7295C146.239 88.1807 146.362 88.7637 146.362 89.4785V96H144.49V94.6553H144.42C144.303 94.8955 144.118 95.1357 143.866 95.376C143.62 95.6162 143.304 95.8154 142.917 95.9736C142.53 96.1318 142.064 96.2109 141.52 96.2109ZM141.933 94.6816C142.466 94.6816 142.92 94.5791 143.295 94.374C143.67 94.1631 143.957 93.8877 144.156 93.5479C144.355 93.208 144.455 92.8477 144.455 92.4668V91.1924C144.385 91.2568 144.253 91.3184 144.06 91.377C143.866 91.4355 143.646 91.4854 143.4 91.5264C143.154 91.5674 142.914 91.6055 142.68 91.6406C142.445 91.6699 142.249 91.6934 142.091 91.7109C141.722 91.7637 141.385 91.8457 141.08 91.957C140.775 92.0625 140.529 92.2207 140.342 92.4316C140.16 92.6367 140.069 92.9092 140.069 93.249C140.069 93.7236 140.245 94.0811 140.597 94.3213C140.948 94.5615 141.394 94.6816 141.933 94.6816ZM152.355 96.1934C151.559 96.1934 150.85 95.9912 150.229 95.5869C149.607 95.1768 149.121 94.5938 148.77 93.8379C148.418 93.0762 148.242 92.168 148.242 91.1133C148.242 90.0469 148.421 89.1357 148.778 88.3799C149.136 87.624 149.625 87.0469 150.246 86.6484C150.867 86.25 151.57 86.0508 152.355 86.0508C152.971 86.0508 153.463 86.1533 153.832 86.3584C154.207 86.5576 154.497 86.792 154.702 87.0615C154.913 87.3311 155.074 87.5684 155.186 87.7734H155.3V82.9043H157.198V96H155.344V94.4707H155.186C155.074 94.6758 154.91 94.9131 154.693 95.1826C154.477 95.4521 154.181 95.6895 153.806 95.8945C153.437 96.0938 152.953 96.1934 152.355 96.1934ZM152.769 94.5674C153.319 94.5674 153.785 94.4209 154.166 94.1279C154.547 93.835 154.834 93.4277 155.027 92.9062C155.227 92.3848 155.326 91.7812 155.326 91.0957C155.326 90.4102 155.229 89.8125 155.036 89.3027C154.843 88.7871 154.556 88.3887 154.175 88.1074C153.794 87.8203 153.325 87.6768 152.769 87.6768C152.194 87.6768 151.717 87.8262 151.336 88.125C150.955 88.4238 150.668 88.8311 150.475 89.3467C150.281 89.8623 150.185 90.4453 150.185 91.0957C150.185 91.752 150.281 92.3438 150.475 92.8711C150.668 93.3926 150.955 93.8057 151.336 94.1104C151.723 94.415 152.2 94.5674 152.769 94.5674ZM163.191 96.1934C162.395 96.1934 161.686 95.9912 161.064 95.5869C160.443 95.1768 159.957 94.5938 159.605 93.8379C159.254 93.0762 159.078 92.168 159.078 91.1133C159.078 90.0469 159.257 89.1357 159.614 88.3799C159.972 87.624 160.461 87.0469 161.082 86.6484C161.703 86.25 162.406 86.0508 163.191 86.0508C163.807 86.0508 164.299 86.1533 164.668 86.3584C165.043 86.5576 165.333 86.792 165.538 87.0615C165.749 87.3311 165.91 87.5684 166.021 87.7734H166.136V82.9043H168.034V96H166.18V94.4707H166.021C165.91 94.6758 165.746 94.9131 165.529 95.1826C165.312 95.4521 165.017 95.6895 164.642 95.8945C164.272 96.0938 163.789 96.1934 163.191 96.1934ZM163.604 94.5674C164.155 94.5674 164.621 94.4209 165.002 94.1279C165.383 93.835 165.67 93.4277 165.863 92.9062C166.062 92.3848 166.162 91.7812 166.162 91.0957C166.162 90.4102 166.065 89.8125 165.872 89.3027C165.679 88.7871 165.392 88.3887 165.011 88.1074C164.63 87.8203 164.161 87.6768 163.604 87.6768C163.03 87.6768 162.553 87.8262 162.172 88.125C161.791 88.4238 161.504 88.8311 161.311 89.3467C161.117 89.8623 161.021 90.4453 161.021 91.0957C161.021 91.752 161.117 92.3438 161.311 92.8711C161.504 93.3926 161.791 93.8057 162.172 94.1104C162.559 94.415 163.036 94.5674 163.604 94.5674ZM179.449 86.1738V87.7119H174.088V86.1738H179.449ZM175.521 83.8359H177.428V93.1172C177.428 93.5684 177.521 93.8994 177.709 94.1104C177.896 94.3154 178.198 94.418 178.614 94.418C178.714 94.418 178.819 94.4121 178.931 94.4004C179.048 94.3887 179.165 94.3711 179.282 94.3477L179.643 95.9297C179.449 95.9941 179.238 96.0439 179.01 96.0791C178.781 96.1143 178.553 96.1318 178.324 96.1318C177.475 96.1318 176.795 95.8945 176.285 95.4199C175.775 94.9395 175.521 94.3008 175.521 93.5039V83.8359ZM185.337 96.2021C184.417 96.2021 183.611 95.9912 182.92 95.5693C182.234 95.1475 181.701 94.5557 181.32 93.7939C180.945 93.0322 180.758 92.1475 180.758 91.1396C180.758 90.1201 180.945 89.2295 181.32 88.4678C181.701 87.7002 182.234 87.1055 182.92 86.6836C183.611 86.2617 184.417 86.0508 185.337 86.0508C186.263 86.0508 187.068 86.2617 187.754 86.6836C188.439 87.1055 188.973 87.7002 189.354 88.4678C189.734 89.2295 189.925 90.1201 189.925 91.1396C189.925 92.1475 189.734 93.0322 189.354 93.7939C188.973 94.5557 188.439 95.1475 187.754 95.5693C187.068 95.9912 186.263 96.2021 185.337 96.2021ZM185.337 94.5938C185.94 94.5938 186.438 94.4355 186.831 94.1191C187.224 93.8027 187.514 93.3838 187.701 92.8623C187.895 92.335 187.991 91.7607 187.991 91.1396C187.991 90.5068 187.895 89.9268 187.701 89.3994C187.514 88.8721 187.224 88.4502 186.831 88.1338C186.438 87.8174 185.94 87.6592 185.337 87.6592C184.739 87.6592 184.244 87.8174 183.852 88.1338C183.465 88.4502 183.175 88.8721 182.981 89.3994C182.788 89.9268 182.691 90.5068 182.691 91.1396C182.691 91.7607 182.788 92.335 182.981 92.8623C183.175 93.3838 183.465 93.8027 183.852 94.1191C184.244 94.4355 184.739 94.5938 185.337 94.5938ZM200.435 96.2021C199.491 96.2021 198.677 95.9854 197.991 95.5518C197.306 95.1182 196.778 94.5205 196.409 93.7588C196.04 92.9971 195.855 92.124 195.855 91.1396C195.855 90.1377 196.043 89.2559 196.418 88.4941C196.799 87.7266 197.329 87.1289 198.009 86.7012C198.694 86.2676 199.497 86.0508 200.417 86.0508C201.167 86.0508 201.832 86.1885 202.412 86.4639C202.998 86.7334 203.47 87.1172 203.827 87.6152C204.19 88.1133 204.404 88.6934 204.469 89.3555H202.605C202.541 89.0449 202.415 88.7607 202.228 88.5029C202.046 88.2451 201.806 88.04 201.507 87.8877C201.208 87.7354 200.854 87.6592 200.443 87.6592C199.91 87.6592 199.444 87.7998 199.046 88.0811C198.653 88.3564 198.346 88.752 198.123 89.2676C197.9 89.7832 197.789 90.3926 197.789 91.0957C197.789 91.8047 197.897 92.4229 198.114 92.9502C198.331 93.4775 198.639 93.8848 199.037 94.1719C199.441 94.4531 199.91 94.5938 200.443 94.5938C200.994 94.5938 201.463 94.4414 201.85 94.1367C202.242 93.832 202.494 93.416 202.605 92.8887H204.469C204.404 93.5273 204.199 94.0957 203.854 94.5938C203.508 95.0918 203.045 95.4844 202.465 95.7715C201.885 96.0586 201.208 96.2021 200.435 96.2021ZM208.221 90.1729V96H206.322V82.9043H208.194V87.791H208.326C208.555 87.2578 208.903 86.8359 209.372 86.5254C209.847 86.209 210.465 86.0508 211.227 86.0508C211.9 86.0508 212.489 86.1885 212.993 86.4639C213.497 86.7393 213.89 87.1523 214.171 87.7031C214.458 88.2539 214.602 88.9395 214.602 89.7598V96H212.686V89.9883C212.686 89.2617 212.498 88.6992 212.123 88.3008C211.754 87.9023 211.238 87.7031 210.576 87.7031C210.119 87.7031 209.715 87.8027 209.363 88.002C209.012 88.1953 208.733 88.4736 208.528 88.8369C208.323 89.2002 208.221 89.6455 208.221 90.1729ZM219.777 96.2109C219.156 96.2109 218.594 96.0967 218.09 95.8682C217.586 95.6338 217.188 95.2939 216.895 94.8486C216.602 94.4033 216.455 93.8613 216.455 93.2227C216.455 92.666 216.561 92.2119 216.771 91.8604C216.988 91.5029 217.278 91.2188 217.642 91.0078C218.005 90.7969 218.409 90.6387 218.854 90.5332C219.3 90.4277 219.757 90.3457 220.226 90.2871C220.817 90.2227 221.295 90.167 221.658 90.1201C222.021 90.0732 222.285 90 222.449 89.9004C222.619 89.7949 222.704 89.6279 222.704 89.3994V89.3555C222.704 88.7988 222.546 88.3682 222.229 88.0635C221.919 87.7588 221.456 87.6064 220.841 87.6064C220.202 87.6064 219.695 87.7471 219.32 88.0283C218.951 88.3037 218.696 88.6172 218.556 88.9688L216.754 88.5557C216.971 87.958 217.284 87.4775 217.694 87.1143C218.11 86.7451 218.585 86.4756 219.118 86.3057C219.657 86.1357 220.22 86.0508 220.806 86.0508C221.198 86.0508 221.614 86.0977 222.054 86.1914C222.493 86.2793 222.906 86.4463 223.293 86.6924C223.686 86.9326 224.005 87.2783 224.251 87.7295C224.497 88.1807 224.62 88.7637 224.62 89.4785V96H222.748V94.6553H222.678C222.561 94.8955 222.376 95.1357 222.124 95.376C221.878 95.6162 221.562 95.8154 221.175 95.9736C220.788 96.1318 220.322 96.2109 219.777 96.2109ZM220.19 94.6816C220.724 94.6816 221.178 94.5791 221.553 94.374C221.928 94.1631 222.215 93.8877 222.414 93.5479C222.613 93.208 222.713 92.8477 222.713 92.4668V91.1924C222.643 91.2568 222.511 91.3184 222.317 91.377C222.124 91.4355 221.904 91.4854 221.658 91.5264C221.412 91.5674 221.172 91.6055 220.938 91.6406C220.703 91.6699 220.507 91.6934 220.349 91.7109C219.979 91.7637 219.643 91.8457 219.338 91.957C219.033 92.0625 218.787 92.2207 218.6 92.4316C218.418 92.6367 218.327 92.9092 218.327 93.249C218.327 93.7236 218.503 94.0811 218.854 94.3213C219.206 94.5615 219.651 94.6816 220.19 94.6816ZM231.527 86.1738V87.7119H226.166V86.1738H231.527ZM227.599 83.8359H229.506V93.1172C229.506 93.5684 229.6 93.8994 229.787 94.1104C229.975 94.3154 230.276 94.418 230.692 94.418C230.792 94.418 230.897 94.4121 231.009 94.4004C231.126 94.3887 231.243 94.3711 231.36 94.3477L231.721 95.9297C231.527 95.9941 231.316 96.0439 231.088 96.0791C230.859 96.1143 230.631 96.1318 230.402 96.1318C229.553 96.1318 228.873 95.8945 228.363 95.4199C227.854 94.9395 227.599 94.3008 227.599 93.5039V83.8359Z" fill="white"/>
</svg>
