<svg width="40" height="40" viewBox="0 0 40 40" fill="none" xmlns="http://www.w3.org/2000/svg">
<path d="M35 23.75C35 24.0815 34.8683 24.3995 34.6339 24.6339C34.3995 24.8683 34.0815 25 33.75 25H30V27.5H32.5C32.8315 27.5 33.1495 27.6317 33.3839 27.8661C33.6183 28.1005 33.75 28.4185 33.75 28.75C33.75 29.0815 33.6183 29.3995 33.3839 29.6339C33.1495 29.8683 32.8315 30 32.5 30H30V32.5C30 32.8315 29.8683 33.1495 29.6339 33.3839C29.3995 33.6183 29.0815 33.75 28.75 33.75C28.4185 33.75 28.1005 33.6183 27.8661 33.3839C27.6317 33.1495 27.5 32.8315 27.5 32.5V23.75C27.5 23.4185 27.6317 23.1005 27.8661 22.8661C28.1005 22.6317 28.4185 22.5 28.75 22.5H33.75C34.0815 22.5 34.3995 22.6317 34.6339 22.8661C34.8683 23.1005 35 23.4185 35 23.75ZM14.375 26.875C14.375 28.0353 13.9141 29.1481 13.0936 29.9686C12.2731 30.7891 11.1603 31.25 10 31.25H8.75V32.5C8.75 32.8315 8.6183 33.1495 8.38388 33.3839C8.14946 33.6183 7.83152 33.75 7.5 33.75C7.16848 33.75 6.85054 33.6183 6.61612 33.3839C6.3817 33.1495 6.25 32.8315 6.25 32.5V23.75C6.25 23.4185 6.3817 23.1005 6.61612 22.8661C6.85054 22.6317 7.16848 22.5 7.5 22.5H10C11.1603 22.5 12.2731 22.9609 13.0936 23.7814C13.9141 24.6019 14.375 25.7147 14.375 26.875ZM11.875 26.875C11.875 26.3777 11.6775 25.9008 11.3258 25.5492C10.9742 25.1975 10.4973 25 10 25H8.75V28.75H10C10.4973 28.75 10.9742 28.5525 11.3258 28.2008C11.6775 27.8492 11.875 27.3723 11.875 26.875ZM25.625 28.125C25.625 29.6168 25.0324 31.0476 23.9775 32.1025C22.9226 33.1574 21.4918 33.75 20 33.75H17.5C17.1685 33.75 16.8505 33.6183 16.6161 33.3839C16.3817 33.1495 16.25 32.8315 16.25 32.5V23.75C16.25 23.4185 16.3817 23.1005 16.6161 22.8661C16.8505 22.6317 17.1685 22.5 17.5 22.5H20C21.4918 22.5 22.9226 23.0926 23.9775 24.1475C25.0324 25.2024 25.625 26.6332 25.625 28.125ZM23.125 28.125C23.125 27.2962 22.7958 26.5013 22.2097 25.9153C21.6237 25.3292 20.8288 25 20 25H18.75V31.25H20C20.8288 31.25 21.6237 30.9208 22.2097 30.3347C22.7958 29.7487 23.125 28.9538 23.125 28.125ZM6.25 17.5V6.25C6.25 5.58696 6.51339 4.95107 6.98223 4.48223C7.45107 4.01339 8.08696 3.75 8.75 3.75H23.75C23.9142 3.74987 24.0768 3.78209 24.2286 3.84483C24.3803 3.90756 24.5182 3.99958 24.6344 4.11563L33.3844 12.8656C33.5004 12.9818 33.5924 13.1197 33.6552 13.2714C33.7179 13.4232 33.7501 13.5858 33.75 13.75V17.5C33.75 17.8315 33.6183 18.1495 33.3839 18.3839C33.1495 18.6183 32.8315 18.75 32.5 18.75C32.1685 18.75 31.8505 18.6183 31.6161 18.3839C31.3817 18.1495 31.25 17.8315 31.25 17.5V15H23.75C23.4185 15 23.1005 14.8683 22.8661 14.6339C22.6317 14.3995 22.5 14.0815 22.5 13.75V6.25H8.75V17.5C8.75 17.8315 8.6183 18.1495 8.38388 18.3839C8.14946 18.6183 7.83152 18.75 7.5 18.75C7.16848 18.75 6.85054 18.6183 6.61612 18.3839C6.3817 18.1495 6.25 17.8315 6.25 17.5ZM25 12.5H29.4828L25 8.01719V12.5Z" fill="#4E5055"/>
</svg>
