<svg width="20" height="20" viewBox="0 0 20 20" fill="none" xmlns="http://www.w3.org/2000/svg">
<path d="M5.62553 10C5.63001 11.6394 5.25118 13.2572 4.51928 14.7242C4.48435 14.8003 4.43449 14.8685 4.37267 14.925C4.31085 14.9814 4.23833 15.0248 4.15941 15.0527C4.08049 15.0806 3.99677 15.0923 3.91323 15.0872C3.82969 15.0821 3.74802 15.0602 3.67308 15.023C3.59813 14.9857 3.53143 14.9338 3.47694 14.8703C3.42245 14.8067 3.38127 14.7329 3.35585 14.6532C3.33043 14.5734 3.32129 14.4894 3.32897 14.406C3.33664 14.3227 3.36098 14.2417 3.40053 14.168C4.04585 12.8736 4.37973 11.4463 4.37553 10C4.37407 9.1566 4.56299 8.32374 4.92822 7.56351C5.29345 6.80329 5.82557 6.13531 6.48491 5.60938C6.61431 5.50577 6.77956 5.45782 6.94431 5.47606C7.10906 5.4943 7.25982 5.57724 7.36342 5.70664C7.46702 5.83604 7.51498 6.00129 7.49674 6.16604C7.4785 6.3308 7.39556 6.48156 7.26616 6.58516C6.75322 6.99409 6.33927 7.5136 6.05519 8.10489C5.77111 8.69619 5.62424 9.344 5.62553 10ZM10.0005 9.375C9.83477 9.375 9.6758 9.44085 9.55859 9.55806C9.44138 9.67527 9.37553 9.83424 9.37553 10C9.37541 12.435 8.75714 14.8301 7.57866 16.9609C7.49827 17.106 7.47878 17.277 7.52449 17.4364C7.57021 17.5958 7.67737 17.7305 7.82241 17.8109C7.96745 17.8913 8.13849 17.9108 8.29789 17.8651C8.4573 17.8194 8.59202 17.7122 8.67241 17.5672C9.95333 15.2507 10.6254 12.647 10.6255 10C10.6255 9.83424 10.5597 9.67527 10.4425 9.55806C10.3253 9.44085 10.1663 9.375 10.0005 9.375ZM10.0005 6.875C9.17173 6.875 8.37688 7.20424 7.79082 7.79029C7.20477 8.37634 6.87553 9.1712 6.87553 10C6.87553 10.1658 6.94138 10.3247 7.05859 10.4419C7.1758 10.5592 7.33477 10.625 7.50053 10.625C7.66629 10.625 7.82527 10.5592 7.94248 10.4419C8.05969 10.3247 8.12553 10.1658 8.12553 10C8.12553 9.50272 8.32308 9.02581 8.67471 8.67417C9.02634 8.32254 9.50325 8.125 10.0005 8.125C10.4978 8.125 10.9747 8.32254 11.3264 8.67417C11.678 9.02581 11.8755 9.50272 11.8755 10C11.882 12.4851 11.3346 14.9405 10.2732 17.1875C10.2382 17.2619 10.2181 17.3425 10.2142 17.4247C10.2104 17.5069 10.2227 17.589 10.2505 17.6664C10.2784 17.7438 10.3212 17.815 10.3766 17.8759C10.432 17.9367 10.4988 17.9861 10.5732 18.0211C10.6476 18.0561 10.7282 18.0762 10.8104 18.08C10.8926 18.0839 10.9747 18.0716 11.0521 18.0437C11.1295 18.0159 11.2007 17.973 11.2615 17.9177C11.3224 17.8623 11.3717 17.7955 11.4068 17.7211C12.5461 15.307 13.1333 12.6694 13.1255 10C13.1255 9.1712 12.7963 8.37634 12.2102 7.79029C11.6242 7.20424 10.8293 6.875 10.0005 6.875ZM10.0005 1.875C7.84635 1.87727 5.78104 2.73403 4.2578 4.25727C2.73456 5.78051 1.87781 7.84581 1.87553 10C1.87669 10.7805 1.74459 11.5554 1.48491 12.2914C1.42969 12.4477 1.43884 12.6196 1.51033 12.7692C1.58183 12.9188 1.70983 13.0338 1.86616 13.0891C2.02249 13.1443 2.19436 13.1351 2.34395 13.0636C2.49354 12.9921 2.6086 12.8641 2.66382 12.7078C2.97044 11.838 3.12658 10.9223 3.12553 10C3.12553 8.17664 3.84986 6.42795 5.13917 5.13864C6.42849 3.84933 8.17717 3.125 10.0005 3.125C11.8239 3.125 13.5726 3.84933 14.8619 5.13864C16.1512 6.42795 16.8755 8.17664 16.8755 10C16.8758 11.428 16.7374 12.8527 16.4623 14.2539C16.4463 14.3344 16.4464 14.4173 16.4626 14.4978C16.4787 14.5783 16.5105 14.6549 16.5562 14.7231C16.6019 14.7913 16.6606 14.8498 16.7289 14.8953C16.7973 14.9408 16.8739 14.9724 16.9544 14.9883C16.9943 14.996 17.0349 14.9999 17.0755 15C17.2202 14.9998 17.3603 14.9495 17.472 14.8577C17.5836 14.7658 17.66 14.638 17.688 14.4961C17.9791 13.0151 18.1256 11.5093 18.1255 10C18.1231 7.84588 17.2662 5.78069 15.743 4.2575C14.2198 2.7343 12.1547 1.87748 10.0005 1.875ZM7.37553 11.8883C7.21344 11.856 7.04517 11.8893 6.90754 11.9808C6.76992 12.0723 6.67414 12.2146 6.64116 12.3766C6.38756 13.6247 5.93351 14.8236 5.29663 15.9266C5.21375 16.0702 5.1913 16.2408 5.23423 16.4009C5.27716 16.5611 5.38194 16.6976 5.52553 16.7805C5.66912 16.8633 5.83976 16.8858 5.9999 16.8429C6.16003 16.7999 6.29656 16.6952 6.37944 16.5516C7.08326 15.3318 7.58456 14.006 7.86382 12.6258C7.88024 12.5453 7.88063 12.4624 7.86497 12.3817C7.84932 12.3011 7.81791 12.2243 7.77256 12.1558C7.72721 12.0873 7.66881 12.0284 7.60068 11.9825C7.53255 11.9366 7.45605 11.9046 7.37553 11.8883ZM10.0005 4.375C9.76548 4.37505 9.53066 4.38966 9.29741 4.41875C9.13602 4.44298 8.9905 4.52937 8.89197 4.65947C8.79343 4.78957 8.74969 4.95305 8.7701 5.11497C8.79051 5.27689 8.87344 5.42441 9.00117 5.52599C9.1289 5.62757 9.2913 5.67517 9.45366 5.65859C10.0694 5.58203 10.6943 5.63712 11.2872 5.82021C11.88 6.00331 12.4272 6.31023 12.8925 6.72066C13.3578 7.13109 13.7306 7.63568 13.9863 8.20101C14.242 8.76635 14.3746 9.37954 14.3755 10C14.3754 10.8096 14.3253 11.6184 14.2255 12.4219C14.2146 12.5036 14.2199 12.5867 14.2412 12.6663C14.2624 12.7459 14.2993 12.8206 14.3495 12.886C14.3998 12.9513 14.4624 13.0061 14.534 13.0471C14.6055 13.0881 14.6844 13.1146 14.7662 13.125C14.7921 13.1281 14.8182 13.1297 14.8443 13.1297C14.9963 13.1294 15.143 13.0737 15.2568 12.973C15.3707 12.8723 15.444 12.7336 15.463 12.5828C15.5684 11.7275 15.6206 10.8665 15.6193 10.0047C15.6189 8.51362 15.0271 7.08358 13.9738 6.02821C12.9205 4.97285 11.4916 4.37831 10.0005 4.375ZM14.5263 14.3945C14.4468 14.374 14.364 14.3693 14.2827 14.3807C14.2014 14.3922 14.1231 14.4196 14.0524 14.4613C13.9816 14.503 13.9198 14.5582 13.8704 14.6239C13.821 14.6895 13.7851 14.7642 13.7646 14.8438C13.6505 15.2883 13.5185 15.7344 13.374 16.1719C13.3211 16.3286 13.3325 16.5 13.4057 16.6483C13.4789 16.7967 13.608 16.9099 13.7646 16.9633C13.8287 16.9851 13.8961 16.9962 13.9638 16.9961C14.0948 16.996 14.2224 16.9548 14.3286 16.8782C14.4349 16.8017 14.5144 16.6937 14.556 16.5695C14.7123 16.107 14.8521 15.632 14.974 15.1594C14.9949 15.0799 15 14.997 14.9888 14.9155C14.9777 14.8341 14.9506 14.7556 14.9091 14.6846C14.8676 14.6136 14.8125 14.5515 14.7469 14.5019C14.6814 14.4523 14.6067 14.416 14.5271 14.3953L14.5263 14.3945Z" fill="#151515"/>
</svg>
