<svg width="32" height="32" viewBox="0 0 32 32" fill="none" xmlns="http://www.w3.org/2000/svg">
<path d="M21.7237 6.43531C20.1693 4.79718 18.42 3.35561 16.515 2.14281C16.3595 2.04937 16.1814 2 16 2C15.8186 2 15.6405 2.04937 15.485 2.14281C13.58 3.35561 11.8307 4.79718 10.2762 6.43531C6.82375 10.0603 5 14.0591 5 18.0003C5 20.9177 6.15893 23.7156 8.22183 25.7785C10.2847 27.8414 13.0826 29.0003 16 29.0003C18.9174 29.0003 21.7153 27.8414 23.7782 25.7785C25.8411 23.7156 27 20.9177 27 18.0003C27 14.0591 25.1762 10.0603 21.7237 6.43531ZM12 23.0003C12 19.5416 14.8162 17.0903 16 16.2128C17.185 17.0878 20 19.5416 20 23.0003C20 24.0612 19.5786 25.0786 18.8284 25.8287C18.0783 26.5789 17.0609 27.0003 16 27.0003C14.9391 27.0003 13.9217 26.5789 13.1716 25.8287C12.4214 25.0786 12 24.0612 12 23.0003ZM21.6588 24.9916C21.8847 24.352 22.0001 23.6786 22 23.0003C22 17.5003 16.7387 14.2766 16.515 14.1428C16.3595 14.0494 16.1814 14 16 14C15.8186 14 15.6405 14.0494 15.485 14.1428C15.2612 14.2766 10 17.5003 10 23.0003C9.9999 23.6786 10.1153 24.352 10.3413 24.9916C9.29797 24.1494 8.4564 23.0844 7.87824 21.8746C7.30009 20.6649 7.00001 19.3411 7 18.0003C7 13.6991 9.55 10.1066 11.69 7.85156C12.9948 6.48465 14.4394 5.25836 16 4.19281C17.5609 5.25804 19.0055 6.48436 20.31 7.85156C24.1862 11.9378 25 15.6253 25 18.0003C25 19.3411 24.6999 20.6649 24.1218 21.8746C23.5436 23.0844 22.702 24.1494 21.6588 24.9916Z" fill="white"/>
</svg>
