<svg width="24" height="24" viewBox="0 0 24 24" fill="none" xmlns="http://www.w3.org/2000/svg">
<path d="M16.2928 4.82648C15.1269 3.59789 13.815 2.51671 12.3862 1.60711C12.2696 1.53702 12.1361 1.5 12 1.5C11.8639 1.5 11.7304 1.53702 11.6137 1.60711C10.185 2.51671 8.87305 3.59789 7.70719 4.82648C5.11781 7.54523 3.75 10.5443 3.75 13.5002C3.75 15.6883 4.61919 17.7867 6.16637 19.3339C7.71354 20.881 9.81196 21.7502 12 21.7502C14.188 21.7502 16.2865 20.881 17.8336 19.3339C19.3808 17.7867 20.25 15.6883 20.25 13.5002C20.25 10.5443 18.8822 7.54523 16.2928 4.82648ZM9 17.2502C9 14.6562 11.1122 12.8177 12 12.1596C12.8887 12.8159 15 14.6562 15 17.2502C15 18.0459 14.6839 18.8089 14.1213 19.3716C13.5587 19.9342 12.7956 20.2502 12 20.2502C11.2044 20.2502 10.4413 19.9342 9.87868 19.3716C9.31607 18.8089 9 18.0459 9 17.2502ZM16.2441 18.7437C16.4135 18.264 16.5001 17.759 16.5 17.2502C16.5 13.1252 12.5541 10.7074 12.3862 10.6071C12.2696 10.537 12.1361 10.5 12 10.5C11.8639 10.5 11.7304 10.537 11.6137 10.6071C11.4459 10.7074 7.5 13.1252 7.5 17.2502C7.49992 17.759 7.58647 18.264 7.75594 18.7437C6.97348 18.112 6.3423 17.3133 5.90868 16.406C5.47507 15.4987 5.25001 14.5058 5.25 13.5002C5.25 10.2743 7.1625 7.57992 8.7675 5.88867C9.7461 4.86349 10.8295 3.94377 12 3.14461C13.1707 3.94353 14.2541 4.86327 15.2325 5.88867C18.1397 8.95336 18.75 11.719 18.75 13.5002C18.75 14.5058 18.5249 15.4987 18.0913 16.406C17.6577 17.3133 17.0265 18.112 16.2441 18.7437Z" fill="#32C382"/>
</svg>
