<svg width="20" height="20" viewBox="0 0 20 20" fill="none" xmlns="http://www.w3.org/2000/svg">
<path d="M16.875 5.62414H14.1344C14.1648 5.59836 14.1961 5.57336 14.2258 5.54601C14.4631 5.33521 14.6543 5.07772 14.7875 4.78965C14.9207 4.50157 14.9931 4.18911 15 3.87179C15.0103 3.52466 14.9495 3.1791 14.8213 2.85631C14.6932 2.53353 14.5005 2.24034 14.255 1.99474C14.0094 1.74913 13.7163 1.55631 13.3936 1.42809C13.0708 1.29988 12.7253 1.23898 12.3781 1.24914C12.0607 1.25597 11.7481 1.32827 11.4598 1.46149C11.1716 1.59471 10.914 1.78599 10.7031 2.02336C10.4113 2.36156 10.1741 2.74323 10 3.15461C9.82592 2.74323 9.58869 2.36156 9.29688 2.02336C9.08599 1.78599 8.82837 1.59471 8.54015 1.46149C8.25193 1.32827 7.93932 1.25597 7.62187 1.24914C7.27474 1.23898 6.9292 1.29988 6.60645 1.42809C6.2837 1.55631 5.99057 1.74913 5.74504 1.99474C5.49951 2.24034 5.30677 2.53353 5.17865 2.85631C5.05053 3.1791 4.98974 3.52466 5 3.87179C5.00694 4.18911 5.07929 4.50157 5.2125 4.78965C5.34572 5.07772 5.53695 5.33521 5.77422 5.54601C5.80391 5.57179 5.83516 5.59679 5.86563 5.62414H3.125C2.79348 5.62414 2.47554 5.75583 2.24112 5.99025C2.0067 6.22467 1.875 6.54262 1.875 6.87414V9.37414C1.875 9.70566 2.0067 10.0236 2.24112 10.258C2.47554 10.4924 2.79348 10.6241 3.125 10.6241V15.6241C3.125 15.9557 3.2567 16.2736 3.49112 16.508C3.72554 16.7424 4.04348 16.8741 4.375 16.8741H15.625C15.9565 16.8741 16.2745 16.7424 16.5089 16.508C16.7433 16.2736 16.875 15.9557 16.875 15.6241V10.6241C17.2065 10.6241 17.5245 10.4924 17.7589 10.258C17.9933 10.0236 18.125 9.70566 18.125 9.37414V6.87414C18.125 6.54262 17.9933 6.22467 17.7589 5.99025C17.5245 5.75583 17.2065 5.62414 16.875 5.62414ZM11.6406 2.85148C11.7396 2.7422 11.8601 2.65456 11.9945 2.59406C12.129 2.53356 12.2745 2.50151 12.4219 2.49992H12.4602C12.6329 2.501 12.8038 2.53656 12.9626 2.60451C13.1215 2.67246 13.2652 2.77143 13.3854 2.89563C13.5055 3.01984 13.5996 3.16677 13.6622 3.32781C13.7248 3.48886 13.7547 3.66078 13.75 3.83351C13.7484 3.98093 13.7164 4.12643 13.6559 4.26088C13.5954 4.39532 13.5077 4.5158 13.3984 4.61476C12.657 5.27101 11.4266 5.50226 10.6641 5.58351C10.7578 4.75617 11.0156 3.55382 11.6406 2.85148ZM6.63359 2.87961C6.87574 2.63749 7.20367 2.50076 7.54609 2.49914H7.58438C7.7318 2.50073 7.87729 2.53278 8.01174 2.59328C8.14618 2.65378 8.26667 2.74142 8.36563 2.8507C9.02109 3.59133 9.25234 4.81945 9.33359 5.57882C8.57422 5.5007 7.34609 5.26632 6.60547 4.61086C6.49619 4.5119 6.40855 4.39141 6.34805 4.25697C6.28755 4.12253 6.2555 3.97703 6.25391 3.82961C6.24906 3.65401 6.27994 3.47926 6.34467 3.31595C6.4094 3.15265 6.50663 3.0042 6.63047 2.87961H6.63359ZM3.125 6.87414H9.375V9.37414H3.125V6.87414ZM4.375 10.6241H9.375V15.6241H4.375V10.6241ZM15.625 15.6241H10.625V10.6241H15.625V15.6241ZM16.875 9.37414H10.625V6.87414H16.875V9.37414Z" fill="#151515"/>
</svg>
