<svg width="10" height="10" viewBox="0 0 10 10" fill="none" xmlns="http://www.w3.org/2000/svg">
<path d="M2.65576 6.85985H3.19451V7.34672C3.19451 8.00223 3.52216 8.33317 4.18377 8.33317H7.34691C8.00222 8.33317 8.33303 8.00223 8.33303 7.34672V4.12642C8.33303 3.4709 8.00222 3.13996 7.34691 3.13996H6.80502V2.6531C6.80502 1.99758 6.47421 1.66664 5.8189 1.66664H2.65576C1.99415 1.66664 1.6665 1.99758 1.6665 2.6531V5.8734C1.6665 6.52891 1.99415 6.85985 2.65576 6.85985ZM2.66207 6.34753C2.34701 6.34753 2.17373 6.1757 2.17373 5.84476V2.68173C2.17373 2.35079 2.34701 2.17896 2.66207 2.17896H5.80945C6.12135 2.17896 6.29778 2.35079 6.29778 2.68173V3.13996H4.18377C3.52216 3.13996 3.19451 3.46772 3.19451 4.12642V6.34753H2.66207ZM4.19008 7.82085C3.87817 7.82085 3.70174 7.64902 3.70174 7.31808V4.15505C3.70174 3.82411 3.87817 3.65228 4.19008 3.65228H7.33746C7.64936 3.65228 7.82579 3.82411 7.82579 4.15505V7.31808C7.82579 7.64902 7.64936 7.82085 7.33746 7.82085H4.19008Z" fill="#757575"/>
</svg>
