<svg width="10" height="10" viewBox="0 0 10 10" fill="none" xmlns="http://www.w3.org/2000/svg">
<path d="M2.29143 5.56425C2.29143 6.76885 2.93021 7.21108 4.78135 8.26717C4.86609 8.31337 4.94757 8.33317 4.99971 8.33317C5.05186 8.33317 5.13659 8.31337 5.21807 8.26717C7.07247 7.21438 7.70799 6.76885 7.70799 5.56425V3.03955C7.70799 2.69302 7.56133 2.58411 7.28431 2.4653C6.89974 2.30359 5.65804 1.85145 5.27347 1.71614C5.18548 1.68644 5.09097 1.66664 4.99971 1.66664C4.90846 1.66664 4.81394 1.69304 4.72921 1.71614C4.34464 1.82835 3.09968 2.30689 2.71511 2.4653C2.44135 2.58081 2.29143 2.69302 2.29143 3.03955V5.56425ZM5.06815 7.72262V2.20788C5.08445 2.21118 5.104 2.21778 5.13007 2.22768C5.62219 2.4257 6.5771 2.77553 7.08225 2.95044C7.17024 2.98345 7.1898 3.02965 7.1898 3.14186V5.44214C7.1898 6.46192 6.70746 6.72924 5.20177 7.65662C5.15289 7.68962 5.10726 7.71272 5.06815 7.72262Z" fill="#666666"/>
</svg>
