<svg width="10" height="10" viewBox="0 0 10 10" fill="none" xmlns="http://www.w3.org/2000/svg">
<path d="M4.99976 8.33317C6.82326 8.33317 8.33303 6.82013 8.33303 4.99991C8.33303 3.17641 6.81999 1.66664 4.99649 1.66664C3.17627 1.66664 1.6665 3.17641 1.6665 4.99991C1.6665 6.82013 3.17954 8.33317 4.99976 8.33317ZM4.99976 7.77763C3.45731 7.77763 2.22531 6.54236 2.22531 4.99991C2.22531 3.45745 3.45404 2.22218 4.99649 2.22218C6.53895 2.22218 7.77422 3.45745 7.77748 4.99991C7.78075 6.54236 6.54222 7.77763 4.99976 7.77763ZM4.99976 3.33654C4.85924 3.33654 4.75467 3.43785 4.75467 3.58163V5.21559L4.78081 5.90512L4.45402 5.51297L4.06514 5.12082C4.01939 5.07834 3.96057 5.04892 3.89194 5.04892C3.75796 5.04892 3.65665 5.1535 3.65665 5.28421C3.65665 5.35284 3.67626 5.41166 3.71874 5.45415L4.81022 6.54236C4.87558 6.60772 4.93114 6.63386 4.99976 6.63386C5.07166 6.63386 5.13048 6.60445 5.19257 6.54236L6.28078 5.45415C6.32327 5.41166 6.34941 5.35284 6.34941 5.28421C6.34941 5.1535 6.24484 5.04892 6.11085 5.04892C6.03896 5.04892 5.98013 5.07507 5.93765 5.12082L5.55204 5.51297L5.21871 5.90838L5.24486 5.21559V3.58163C5.24486 3.43785 5.14355 3.33654 4.99976 3.33654Z" fill="#757575"/>
</svg>
