<svg width="10" height="10" viewBox="0 0 10 10" fill="none" xmlns="http://www.w3.org/2000/svg">
<path d="M4.99973 7.91651C5.17296 7.91651 5.3179 7.78142 5.3179 7.61515V5.31166H7.6017C7.77139 5.31166 7.91634 5.16964 7.91634 4.9999C7.91634 4.83017 7.77139 4.69162 7.6017 4.69162H5.3179V2.38466C5.3179 2.21839 5.17296 2.0833 4.99973 2.0833C4.8265 2.0833 4.68509 2.21839 4.68509 2.38466V4.69162H2.39776C2.22807 4.69162 2.08312 4.83017 2.08312 4.9999C2.08312 5.16964 2.22807 5.31166 2.39776 5.31166H4.68509V7.61515C4.68509 7.78142 4.8265 7.91651 4.99973 7.91651Z" fill="#757575"/>
</svg>
