<svg width="10" height="10" viewBox="0 0 10 10" fill="none" xmlns="http://www.w3.org/2000/svg">
<path d="M8.41826 2.08738C8.83847 2.13002 9.16672 2.48509 9.16675 2.91654V7.08279L9.16165 7.16856C9.12173 7.56066 8.81039 7.87213 8.41826 7.91195L8.3335 7.91603H1.6665C1.2063 7.916 0.833248 7.54299 0.833248 7.08279V2.91654C0.833285 2.45637 1.20632 2.08333 1.6665 2.0833H8.3335L8.41826 2.08738ZM1.6665 2.54179C1.45945 2.54182 1.29178 2.7095 1.29174 2.91654V7.08279C1.29174 7.28987 1.45943 7.45853 1.6665 7.45856H3.65976V2.54179H1.6665ZM4.11723 7.45856H8.3335C8.54042 7.45834 8.70826 7.28975 8.70826 7.08279V2.91654C8.70822 2.70961 8.5404 2.54201 8.3335 2.54179H4.11723V7.45856ZM2.91637 5.25699C3.04284 5.25699 3.14495 5.35929 3.1451 5.48573C3.1451 5.61229 3.04293 5.71446 2.91637 5.71446H2.08312C1.95661 5.71441 1.85439 5.61225 1.85439 5.48573C1.85453 5.35933 1.9567 5.25705 2.08312 5.25699H2.91637ZM2.91637 4.28487C3.04287 4.28487 3.145 4.38713 3.1451 4.5136C3.1451 4.64017 3.04293 4.74234 2.91637 4.74234H2.08312C1.95661 4.74228 1.85439 4.64013 1.85439 4.5136C1.85449 4.38717 1.95667 4.28492 2.08312 4.28487H2.91637ZM2.91637 3.31275C3.04289 3.31275 3.14504 3.41497 3.1451 3.54148C3.1451 3.66804 3.04293 3.77022 2.91637 3.77022H2.08312C1.95661 3.77016 1.85439 3.66801 1.85439 3.54148C1.85445 3.41501 1.95665 3.3128 2.08312 3.31275H2.91637Z" fill="#757575"/>
</svg>
