<svg width="24" height="24" viewBox="0 0 24 24" fill="none" xmlns="http://www.w3.org/2000/svg">
<path d="M18.3624 9C18.369 8.87719 18.3736 8.75344 18.3736 8.625C18.3736 6.93425 17.702 5.31274 16.5065 4.11719C15.3109 2.92165 13.6894 2.25 11.9986 2.25C10.3079 2.25 8.68639 2.92165 7.49084 4.11719C6.2953 5.31274 5.62365 6.93425 5.62365 8.625C5.62365 8.74969 5.62365 8.87344 5.6349 9C4.8656 9.39368 4.18438 9.93966 3.63262 10.6048C3.08086 11.2699 2.67009 12.0402 2.42526 12.869C2.18043 13.6977 2.10665 14.5676 2.20842 15.4258C2.31018 16.2839 2.58536 17.1125 3.01723 17.861C3.4491 18.6095 4.02865 19.2624 4.72066 19.78C5.41267 20.2976 6.20269 20.6691 7.04272 20.872C7.88275 21.0748 8.75525 21.1047 9.60721 20.9599C10.4592 20.8152 11.2728 20.4987 11.9986 20.0297C12.7245 20.4987 13.5381 20.8152 14.3901 20.9599C15.242 21.1047 16.1145 21.0748 16.9546 20.872C17.7946 20.6691 18.5846 20.2976 19.2766 19.78C19.9686 19.2624 20.5482 18.6095 20.9801 17.861C21.4119 17.1125 21.6871 16.2839 21.7889 15.4258C21.8906 14.5676 21.8169 13.6977 21.572 12.869C21.3272 12.0402 20.9164 11.2699 20.3647 10.6048C19.8129 9.93966 19.1317 9.39368 18.3624 9ZM11.9986 18.1378C11.0882 17.268 10.5505 16.079 10.4986 14.8209C11.4812 15.0597 12.5067 15.0597 13.4893 14.8209C13.4399 16.0777 12.9056 17.2665 11.9986 18.1378ZM11.9986 13.5C11.5523 13.4999 11.1082 13.4383 10.6786 13.3172C10.9138 12.4775 11.3696 11.7161 11.9986 11.1122C12.6277 11.7161 13.0835 12.4775 13.3186 13.3172C12.8891 13.4383 12.4449 13.4999 11.9986 13.5ZM9.30146 12.6834C8.32906 12.036 7.62041 11.062 7.30365 9.9375C8.45213 9.61341 9.67967 9.72285 10.7527 10.245C10.0923 10.9388 9.59637 11.7721 9.30146 12.6834ZM13.2446 10.2403C14.3182 9.71973 15.5457 9.61196 16.6936 9.9375C16.3779 11.0637 15.6691 12.0395 14.6958 12.6881C14.4022 11.7735 13.9061 10.9368 13.2446 10.2403ZM11.9986 3.75C13.2579 3.75038 14.4683 4.23747 15.3768 5.10947C16.2853 5.98146 16.8216 7.17087 16.8736 8.42906C16.0494 8.22859 15.1934 8.19531 14.3561 8.33122C13.5187 8.46712 12.7172 8.76943 11.9986 9.22031C11.2807 8.77006 10.48 8.46808 9.6435 8.33219C8.80705 8.1963 7.95186 8.22924 7.12833 8.42906C7.18031 7.17167 7.71596 5.98296 8.62347 5.11109C9.53097 4.23922 10.7402 3.75159 11.9986 3.75ZM3.74865 14.625C3.74905 13.8214 3.94808 13.0304 4.32804 12.3224C4.70799 11.6143 5.25709 11.0112 5.92646 10.5666C6.43784 12.1477 7.5434 13.4684 9.0099 14.25C9.00333 14.3728 8.99865 14.4966 8.99865 14.625C8.99796 16.2577 9.62612 17.8279 10.7527 19.0097C10.0096 19.3705 9.18694 19.5365 8.36205 19.4922C7.53716 19.4478 6.73706 19.1946 6.03687 18.7563C5.33667 18.3179 4.75935 17.7089 4.3591 16.9862C3.95884 16.2636 3.74879 15.4511 3.74865 14.625ZM15.3736 19.5C14.6359 19.5009 13.9076 19.3332 13.2446 19.0097C14.3712 17.8279 14.9993 16.2577 14.9986 14.625C14.9986 14.5003 14.994 14.3766 14.9874 14.25C16.4546 13.4675 17.5603 12.1454 18.0708 10.5628C18.9436 11.1419 19.6066 11.9866 19.9618 12.9719C20.3169 13.9573 20.3453 15.0308 20.0427 16.0335C19.7401 17.0362 19.1226 17.9148 18.2816 18.5392C17.4407 19.1635 16.421 19.5004 15.3736 19.5Z" fill="#21757E"/>
</svg>
