<svg width="32" height="32" viewBox="0 0 32 32" fill="none" xmlns="http://www.w3.org/2000/svg">
<path d="M24.4845 12C24.4932 11.8363 24.4995 11.6713 24.4995 11.5C24.4995 9.24566 23.604 7.08365 22.0099 5.48959C20.4158 3.89553 18.2538 3 15.9995 3C13.7452 3 11.5831 3.89553 9.98909 5.48959C8.39503 7.08365 7.4995 9.24566 7.4995 11.5C7.4995 11.6663 7.4995 11.8313 7.5145 12C6.48877 12.5249 5.58048 13.2529 4.8448 14.1397C4.10912 15.0265 3.56142 16.0536 3.23498 17.1586C2.90854 18.2636 2.81017 19.4235 2.94586 20.5677C3.08155 21.7119 3.44845 22.8166 4.02428 23.8146C4.60011 24.8127 5.37283 25.6832 6.29551 26.3733C7.21819 27.0635 8.27155 27.5588 9.3916 27.8293C10.5116 28.0998 11.675 28.1397 12.8109 27.9466C13.9469 27.7535 15.0317 27.3315 15.9995 26.7062C16.9673 27.3315 18.0521 27.7535 19.1881 27.9466C20.324 28.1397 21.4874 28.0998 22.6074 27.8293C23.7274 27.5588 24.7808 27.0635 25.7035 26.3733C26.6262 25.6832 27.3989 24.8127 27.9747 23.8146C28.5505 22.8166 28.9174 21.7119 29.0531 20.5677C29.1888 19.4235 29.0905 18.2636 28.764 17.1586C28.4376 16.0536 27.8899 15.0265 27.1542 14.1397C26.4185 13.2529 25.5102 12.5249 24.4845 12ZM15.9995 24.1838C14.7856 23.024 14.0687 21.4387 13.9995 19.7612C15.3096 20.0796 16.6769 20.0796 17.987 19.7612C17.9211 21.4369 17.2088 23.0219 15.9995 24.1838ZM15.9995 18C15.4044 17.9998 14.8122 17.9178 14.2395 17.7563C14.553 16.6366 15.1607 15.6214 15.9995 14.8162C16.8383 15.6214 17.446 16.6366 17.7595 17.7563C17.1868 17.9178 16.5946 17.9998 15.9995 18ZM12.4032 16.9112C11.1067 16.048 10.1619 14.7493 9.7395 13.25C11.2708 12.8179 12.9075 12.9638 14.3382 13.66C13.4578 14.5851 12.7965 15.6962 12.4032 16.9112ZM17.6607 13.6538C19.0922 12.9596 20.7289 12.8159 22.2595 13.25C21.8385 14.7516 20.8935 16.0527 19.5957 16.9175C19.2042 15.698 18.5428 14.5824 17.6607 13.6538ZM15.9995 5C17.6785 5.0005 19.2924 5.64996 20.5037 6.81262C21.7151 7.97528 22.4302 9.56115 22.4995 11.2388C21.4005 10.9714 20.2591 10.9271 19.1427 11.1083C18.0263 11.2895 16.9575 11.6926 15.9995 12.2937C15.0423 11.6934 13.9746 11.2908 12.8593 11.1096C11.744 10.9284 10.6038 10.9723 9.50575 11.2388C9.57504 9.56223 10.2892 7.97728 11.4993 6.81478C12.7093 5.65229 14.3215 5.00211 15.9995 5ZM4.9995 19.5C5.00004 18.4286 5.26541 17.3739 5.77202 16.4298C6.27863 15.4857 7.01075 14.6815 7.90325 14.0887C8.58509 16.1969 10.0592 17.9579 12.0145 19C12.0057 19.1637 11.9995 19.3288 11.9995 19.5C11.9986 21.6769 12.8361 23.7706 14.3382 25.3463C13.3474 25.8273 12.2506 26.0486 11.1507 25.9895C10.0509 25.9304 8.98405 25.5928 8.05046 25.0084C7.11687 24.4239 6.3471 23.6118 5.81343 22.6483C5.27976 21.6848 4.99968 20.6014 4.9995 19.5ZM20.4995 26C19.5158 26.0012 18.5448 25.7776 17.6607 25.3463C19.1629 23.7706 20.0004 21.6769 19.9995 19.5C19.9995 19.3337 19.9932 19.1688 19.9845 19C21.9408 17.9567 23.415 16.1938 24.0957 14.0837C25.2594 14.8558 26.1435 15.9822 26.617 17.2959C27.0906 18.6097 27.1284 20.0411 26.7249 21.378C26.3214 22.7149 25.4981 23.8864 24.3768 24.7189C23.2556 25.5513 21.896 26.0006 20.4995 26Z" fill="white"/>
</svg>
