<svg width="20" height="20" viewBox="0 0 20 20" fill="none" xmlns="http://www.w3.org/2000/svg">
<path d="M16.9195 3.07976C15.9268 2.08563 14.628 1.45497 13.2329 1.28957C11.8377 1.12416 10.4275 1.43366 9.2298 2.1681C8.03212 2.90255 7.11682 4.01911 6.63161 5.3376C6.1464 6.6561 6.11958 8.09962 6.55548 9.43523L2.24141 13.7493C2.12483 13.8649 2.03241 14.0026 1.96951 14.1543C1.9066 14.306 1.87448 14.4687 1.87501 14.6329V16.8743C1.87501 17.2058 2.0067 17.5238 2.24112 17.7582C2.47554 17.9926 2.79349 18.1243 3.12501 18.1243H5.62501C5.79077 18.1243 5.94974 18.0584 6.06695 17.9412C6.18416 17.824 6.25001 17.6651 6.25001 17.4993V16.2493H7.50001C7.66577 16.2493 7.82474 16.1834 7.94195 16.0662C8.05916 15.949 8.12501 15.7901 8.12501 15.6243V14.3743H9.37501C9.45711 14.3744 9.53842 14.3582 9.61429 14.3269C9.69016 14.2955 9.75911 14.2495 9.81719 14.1915L10.5641 13.4438C11.1892 13.6472 11.8426 13.7503 12.5 13.7493H12.5078C13.7433 13.7478 14.9507 13.3801 15.9773 12.6928C17.004 12.0054 17.8039 11.0292 18.276 9.88749C18.7481 8.74574 18.8712 7.48968 18.6298 6.278C18.3883 5.06632 17.7932 3.95337 16.9195 3.07976ZM17.5 7.66335C17.4148 10.3266 15.1758 12.4962 12.5086 12.4993H12.5C11.8673 12.5004 11.2402 12.3808 10.6524 12.1469C10.5373 12.097 10.41 12.0829 10.2868 12.1063C10.1637 12.1297 10.0504 12.1896 9.96173 12.2782L9.11641 13.1243H7.50001C7.33425 13.1243 7.17528 13.1901 7.05806 13.3073C6.94085 13.4246 6.87501 13.5835 6.87501 13.7493V14.9993H5.62501C5.45925 14.9993 5.30027 15.0651 5.18306 15.1823C5.06585 15.2996 5.00001 15.4585 5.00001 15.6243V16.8743H3.12501V14.6329L7.7211 10.0376C7.80972 9.9489 7.86962 9.83562 7.89303 9.71246C7.91643 9.5893 7.90226 9.46195 7.85235 9.34695C7.61778 8.7571 7.49818 8.12782 7.50001 7.49304C7.50001 4.82585 9.67266 2.58679 12.3359 2.50163C13.0201 2.4788 13.7016 2.59669 14.3383 2.84798C14.975 3.09927 15.5533 3.47861 16.0374 3.96252C16.5216 4.44642 16.9012 5.02458 17.1528 5.66117C17.4043 6.29776 17.5225 6.97922 17.5 7.66335ZM15 5.93679C15 6.12221 14.945 6.30347 14.842 6.45764C14.739 6.61181 14.5926 6.73197 14.4213 6.80293C14.25 6.87389 14.0615 6.89245 13.8796 6.85628C13.6978 6.8201 13.5307 6.73082 13.3996 6.5997C13.2685 6.46859 13.1792 6.30155 13.143 6.11969C13.1068 5.93783 13.1254 5.74933 13.1964 5.57803C13.2673 5.40672 13.3875 5.2603 13.5417 5.15729C13.6958 5.05427 13.8771 4.99929 14.0625 4.99929C14.3111 4.99929 14.5496 5.09806 14.7254 5.27388C14.9012 5.44969 15 5.68815 15 5.93679Z" fill="#151515"/>
</svg>
