<svg width="180" height="16" viewBox="0 0 180 16" fill="none" xmlns="http://www.w3.org/2000/svg">
<path d="M5.8404 6.62406H1.1524V11.6641H0.000398517V0.208062H6.7524V1.26406H1.1524V5.58406H5.8404V6.62406ZM11.5115 3.82406V4.81606H10.9035C9.47952 4.81606 8.56752 5.77606 8.56752 7.24806V11.6641H7.46352V3.92006H8.50352L8.58352 5.12006C8.88752 4.28806 9.70352 3.74406 10.7915 3.74406C11.0315 3.74406 11.2395 3.76006 11.5115 3.82406ZM15.4303 11.8561C13.1583 11.8561 11.6383 10.2241 11.6383 7.79206C11.6383 5.37606 13.1423 3.71206 15.3503 3.71206C17.4463 3.71206 18.8703 5.20006 18.8703 7.39206V7.93606H12.7103C12.7903 9.82406 13.7823 10.9121 15.4463 10.9121C16.7103 10.9121 17.5263 10.3681 17.8143 9.34406H18.8703C18.4543 10.9761 17.2543 11.8561 15.4303 11.8561ZM15.3503 4.65606C13.8943 4.65606 12.9343 5.61606 12.7423 7.13606H17.7663C17.7663 5.64806 16.8063 4.65606 15.3503 4.65606ZM19.5914 7.76006C19.5914 5.42406 20.9354 3.71206 23.1754 3.71206C24.4714 3.71206 25.5434 4.28806 26.1034 5.48806L26.2154 3.92006H27.1754V15.0401H26.0714V10.1761C25.5274 11.2961 24.4874 11.8561 23.1754 11.8561C20.8874 11.8561 19.5914 10.0961 19.5914 7.76006ZM20.7114 7.79206C20.7114 9.56806 21.6874 10.8641 23.3674 10.8641C25.0634 10.8641 26.0554 9.56806 26.0554 7.79206C26.0554 6.00006 25.0634 4.72006 23.3674 4.72006C21.6874 4.72006 20.7114 6.00006 20.7114 7.79206ZM34.4191 3.92006H35.5231V11.6641H34.5631L34.4191 10.3521C33.9871 11.2481 32.9151 11.8561 31.6991 11.8561C29.8751 11.8561 28.8831 10.6081 28.8831 8.72006V3.90406H30.0031V8.36806C30.0031 10.2081 30.8191 10.8641 32.0511 10.8641C33.5391 10.8641 34.4191 9.87206 34.4191 8.03206V3.92006ZM40.4146 11.8561C38.1426 11.8561 36.6226 10.2241 36.6226 7.79206C36.6226 5.37606 38.1266 3.71206 40.3346 3.71206C42.4306 3.71206 43.8546 5.20006 43.8546 7.39206V7.93606H37.6946C37.7746 9.82406 38.7666 10.9121 40.4306 10.9121C41.6946 10.9121 42.5106 10.3681 42.7986 9.34406H43.8546C43.4386 10.9761 42.2386 11.8561 40.4146 11.8561ZM40.3346 4.65606C38.8786 4.65606 37.9186 5.61606 37.7266 7.13606H42.7506C42.7506 5.64806 41.7906 4.65606 40.3346 4.65606ZM46.2238 11.6641H45.1198V3.92006H46.0798L46.2398 5.26406C46.7518 4.27206 47.7758 3.71206 48.8958 3.71206C51.0238 3.71206 51.9038 4.97606 51.9038 6.92806V11.6641H50.7998V7.16806C50.7998 5.36006 49.9838 4.72006 48.7038 4.72006C47.1198 4.72006 46.2238 5.87206 46.2238 7.61606V11.6641ZM55.3801 11.6641H54.2921V4.84806H52.7401V3.92006H54.2921V1.47206H55.3801V3.92006H56.9321V4.84806H55.3801V11.6641ZM59.0218 11.6641H57.9178V6.19888e-05H59.0218V11.6641ZM60.0858 15.0401V14.1281H60.9338C61.6058 14.1281 62.2778 14.0801 62.6618 13.0401L62.9978 12.1281L59.8618 3.92006H61.0298L63.5258 10.6721L65.9738 3.92006H67.1098L63.5578 13.4401C63.1098 14.6561 62.3578 15.1521 61.2538 15.1521C60.7898 15.1521 60.4378 15.1201 60.0858 15.0401Z" fill="#101010"/>
<path d="M72.0785 11.6641H70.9105L75.1185 0.208062H76.5425L80.7985 11.6641H79.5985L78.4785 8.62406H73.1985L72.0785 11.6641ZM75.6785 1.82406L73.5505 7.61606H78.1105L75.9665 1.82406C75.9185 1.66406 75.8385 1.47206 75.8225 1.36006C75.8065 1.45606 75.7425 1.66406 75.6785 1.82406ZM80.995 9.48806H82.051C82.051 10.3841 82.723 10.9441 83.811 10.9441C85.011 10.9441 85.715 10.4321 85.715 9.60006C85.715 8.96006 85.395 8.59206 84.483 8.36806L83.155 8.03206C81.811 7.69606 81.155 6.99206 81.155 5.93606C81.155 4.57606 82.291 3.71206 83.955 3.71206C85.587 3.71206 86.643 4.60806 86.691 6.04806H85.619C85.587 5.15206 84.963 4.62406 83.923 4.62406C82.835 4.62406 82.227 5.08806 82.227 5.92006C82.227 6.51206 82.643 6.92806 83.491 7.13606L84.819 7.47206C86.163 7.80806 86.771 8.43206 86.771 9.55206C86.771 10.9441 85.587 11.8561 83.827 11.8561C82.083 11.8561 80.995 10.9281 80.995 9.48806ZM89.2405 11.6641H88.1365V6.19888e-05H89.2405V7.92006L93.0805 3.92006H94.4725L91.4965 7.00806L94.4885 11.6641H93.2085L90.7445 7.79206L89.2405 9.34406V11.6641ZM98.2896 11.8561C96.0176 11.8561 94.4976 10.2241 94.4976 7.79206C94.4976 5.37606 96.0016 3.71206 98.2096 3.71206C100.306 3.71206 101.73 5.20006 101.73 7.39206V7.93606H95.5696C95.6496 9.82406 96.6416 10.9121 98.3056 10.9121C99.5696 10.9121 100.386 10.3681 100.674 9.34406H101.73C101.314 10.9761 100.114 11.8561 98.2896 11.8561ZM98.2096 4.65606C96.7536 4.65606 95.7936 5.61606 95.6016 7.13606H100.626C100.626 5.64806 99.6656 4.65606 98.2096 4.65606ZM106.035 11.8561C103.779 11.8561 102.451 10.1281 102.451 7.80806C102.451 5.47206 103.779 3.71206 106.083 3.71206C107.363 3.71206 108.387 4.27206 108.931 5.39206V6.19888e-05H110.035V11.6641H109.075L108.963 10.0801C108.419 11.2801 107.331 11.8561 106.035 11.8561ZM106.227 10.8481C107.923 10.8481 108.915 9.56806 108.915 7.77606C108.915 6.00006 107.923 4.70406 106.227 4.70406C104.547 4.70406 103.571 6.00006 103.571 7.77606C103.571 9.56806 104.547 10.8481 106.227 10.8481ZM125.056 12.3201L123.84 10.9441C122.976 11.5361 121.936 11.8561 120.768 11.8561C117.552 11.8561 115.312 9.40806 115.312 5.93606C115.312 2.46406 117.568 6.19888e-05 120.768 6.19888e-05C123.984 6.19888e-05 126.224 2.44806 126.224 5.93606C126.224 7.71206 125.632 9.21606 124.64 10.2561L125.84 11.6001L125.056 12.3201ZM125.04 5.93606C125.04 3.07206 123.296 1.12006 120.768 1.12006C118.24 1.12006 116.512 3.07206 116.512 5.93606C116.512 8.80006 118.24 10.7521 120.768 10.7521C121.648 10.7521 122.432 10.5121 123.072 10.0961L121.584 8.41606L122.352 7.69606L123.872 9.39206C124.608 8.54406 125.04 7.34406 125.04 5.93606ZM133.013 3.92006H134.117V11.6641H133.157L133.013 10.3521C132.581 11.2481 131.509 11.8561 130.293 11.8561C128.469 11.8561 127.477 10.6081 127.477 8.72006V3.90406H128.597V8.36806C128.597 10.2081 129.413 10.8641 130.645 10.8641C132.133 10.8641 133.013 9.87206 133.013 8.03206V3.92006ZM139.008 11.8561C136.736 11.8561 135.216 10.2241 135.216 7.79206C135.216 5.37606 136.72 3.71206 138.928 3.71206C141.024 3.71206 142.448 5.20006 142.448 7.39206V7.93606H136.288C136.368 9.82406 137.36 10.9121 139.024 10.9121C140.288 10.9121 141.104 10.3681 141.392 9.34406H142.448C142.032 10.9761 140.832 11.8561 139.008 11.8561ZM138.928 4.65606C137.472 4.65606 136.512 5.61606 136.32 7.13606H141.344C141.344 5.64806 140.384 4.65606 138.928 4.65606ZM143.058 9.48806H144.114C144.114 10.3841 144.786 10.9441 145.874 10.9441C147.074 10.9441 147.778 10.4321 147.778 9.60006C147.778 8.96006 147.458 8.59206 146.546 8.36806L145.218 8.03206C143.874 7.69606 143.218 6.99206 143.218 5.93606C143.218 4.57606 144.354 3.71206 146.018 3.71206C147.65 3.71206 148.706 4.60806 148.754 6.04806H147.682C147.65 5.15206 147.026 4.62406 145.986 4.62406C144.898 4.62406 144.29 5.08806 144.29 5.92006C144.29 6.51206 144.706 6.92806 145.554 7.13606L146.882 7.47206C148.226 7.80806 148.834 8.43206 148.834 9.55206C148.834 10.9441 147.65 11.8561 145.89 11.8561C144.146 11.8561 143.058 10.9281 143.058 9.48806ZM151.927 11.6641H150.839V4.84806H149.287V3.92006H150.839V1.47206H151.927V3.92006H153.479V4.84806H151.927V11.6641ZM154.961 1.79206C154.513 1.79206 154.145 1.42406 154.145 0.976062C154.145 0.528062 154.513 0.144062 154.961 0.144062C155.409 0.144062 155.793 0.528062 155.793 0.976062C155.793 1.42406 155.409 1.79206 154.961 1.79206ZM154.417 11.6641V3.92006H155.521V11.6641H154.417ZM156.779 7.79206C156.779 5.42406 158.443 3.71206 160.715 3.71206C162.987 3.71206 164.651 5.42406 164.651 7.79206C164.651 10.1441 162.987 11.8561 160.715 11.8561C158.443 11.8561 156.779 10.1441 156.779 7.79206ZM157.899 7.77606C157.899 9.60006 159.051 10.8641 160.715 10.8641C162.363 10.8641 163.531 9.60006 163.531 7.77606C163.531 5.98406 162.363 4.70406 160.715 4.70406C159.051 4.70406 157.899 5.98406 157.899 7.77606ZM167.021 11.6641H165.917V3.92006H166.877L167.037 5.26406C167.549 4.27206 168.573 3.71206 169.693 3.71206C171.821 3.71206 172.701 4.97606 172.701 6.92806V11.6641H171.597V7.16806C171.597 5.36006 170.781 4.72006 169.501 4.72006C167.917 4.72006 167.021 5.87206 167.021 7.61606V11.6641ZM173.651 9.48806H174.707C174.707 10.3841 175.379 10.9441 176.467 10.9441C177.667 10.9441 178.371 10.4321 178.371 9.60006C178.371 8.96006 178.051 8.59206 177.139 8.36806L175.811 8.03206C174.467 7.69606 173.811 6.99206 173.811 5.93606C173.811 4.57606 174.947 3.71206 176.611 3.71206C178.243 3.71206 179.299 4.60806 179.347 6.04806H178.275C178.243 5.15206 177.619 4.62406 176.579 4.62406C175.491 4.62406 174.883 5.08806 174.883 5.92006C174.883 6.51206 175.299 6.92806 176.147 7.13606L177.475 7.47206C178.819 7.80806 179.427 8.43206 179.427 9.55206C179.427 10.9441 178.243 11.8561 176.483 11.8561C174.739 11.8561 173.651 10.9281 173.651 9.48806Z" fill="#FDC24C"/>
<path d="M72.0785 11.6641H70.9105L75.1185 0.208062H76.5425L80.7985 11.6641H79.5985L78.4785 8.62406H73.1985L72.0785 11.6641ZM75.6785 1.82406L73.5505 7.61606H78.1105L75.9665 1.82406C75.9185 1.66406 75.8385 1.47206 75.8225 1.36006C75.8065 1.45606 75.7425 1.66406 75.6785 1.82406ZM80.995 9.48806H82.051C82.051 10.3841 82.723 10.9441 83.811 10.9441C85.011 10.9441 85.715 10.4321 85.715 9.60006C85.715 8.96006 85.395 8.59206 84.483 8.36806L83.155 8.03206C81.811 7.69606 81.155 6.99206 81.155 5.93606C81.155 4.57606 82.291 3.71206 83.955 3.71206C85.587 3.71206 86.643 4.60806 86.691 6.04806H85.619C85.587 5.15206 84.963 4.62406 83.923 4.62406C82.835 4.62406 82.227 5.08806 82.227 5.92006C82.227 6.51206 82.643 6.92806 83.491 7.13606L84.819 7.47206C86.163 7.80806 86.771 8.43206 86.771 9.55206C86.771 10.9441 85.587 11.8561 83.827 11.8561C82.083 11.8561 80.995 10.9281 80.995 9.48806ZM89.2405 11.6641H88.1365V6.19888e-05H89.2405V7.92006L93.0805 3.92006H94.4725L91.4965 7.00806L94.4885 11.6641H93.2085L90.7445 7.79206L89.2405 9.34406V11.6641ZM98.2896 11.8561C96.0176 11.8561 94.4976 10.2241 94.4976 7.79206C94.4976 5.37606 96.0016 3.71206 98.2096 3.71206C100.306 3.71206 101.73 5.20006 101.73 7.39206V7.93606H95.5696C95.6496 9.82406 96.6416 10.9121 98.3056 10.9121C99.5696 10.9121 100.386 10.3681 100.674 9.34406H101.73C101.314 10.9761 100.114 11.8561 98.2896 11.8561ZM98.2096 4.65606C96.7536 4.65606 95.7936 5.61606 95.6016 7.13606H100.626C100.626 5.64806 99.6656 4.65606 98.2096 4.65606ZM106.035 11.8561C103.779 11.8561 102.451 10.1281 102.451 7.80806C102.451 5.47206 103.779 3.71206 106.083 3.71206C107.363 3.71206 108.387 4.27206 108.931 5.39206V6.19888e-05H110.035V11.6641H109.075L108.963 10.0801C108.419 11.2801 107.331 11.8561 106.035 11.8561ZM106.227 10.8481C107.923 10.8481 108.915 9.56806 108.915 7.77606C108.915 6.00006 107.923 4.70406 106.227 4.70406C104.547 4.70406 103.571 6.00006 103.571 7.77606C103.571 9.56806 104.547 10.8481 106.227 10.8481ZM125.056 12.3201L123.84 10.9441C122.976 11.5361 121.936 11.8561 120.768 11.8561C117.552 11.8561 115.312 9.40806 115.312 5.93606C115.312 2.46406 117.568 6.19888e-05 120.768 6.19888e-05C123.984 6.19888e-05 126.224 2.44806 126.224 5.93606C126.224 7.71206 125.632 9.21606 124.64 10.2561L125.84 11.6001L125.056 12.3201ZM125.04 5.93606C125.04 3.07206 123.296 1.12006 120.768 1.12006C118.24 1.12006 116.512 3.07206 116.512 5.93606C116.512 8.80006 118.24 10.7521 120.768 10.7521C121.648 10.7521 122.432 10.5121 123.072 10.0961L121.584 8.41606L122.352 7.69606L123.872 9.39206C124.608 8.54406 125.04 7.34406 125.04 5.93606ZM133.013 3.92006H134.117V11.6641H133.157L133.013 10.3521C132.581 11.2481 131.509 11.8561 130.293 11.8561C128.469 11.8561 127.477 10.6081 127.477 8.72006V3.90406H128.597V8.36806C128.597 10.2081 129.413 10.8641 130.645 10.8641C132.133 10.8641 133.013 9.87206 133.013 8.03206V3.92006ZM139.008 11.8561C136.736 11.8561 135.216 10.2241 135.216 7.79206C135.216 5.37606 136.72 3.71206 138.928 3.71206C141.024 3.71206 142.448 5.20006 142.448 7.39206V7.93606H136.288C136.368 9.82406 137.36 10.9121 139.024 10.9121C140.288 10.9121 141.104 10.3681 141.392 9.34406H142.448C142.032 10.9761 140.832 11.8561 139.008 11.8561ZM138.928 4.65606C137.472 4.65606 136.512 5.61606 136.32 7.13606H141.344C141.344 5.64806 140.384 4.65606 138.928 4.65606ZM143.058 9.48806H144.114C144.114 10.3841 144.786 10.9441 145.874 10.9441C147.074 10.9441 147.778 10.4321 147.778 9.60006C147.778 8.96006 147.458 8.59206 146.546 8.36806L145.218 8.03206C143.874 7.69606 143.218 6.99206 143.218 5.93606C143.218 4.57606 144.354 3.71206 146.018 3.71206C147.65 3.71206 148.706 4.60806 148.754 6.04806H147.682C147.65 5.15206 147.026 4.62406 145.986 4.62406C144.898 4.62406 144.29 5.08806 144.29 5.92006C144.29 6.51206 144.706 6.92806 145.554 7.13606L146.882 7.47206C148.226 7.80806 148.834 8.43206 148.834 9.55206C148.834 10.9441 147.65 11.8561 145.89 11.8561C144.146 11.8561 143.058 10.9281 143.058 9.48806ZM151.927 11.6641H150.839V4.84806H149.287V3.92006H150.839V1.47206H151.927V3.92006H153.479V4.84806H151.927V11.6641ZM154.961 1.79206C154.513 1.79206 154.145 1.42406 154.145 0.976062C154.145 0.528062 154.513 0.144062 154.961 0.144062C155.409 0.144062 155.793 0.528062 155.793 0.976062C155.793 1.42406 155.409 1.79206 154.961 1.79206ZM154.417 11.6641V3.92006H155.521V11.6641H154.417ZM156.779 7.79206C156.779 5.42406 158.443 3.71206 160.715 3.71206C162.987 3.71206 164.651 5.42406 164.651 7.79206C164.651 10.1441 162.987 11.8561 160.715 11.8561C158.443 11.8561 156.779 10.1441 156.779 7.79206ZM157.899 7.77606C157.899 9.60006 159.051 10.8641 160.715 10.8641C162.363 10.8641 163.531 9.60006 163.531 7.77606C163.531 5.98406 162.363 4.70406 160.715 4.70406C159.051 4.70406 157.899 5.98406 157.899 7.77606ZM167.021 11.6641H165.917V3.92006H166.877L167.037 5.26406C167.549 4.27206 168.573 3.71206 169.693 3.71206C171.821 3.71206 172.701 4.97606 172.701 6.92806V11.6641H171.597V7.16806C171.597 5.36006 170.781 4.72006 169.501 4.72006C167.917 4.72006 167.021 5.87206 167.021 7.61606V11.6641ZM173.651 9.48806H174.707C174.707 10.3841 175.379 10.9441 176.467 10.9441C177.667 10.9441 178.371 10.4321 178.371 9.60006C178.371 8.96006 178.051 8.59206 177.139 8.36806L175.811 8.03206C174.467 7.69606 173.811 6.99206 173.811 5.93606C173.811 4.57606 174.947 3.71206 176.611 3.71206C178.243 3.71206 179.299 4.60806 179.347 6.04806H178.275C178.243 5.15206 177.619 4.62406 176.579 4.62406C175.491 4.62406 174.883 5.08806 174.883 5.92006C174.883 6.51206 175.299 6.92806 176.147 7.13606L177.475 7.47206C178.819 7.80806 179.427 8.43206 179.427 9.55206C179.427 10.9441 178.243 11.8561 176.483 11.8561C174.739 11.8561 173.651 10.9281 173.651 9.48806Z" fill="url(#paint0_radial_25144_439)" fill-opacity="0.2"/>
<defs>
<radialGradient id="paint0_radial_25144_439" cx="0" cy="0" r="1" gradientTransform="matrix(115.461 10.4965 -105.265 61.6639 19.9223 -0.617896)" gradientUnits="userSpaceOnUse">
<stop stop-color="white"/>
<stop offset="1" stop-color="white" stop-opacity="0"/>
</radialGradient>
</defs>
</svg>
