<svg width="138" height="16" viewBox="0 0 138 16" fill="none" xmlns="http://www.w3.org/2000/svg">
<path d="M0.144791 3.19204C0.144791 1.26723 1.68464 6.21441e-05 3.99441 6.21441e-05C6.06358 6.21441e-05 7.42698 1.15495 7.60342 3.07976H6.4325C6.30418 1.78051 5.42197 1.04267 3.97837 1.04267C2.35832 1.04267 1.29968 1.87675 1.29968 3.176C1.29968 4.18652 1.89316 4.82812 3.09616 5.13288L5.06909 5.61409C6.86558 6.04717 7.7959 7.07373 7.7959 8.62962C7.7959 10.6186 6.25606 11.8858 3.88213 11.8858C1.65256 11.8858 0.144791 10.7148 0.000430766 8.83814H1.1874C1.25156 10.0411 2.3102 10.8271 3.88213 10.8271C5.56633 10.8271 6.64102 10.0091 6.64102 8.69378C6.64102 7.66722 6.06358 6.99353 4.82849 6.70481L2.88764 6.22361C1.09116 5.79053 0.144791 4.76396 0.144791 3.19204ZM9.67623 1.79655C9.2271 1.79655 8.85818 1.42763 8.85818 0.978506C8.85818 0.529384 9.2271 0.144423 9.67623 0.144423C10.1253 0.144423 10.5103 0.529384 10.5103 0.978506C10.5103 1.42763 10.1253 1.79655 9.67623 1.79655ZM9.13086 11.6933V3.92988H10.2376V11.6933H9.13086ZM13.1512 11.6933H12.0444V3.92988H13.0068L13.1351 5.03664C13.5201 4.2186 14.3862 3.72136 15.477 3.72136C16.696 3.72136 17.6103 4.36296 17.9792 5.37349C18.3321 4.36296 19.2785 3.72136 20.5296 3.72136C22.2138 3.72136 23.3206 4.81208 23.3206 6.60857V11.6933H22.2459V6.83313C22.2459 5.50181 21.508 4.71584 20.3211 4.71584C19.0218 4.71584 18.2519 5.69429 18.2519 6.89729V11.6933H17.1612V6.81709C17.1612 5.50181 16.4073 4.73188 15.2364 4.73188C13.9371 4.73188 13.1512 5.69429 13.1512 6.88125V11.6933ZM25.0456 15.0777V3.92988H26.008L26.1203 5.50181C26.6657 4.2988 27.7564 3.72136 29.0556 3.72136C31.3012 3.72136 32.6486 5.43765 32.6486 7.7795C32.6486 10.1213 31.3494 11.8858 29.0556 11.8858C27.7404 11.8858 26.6977 11.3244 26.1524 10.2015V15.0777H25.0456ZM26.1684 7.81158C26.1684 9.59202 27.1629 10.8913 28.8632 10.8913C30.5474 10.8913 31.5258 9.59202 31.5258 7.81158C31.5258 6.01509 30.5474 4.73188 28.8632 4.73188C27.1629 4.73188 26.1684 6.01509 26.1684 7.81158ZM35.0664 11.6933H33.9596V6.21441e-05H35.0664V11.6933ZM40.1752 11.8858C37.8975 11.8858 36.3737 10.2497 36.3737 7.81158C36.3737 5.38953 37.8814 3.72136 40.095 3.72136C42.1962 3.72136 43.6238 5.21308 43.6238 7.41057V7.95594H37.4484C37.5286 9.84866 38.523 10.9394 40.1912 10.9394C41.4584 10.9394 42.2764 10.394 42.5651 9.36746H43.6238C43.2067 11.0035 42.0037 11.8858 40.1752 11.8858ZM40.095 4.66772C38.6353 4.66772 37.6729 5.63013 37.4804 7.15393H42.517C42.517 5.66221 41.5546 4.66772 40.095 4.66772ZM56.6145 11.6933L55.5879 10.5063C54.6897 11.4046 53.4385 11.9018 51.9308 11.9018C49.5087 11.9018 47.9368 10.6667 47.9368 8.77398C47.9368 7.31433 48.803 6.23965 50.8721 5.11684C49.8295 3.8978 49.4125 3.20808 49.4125 2.35795C49.4125 0.978506 50.4551 0.016102 52.011 0.016102C53.4867 0.016102 54.4972 0.914346 54.4972 2.26171C54.4972 3.40056 53.9037 4.28276 52.3799 5.30932L55.5077 8.91834C55.8285 8.24466 56.005 7.41057 56.005 6.44817H57.0796C57.0796 7.73138 56.7749 8.83814 56.2135 9.72034L57.9298 11.6933H56.6145ZM51.7864 4.6196L51.8025 4.63564C52.9253 3.92988 53.4385 3.19204 53.4385 2.29379C53.4385 1.45971 52.8932 0.946426 51.9949 0.946426C51.0646 0.946426 50.4872 1.49179 50.4872 2.35795C50.4872 2.9354 50.7438 3.4166 51.7864 4.6196ZM49.0756 8.70982C49.0756 10.1053 50.1664 10.9394 51.9949 10.9394C53.2621 10.9394 54.2566 10.5384 54.9463 9.76846L51.4496 5.77449C49.7172 6.73689 49.0756 7.53889 49.0756 8.70982Z" fill="#101010"/>
<path d="M61.1289 1.26723V0.208583H69.3574V1.26723H65.8126V11.6933H64.6577V1.26723H61.1289ZM73.3079 3.83364V4.82812H72.6984C71.2708 4.82812 70.3566 5.79053 70.3566 7.26621V11.6933H69.2498V3.92988H70.2924L70.3726 5.13288C70.6774 4.2988 71.4954 3.75344 72.5861 3.75344C72.8267 3.75344 73.0352 3.76948 73.3079 3.83364ZM76.1943 11.8858C74.5421 11.8858 73.5637 10.9554 73.5637 9.59202C73.5637 8.16446 74.6544 7.26621 76.4669 7.12185L79.0334 6.91333V6.65669C79.0334 5.13288 78.1191 4.65168 76.9802 4.65168C75.6329 4.65168 74.8309 5.2612 74.8309 6.30381H73.8203C73.8203 4.73188 75.1035 3.72136 77.0123 3.72136C78.8088 3.72136 80.1241 4.6196 80.1241 6.67273V11.6933H79.1938L79.0494 10.3299C78.5682 11.3083 77.5096 11.8858 76.1943 11.8858ZM76.4509 10.9875C78.087 10.9875 79.0334 9.84866 79.0334 8.16446V7.74742L76.7396 7.92386C75.28 8.05218 74.6865 8.69378 74.6865 9.55994C74.6865 10.5063 75.3923 10.9875 76.4509 10.9875ZM82.9505 11.6933H81.8438V3.92988H82.8062L82.9666 5.27725C83.4798 4.28276 84.5064 3.72136 85.6292 3.72136C87.7625 3.72136 88.6447 4.98852 88.6447 6.94541V11.6933H87.538V7.18601C87.538 5.37349 86.7199 4.73188 85.4367 4.73188C83.8488 4.73188 82.9505 5.88677 82.9505 7.63513V11.6933ZM89.5977 9.51182H90.6564C90.6564 10.4101 91.3301 10.9715 92.4208 10.9715C93.6238 10.9715 94.3296 10.4582 94.3296 9.6241C94.3296 8.9825 94.0088 8.61358 93.0945 8.38902L91.7632 8.05218C90.4158 7.71534 89.7581 7.00957 89.7581 5.95093C89.7581 4.58752 90.897 3.72136 92.5652 3.72136C94.2012 3.72136 95.2599 4.6196 95.308 6.06321H94.2333C94.2012 5.16496 93.5757 4.63564 92.5331 4.63564C91.4424 4.63564 90.8328 5.1008 90.8328 5.93489C90.8328 6.52837 91.2499 6.94541 92.1 7.15393L93.4313 7.49077C94.7787 7.82762 95.3882 8.45318 95.3882 9.57598C95.3882 10.9715 94.2012 11.8858 92.4368 11.8858C90.6885 11.8858 89.5977 10.9554 89.5977 9.51182ZM96.709 15.0777V3.92988H97.6714L97.7837 5.50181C98.3291 4.2988 99.4198 3.72136 100.719 3.72136C102.965 3.72136 104.312 5.43765 104.312 7.7795C104.312 10.1213 103.013 11.8858 100.719 11.8858C99.4037 11.8858 98.3611 11.3244 97.8158 10.2015V15.0777H96.709ZM97.8318 7.81158C97.8318 9.59202 98.8263 10.8913 100.527 10.8913C102.211 10.8913 103.189 9.59202 103.189 7.81158C103.189 6.01509 102.211 4.73188 100.527 4.73188C98.8263 4.73188 97.8318 6.01509 97.8318 7.81158ZM107.804 11.8858C106.152 11.8858 105.174 10.9554 105.174 9.59202C105.174 8.16446 106.265 7.26621 108.077 7.12185L110.644 6.91333V6.65669C110.644 5.13288 109.729 4.65168 108.59 4.65168C107.243 4.65168 106.441 5.2612 106.441 6.30381H105.431C105.431 4.73188 106.714 3.72136 108.623 3.72136C110.419 3.72136 111.734 4.6196 111.734 6.67273V11.6933H110.804L110.66 10.3299C110.178 11.3083 109.12 11.8858 107.804 11.8858ZM108.061 10.9875C109.697 10.9875 110.644 9.84866 110.644 8.16446V7.74742L108.35 7.92386C106.89 8.05218 106.297 8.69378 106.297 9.55994C106.297 10.5063 107.002 10.9875 108.061 10.9875ZM117.512 3.83364V4.82812H116.903C115.475 4.82812 114.561 5.79053 114.561 7.26621V11.6933H113.454V3.92988H114.497L114.577 5.13288C114.882 4.2988 115.7 3.75344 116.79 3.75344C117.031 3.75344 117.239 3.76948 117.512 3.83364ZM121.441 11.8858C119.163 11.8858 117.639 10.2497 117.639 7.81158C117.639 5.38953 119.147 3.72136 121.36 3.72136C123.462 3.72136 124.889 5.21308 124.889 7.41057V7.95594H118.714C118.794 9.84866 119.789 10.9394 121.457 10.9394C122.724 10.9394 123.542 10.394 123.831 9.36746H124.889C124.472 11.0035 123.269 11.8858 121.441 11.8858ZM121.36 4.66772C119.901 4.66772 118.938 5.63013 118.746 7.15393H123.783C123.783 5.66221 122.82 4.66772 121.36 4.66772ZM127.264 11.6933H126.158V3.92988H127.12L127.28 5.27725C127.794 4.28276 128.82 3.72136 129.943 3.72136C132.076 3.72136 132.959 4.98852 132.959 6.94541V11.6933H131.852V7.18601C131.852 5.37349 131.034 4.73188 129.751 4.73188C128.163 4.73188 127.264 5.88677 127.264 7.63513V11.6933ZM136.444 11.6933H135.353V4.8602H133.797V3.92988H135.353V1.47575H136.444V3.92988H138V4.8602H136.444V11.6933Z" fill="#FDC24C"/>
<path d="M61.1289 1.26723V0.208583H69.3574V1.26723H65.8126V11.6933H64.6577V1.26723H61.1289ZM73.3079 3.83364V4.82812H72.6984C71.2708 4.82812 70.3566 5.79053 70.3566 7.26621V11.6933H69.2498V3.92988H70.2924L70.3726 5.13288C70.6774 4.2988 71.4954 3.75344 72.5861 3.75344C72.8267 3.75344 73.0352 3.76948 73.3079 3.83364ZM76.1943 11.8858C74.5421 11.8858 73.5637 10.9554 73.5637 9.59202C73.5637 8.16446 74.6544 7.26621 76.4669 7.12185L79.0334 6.91333V6.65669C79.0334 5.13288 78.1191 4.65168 76.9802 4.65168C75.6329 4.65168 74.8309 5.2612 74.8309 6.30381H73.8203C73.8203 4.73188 75.1035 3.72136 77.0123 3.72136C78.8088 3.72136 80.1241 4.6196 80.1241 6.67273V11.6933H79.1938L79.0494 10.3299C78.5682 11.3083 77.5096 11.8858 76.1943 11.8858ZM76.4509 10.9875C78.087 10.9875 79.0334 9.84866 79.0334 8.16446V7.74742L76.7396 7.92386C75.28 8.05218 74.6865 8.69378 74.6865 9.55994C74.6865 10.5063 75.3923 10.9875 76.4509 10.9875ZM82.9505 11.6933H81.8438V3.92988H82.8062L82.9666 5.27725C83.4798 4.28276 84.5064 3.72136 85.6292 3.72136C87.7625 3.72136 88.6447 4.98852 88.6447 6.94541V11.6933H87.538V7.18601C87.538 5.37349 86.7199 4.73188 85.4367 4.73188C83.8488 4.73188 82.9505 5.88677 82.9505 7.63513V11.6933ZM89.5977 9.51182H90.6564C90.6564 10.4101 91.3301 10.9715 92.4208 10.9715C93.6238 10.9715 94.3296 10.4582 94.3296 9.6241C94.3296 8.9825 94.0088 8.61358 93.0945 8.38902L91.7632 8.05218C90.4158 7.71534 89.7581 7.00957 89.7581 5.95093C89.7581 4.58752 90.897 3.72136 92.5652 3.72136C94.2012 3.72136 95.2599 4.6196 95.308 6.06321H94.2333C94.2012 5.16496 93.5757 4.63564 92.5331 4.63564C91.4424 4.63564 90.8328 5.1008 90.8328 5.93489C90.8328 6.52837 91.2499 6.94541 92.1 7.15393L93.4313 7.49077C94.7787 7.82762 95.3882 8.45318 95.3882 9.57598C95.3882 10.9715 94.2012 11.8858 92.4368 11.8858C90.6885 11.8858 89.5977 10.9554 89.5977 9.51182ZM96.709 15.0777V3.92988H97.6714L97.7837 5.50181C98.3291 4.2988 99.4198 3.72136 100.719 3.72136C102.965 3.72136 104.312 5.43765 104.312 7.7795C104.312 10.1213 103.013 11.8858 100.719 11.8858C99.4037 11.8858 98.3611 11.3244 97.8158 10.2015V15.0777H96.709ZM97.8318 7.81158C97.8318 9.59202 98.8263 10.8913 100.527 10.8913C102.211 10.8913 103.189 9.59202 103.189 7.81158C103.189 6.01509 102.211 4.73188 100.527 4.73188C98.8263 4.73188 97.8318 6.01509 97.8318 7.81158ZM107.804 11.8858C106.152 11.8858 105.174 10.9554 105.174 9.59202C105.174 8.16446 106.265 7.26621 108.077 7.12185L110.644 6.91333V6.65669C110.644 5.13288 109.729 4.65168 108.59 4.65168C107.243 4.65168 106.441 5.2612 106.441 6.30381H105.431C105.431 4.73188 106.714 3.72136 108.623 3.72136C110.419 3.72136 111.734 4.6196 111.734 6.67273V11.6933H110.804L110.66 10.3299C110.178 11.3083 109.12 11.8858 107.804 11.8858ZM108.061 10.9875C109.697 10.9875 110.644 9.84866 110.644 8.16446V7.74742L108.35 7.92386C106.89 8.05218 106.297 8.69378 106.297 9.55994C106.297 10.5063 107.002 10.9875 108.061 10.9875ZM117.512 3.83364V4.82812H116.903C115.475 4.82812 114.561 5.79053 114.561 7.26621V11.6933H113.454V3.92988H114.497L114.577 5.13288C114.882 4.2988 115.7 3.75344 116.79 3.75344C117.031 3.75344 117.239 3.76948 117.512 3.83364ZM121.441 11.8858C119.163 11.8858 117.639 10.2497 117.639 7.81158C117.639 5.38953 119.147 3.72136 121.36 3.72136C123.462 3.72136 124.889 5.21308 124.889 7.41057V7.95594H118.714C118.794 9.84866 119.789 10.9394 121.457 10.9394C122.724 10.9394 123.542 10.394 123.831 9.36746H124.889C124.472 11.0035 123.269 11.8858 121.441 11.8858ZM121.36 4.66772C119.901 4.66772 118.938 5.63013 118.746 7.15393H123.783C123.783 5.66221 122.82 4.66772 121.36 4.66772ZM127.264 11.6933H126.158V3.92988H127.12L127.28 5.27725C127.794 4.28276 128.82 3.72136 129.943 3.72136C132.076 3.72136 132.959 4.98852 132.959 6.94541V11.6933H131.852V7.18601C131.852 5.37349 131.034 4.73188 129.751 4.73188C128.163 4.73188 127.264 5.88677 127.264 7.63513V11.6933ZM136.444 11.6933H135.353V4.8602H133.797V3.92988H135.353V1.47575H136.444V3.92988H138V4.8602H136.444V11.6933Z" fill="url(#paint0_radial_0_905)" fill-opacity="0.2"/>
<defs>
<radialGradient id="paint0_radial_0_905" cx="0" cy="0" r="1" gradientTransform="matrix(88.4026 10.5227 -80.5957 61.8183 15.7047 -0.619443)" gradientUnits="userSpaceOnUse">
<stop stop-color="white"/>
<stop offset="1" stop-color="white" stop-opacity="0"/>
</radialGradient>
</defs>
</svg>
