<svg width="197" height="16" viewBox="0 0 197 16" fill="none" xmlns="http://www.w3.org/2000/svg">
<path d="M-0.000383223 1.2653V0.208164H8.21646V1.2653H4.67665V11.6765H3.52341V1.2653H-0.000383223ZM12.1613 3.82806V4.82113H11.5527C10.1271 4.82113 9.21415 5.78216 9.21415 7.25575V11.6765H8.10897V3.92416H9.15009L9.23017 5.12545C9.5345 4.29256 10.3514 3.74797 11.4405 3.74797C11.6808 3.74797 11.889 3.76399 12.1613 3.82806ZM18.5758 3.92416H19.681V11.6765H18.72L18.5758 10.3631C18.1434 11.2601 17.0702 11.8687 15.8529 11.8687C14.027 11.8687 13.0339 10.6194 13.0339 8.72933V3.90814H14.1551V8.37695C14.1551 10.2189 14.972 10.8756 16.2053 10.8756C17.6949 10.8756 18.5758 9.88257 18.5758 8.04059V3.92416ZM20.6696 9.49816H21.7267C21.7267 10.3951 22.3995 10.9557 23.4886 10.9557C24.6899 10.9557 25.3947 10.4432 25.3947 9.61028C25.3947 8.96959 25.0743 8.60119 24.1614 8.37695L22.8319 8.04059C21.4865 7.70423 20.8298 6.99947 20.8298 5.94233C20.8298 4.58087 21.967 3.71594 23.6328 3.71594C25.2665 3.71594 26.3237 4.6129 26.3717 6.05445H25.2986C25.2665 5.15749 24.6419 4.62892 23.6008 4.62892C22.5116 4.62892 21.9029 5.09342 21.9029 5.92631C21.9029 6.51895 22.3194 6.9354 23.1683 7.14362L24.4977 7.47999C25.8432 7.81635 26.4518 8.44102 26.4518 9.56223C26.4518 10.9557 25.2665 11.8687 23.5047 11.8687C21.7588 11.8687 20.6696 10.9397 20.6696 9.49816ZM29.5487 11.6765H28.4595V4.85316H26.9058V3.92416H28.4595V1.47353H29.5487V3.92416H31.1023V4.85316H29.5487V11.6765ZM35.2142 11.8687C32.9398 11.8687 31.4182 10.235 31.4182 7.80033C31.4182 5.38173 32.9238 3.71594 35.1342 3.71594C37.2324 3.71594 38.658 5.20554 38.658 7.3999V7.94449H32.4913C32.5714 9.83452 33.5645 10.9237 35.2303 10.9237C36.4956 10.9237 37.3125 10.3791 37.6008 9.354H38.658C38.2415 10.9878 37.0402 11.8687 35.2142 11.8687ZM35.1342 4.66095C33.6766 4.66095 32.7156 5.62199 32.5234 7.14362H37.5528C37.5528 5.65402 36.5917 4.66095 35.1342 4.66095ZM42.9677 11.8687C40.7093 11.8687 39.3799 10.1388 39.3799 7.81635C39.3799 5.47783 40.7093 3.71594 43.0158 3.71594C44.2971 3.71594 45.3222 4.27654 45.8668 5.39775V-6.01462e-05H46.972V11.6765H46.011L45.8989 10.0908C45.3543 11.2921 44.2651 11.8687 42.9677 11.8687ZM43.1599 10.8596C44.8577 10.8596 45.8508 9.57824 45.8508 7.78431C45.8508 6.0064 44.8577 4.70901 43.1599 4.70901C41.4781 4.70901 40.5011 6.0064 40.5011 7.78431C40.5011 9.57824 41.4781 10.8596 43.1599 10.8596Z" fill="#FDC24C"/>
<path d="M-0.000383223 1.2653V0.208164H8.21646V1.2653H4.67665V11.6765H3.52341V1.2653H-0.000383223ZM12.1613 3.82806V4.82113H11.5527C10.1271 4.82113 9.21415 5.78216 9.21415 7.25575V11.6765H8.10897V3.92416H9.15009L9.23017 5.12545C9.5345 4.29256 10.3514 3.74797 11.4405 3.74797C11.6808 3.74797 11.889 3.76399 12.1613 3.82806ZM18.5758 3.92416H19.681V11.6765H18.72L18.5758 10.3631C18.1434 11.2601 17.0702 11.8687 15.8529 11.8687C14.027 11.8687 13.0339 10.6194 13.0339 8.72933V3.90814H14.1551V8.37695C14.1551 10.2189 14.972 10.8756 16.2053 10.8756C17.6949 10.8756 18.5758 9.88257 18.5758 8.04059V3.92416ZM20.6696 9.49816H21.7267C21.7267 10.3951 22.3995 10.9557 23.4886 10.9557C24.6899 10.9557 25.3947 10.4432 25.3947 9.61028C25.3947 8.96959 25.0743 8.60119 24.1614 8.37695L22.8319 8.04059C21.4865 7.70423 20.8298 6.99947 20.8298 5.94233C20.8298 4.58087 21.967 3.71594 23.6328 3.71594C25.2665 3.71594 26.3237 4.6129 26.3717 6.05445H25.2986C25.2665 5.15749 24.6419 4.62892 23.6008 4.62892C22.5116 4.62892 21.9029 5.09342 21.9029 5.92631C21.9029 6.51895 22.3194 6.9354 23.1683 7.14362L24.4977 7.47999C25.8432 7.81635 26.4518 8.44102 26.4518 9.56223C26.4518 10.9557 25.2665 11.8687 23.5047 11.8687C21.7588 11.8687 20.6696 10.9397 20.6696 9.49816ZM29.5487 11.6765H28.4595V4.85316H26.9058V3.92416H28.4595V1.47353H29.5487V3.92416H31.1023V4.85316H29.5487V11.6765ZM35.2142 11.8687C32.9398 11.8687 31.4182 10.235 31.4182 7.80033C31.4182 5.38173 32.9238 3.71594 35.1342 3.71594C37.2324 3.71594 38.658 5.20554 38.658 7.3999V7.94449H32.4913C32.5714 9.83452 33.5645 10.9237 35.2303 10.9237C36.4956 10.9237 37.3125 10.3791 37.6008 9.354H38.658C38.2415 10.9878 37.0402 11.8687 35.2142 11.8687ZM35.1342 4.66095C33.6766 4.66095 32.7156 5.62199 32.5234 7.14362H37.5528C37.5528 5.65402 36.5917 4.66095 35.1342 4.66095ZM42.9677 11.8687C40.7093 11.8687 39.3799 10.1388 39.3799 7.81635C39.3799 5.47783 40.7093 3.71594 43.0158 3.71594C44.2971 3.71594 45.3222 4.27654 45.8668 5.39775V-6.01462e-05H46.972V11.6765H46.011L45.8989 10.0908C45.3543 11.2921 44.2651 11.8687 42.9677 11.8687ZM43.1599 10.8596C44.8577 10.8596 45.8508 9.57824 45.8508 7.78431C45.8508 6.0064 44.8577 4.70901 43.1599 4.70901C41.4781 4.70901 40.5011 6.0064 40.5011 7.78431C40.5011 9.57824 41.4781 10.8596 43.1599 10.8596Z" fill="url(#paint0_radial_0_374)" fill-opacity="0.2"/>
<path d="M53.6805 11.6765H52.7195V-6.01462e-05H53.8246V5.42978C54.3692 4.29256 55.4264 3.71594 56.7398 3.71594C58.9982 3.71594 60.3116 5.47783 60.3116 7.81635C60.3116 10.1388 58.9662 11.8687 56.7077 11.8687C55.4103 11.8687 54.3372 11.2921 53.7926 10.0908L53.6805 11.6765ZM53.8407 7.78431C53.8407 9.57824 54.8337 10.8596 56.5316 10.8596C58.2134 10.8596 59.1904 9.57824 59.1904 7.78431C59.1904 6.0064 58.2134 4.70901 56.5316 4.70901C54.8337 4.70901 53.8407 6.0064 53.8407 7.78431ZM60.5376 15.0561V14.1432H61.3865C62.0592 14.1432 62.732 14.0951 63.1164 13.054L63.4527 12.141L60.3134 3.92416H61.4826L63.9813 10.6834L66.432 3.92416H67.5692L64.0134 13.4544C63.5649 14.6717 62.8121 15.1683 61.7069 15.1683C61.2424 15.1683 60.89 15.1362 60.5376 15.0561ZM72.5433 11.6765V0.208164H76.7398C78.9502 0.208164 80.3116 1.32937 80.3116 3.17135C80.3116 4.5168 79.719 5.42978 78.5337 5.89428C79.8632 6.32675 80.5359 7.25575 80.5359 8.66526C80.5359 10.5072 79.1584 11.6765 76.9801 11.6765H72.5433ZM76.7238 1.23327H73.6965V5.42978H76.8679C78.3095 5.42978 79.1264 4.62892 79.1264 3.26745C79.1264 1.98608 78.2614 1.23327 76.7238 1.23327ZM76.9801 6.43887H73.6965V10.6354H76.9801C78.4857 10.6354 79.3666 9.85054 79.3666 8.52111C79.3666 7.22371 78.4697 6.43887 76.9801 6.43887ZM87.3217 3.92416H88.4269V11.6765H87.4658L87.3217 10.3631C86.8892 11.2601 85.8161 11.8687 84.5987 11.8687C82.7728 11.8687 81.7797 10.6194 81.7797 8.72933V3.90814H82.9009V8.37695C82.9009 10.2189 83.7178 10.8756 84.9511 10.8756C86.4407 10.8756 87.3217 9.88257 87.3217 8.04059V3.92416ZM90.7731 1.79387C90.3247 1.79387 89.9563 1.42547 89.9563 0.976991C89.9563 0.528508 90.3247 0.144095 90.7731 0.144095C91.2216 0.144095 91.606 0.528508 91.606 0.976991C91.606 1.42547 91.2216 1.79387 90.7731 1.79387ZM90.2286 11.6765V3.92416H91.3337V11.6765H90.2286ZM94.2912 11.6765H93.186V-6.01462e-05H94.2912V11.6765ZM99.1844 11.8687C96.926 11.8687 95.5966 10.1388 95.5966 7.81635C95.5966 5.47783 96.926 3.71594 99.2325 3.71594C100.514 3.71594 101.539 4.27654 102.084 5.39775V-6.01462e-05H103.189V11.6765H102.228L102.116 10.0908C101.571 11.2921 100.482 11.8687 99.1844 11.8687ZM99.3766 10.8596C101.074 10.8596 102.068 9.57824 102.068 7.78431C102.068 6.0064 101.074 4.70901 99.3766 4.70901C97.6948 4.70901 96.7178 6.0064 96.7178 7.78431C96.7178 9.57824 97.6948 10.8596 99.3766 10.8596ZM108.246 11.8687C105.971 11.8687 104.45 10.235 104.45 7.80033C104.45 5.38173 105.955 3.71594 108.166 3.71594C110.264 3.71594 111.69 5.20554 111.69 7.3999V7.94449H105.523C105.603 9.83452 106.596 10.9237 108.262 10.9237C109.527 10.9237 110.344 10.3791 110.633 9.354H111.69C111.273 10.9878 110.072 11.8687 108.246 11.8687ZM108.166 4.66095C106.708 4.66095 105.747 5.62199 105.555 7.14362H110.584C110.584 5.65402 109.623 4.66095 108.166 4.66095ZM117.008 3.82806V4.82113H116.4C114.974 4.82113 114.061 5.78216 114.061 7.25575V11.6765H112.956V3.92416H113.997L114.077 5.12545C114.382 4.29256 115.199 3.74797 116.288 3.74797C116.528 3.74797 116.736 3.76399 117.008 3.82806ZM129.031 11.6765H122.159V0.208164H129.015V1.2653H123.312V5.39775H128.486V6.43887H123.312V10.6194H129.031V11.6765ZM132.7 11.6765L129.528 3.92416H130.714L132.716 8.92154C132.924 9.48214 133.132 10.0107 133.276 10.5233C133.421 9.99469 133.629 9.48214 133.853 8.92154L135.887 3.92416H137.025L133.805 11.6765H132.7ZM140.734 11.8687C138.46 11.8687 136.938 10.235 136.938 7.80033C136.938 5.38173 138.444 3.71594 140.654 3.71594C142.752 3.71594 144.178 5.20554 144.178 7.3999V7.94449H138.011C138.091 9.83452 139.084 10.9237 140.75 10.9237C142.015 10.9237 142.832 10.3791 143.121 9.354H144.178C143.761 10.9878 142.56 11.8687 140.734 11.8687ZM140.654 4.66095C139.196 4.66095 138.235 5.62199 138.043 7.14362H143.073C143.073 5.65402 142.111 4.66095 140.654 4.66095ZM149.497 3.82806V4.82113H148.888C147.462 4.82113 146.549 5.78216 146.549 7.25575V11.6765H145.444V3.92416H146.485L146.565 5.12545C146.87 4.29256 147.687 3.74797 148.776 3.74797C149.016 3.74797 149.224 3.76399 149.497 3.82806ZM149.915 15.0561V14.1432H150.764C151.437 14.1432 152.109 14.0951 152.494 13.054L152.83 12.141L149.691 3.92416H150.86L153.359 10.6834L155.809 3.92416H156.947L153.391 13.4544C152.942 14.6717 152.189 15.1683 151.084 15.1683C150.62 15.1683 150.267 15.1362 149.915 15.0561ZM159.372 11.6765L156.81 3.92416H157.947L159.469 8.60119C159.645 9.11374 159.789 9.64231 159.949 10.267C160.077 9.64231 160.333 8.85747 160.414 8.60119L161.951 3.92416H163.088L164.61 8.60119C164.754 9.01764 164.946 9.69036 165.091 10.267C165.251 9.6263 165.283 9.43409 165.555 8.60119L167.093 3.92416H168.246L165.619 11.6765H164.546L162.944 6.80726C162.752 6.23064 162.624 5.75013 162.528 5.28563C162.416 5.70207 162.288 6.16657 162.079 6.80726L160.478 11.6765H159.372ZM170.231 11.6605H169.126V-6.01462e-05H170.231V5.26961C170.728 4.34061 171.673 3.71594 172.97 3.71594C175.004 3.71594 175.917 4.9813 175.917 6.9354V11.6765H174.812V7.17566C174.812 5.36571 173.963 4.72502 172.762 4.72502C171.096 4.72502 170.231 5.95835 170.231 7.44795V11.6605ZM180.871 11.8687C178.596 11.8687 177.075 10.235 177.075 7.80033C177.075 5.38173 178.58 3.71594 180.791 3.71594C182.889 3.71594 184.315 5.20554 184.315 7.3999V7.94449H178.148C178.228 9.83452 179.221 10.9237 180.887 10.9237C182.152 10.9237 182.969 10.3791 183.257 9.354H184.315C183.898 10.9878 182.697 11.8687 180.871 11.8687ZM180.791 4.66095C179.333 4.66095 178.372 5.62199 178.18 7.14362H183.209C183.209 5.65402 182.248 4.66095 180.791 4.66095ZM189.633 3.82806V4.82113H189.025C187.599 4.82113 186.686 5.78216 186.686 7.25575V11.6765H185.581V3.92416H186.622L186.702 5.12545C187.007 4.29256 187.824 3.74797 188.913 3.74797C189.153 3.74797 189.361 3.76399 189.633 3.82806ZM193.556 11.8687C191.282 11.8687 189.76 10.235 189.76 7.80033C189.76 5.38173 191.266 3.71594 193.476 3.71594C195.575 3.71594 197 5.20554 197 7.3999V7.94449H190.834C190.914 9.83452 191.907 10.9237 193.572 10.9237C194.838 10.9237 195.655 10.3791 195.943 9.354H197C196.584 10.9878 195.382 11.8687 193.556 11.8687ZM193.476 4.66095C192.019 4.66095 191.058 5.62199 190.866 7.14362H195.895C195.895 5.65402 194.934 4.66095 193.476 4.66095Z" fill="#101010"/>
<defs>
<radialGradient id="paint0_radial_0_374" cx="0" cy="0" r="1" gradientTransform="matrix(125.747 10.5078 -114.642 61.7303 23.0974 -0.618683)" gradientUnits="userSpaceOnUse">
<stop stop-color="white"/>
<stop offset="1" stop-color="white" stop-opacity="0"/>
</radialGradient>
</defs>
</svg>
