<svg width="90" height="16" viewBox="0 0 90 16" fill="none" xmlns="http://www.w3.org/2000/svg">
<path d="M1.15513 0.208555V10.6332H6.43161V11.6917H0.000399462V0.208555H1.15513ZM9.64785 11.8842C7.99594 11.8842 7.01762 10.954 7.01762 9.59075C7.01762 8.16337 8.1082 7.26525 9.92049 7.12091L12.4866 6.91241V6.65581C12.4866 5.1322 11.5724 4.65106 10.4337 4.65106C9.08652 4.65106 8.28462 5.26051 8.28462 6.30297H7.27423C7.27423 4.73125 8.55727 3.72086 10.4658 3.72086C12.262 3.72086 13.5771 4.61899 13.5771 6.67184V11.6917H12.6469L12.5026 10.3285C12.0215 11.3068 10.963 11.8842 9.64785 11.8842ZM9.90445 10.986C11.5403 10.986 12.4866 9.84736 12.4866 8.16337V7.74639L10.1931 7.9228C8.73368 8.05111 8.14028 8.69262 8.14028 9.55867C8.14028 10.5049 8.84595 10.986 9.90445 10.986ZM16.9358 11.6917H15.8453V4.85956H14.2896V3.92936H15.8453V1.47555H16.9358V3.92936H18.4915V4.85956H16.9358V11.6917ZM22.6088 11.8842C20.3314 11.8842 18.8078 10.2483 18.8078 7.81054C18.8078 5.38881 20.3153 3.72086 22.5286 3.72086C24.6295 3.72086 26.0569 5.21239 26.0569 7.40959V7.95488H19.8823C19.9625 9.84736 20.9568 10.9379 22.6248 10.9379C23.8918 10.9379 24.7097 10.3926 24.9984 9.36622H26.0569C25.6399 11.0021 24.4371 11.8842 22.6088 11.8842ZM22.5286 4.6671C21.0691 4.6671 20.1068 5.62938 19.9144 7.15298H24.9503C24.9503 5.66145 23.988 4.6671 22.5286 4.6671ZM26.6675 9.51056H27.726C27.726 10.4087 28.3996 10.97 29.4902 10.97C30.693 10.97 31.3987 10.4568 31.3987 9.62282C31.3987 8.98131 31.0779 8.61243 30.1637 8.3879L28.8326 8.05111C27.4854 7.71431 26.8279 7.00864 26.8279 5.95014C26.8279 4.58691 27.9666 3.72086 29.6345 3.72086C31.2704 3.72086 32.3289 4.61899 32.377 6.0624H31.3024C31.2704 5.16428 30.6449 4.63503 29.6024 4.63503C28.5118 4.63503 27.9024 5.10013 27.9024 5.9341C27.9024 6.5275 28.3194 6.94449 29.1694 7.15298L30.5005 7.48978C31.8477 7.82658 32.4572 8.45206 32.4572 9.57471C32.4572 10.97 31.2704 11.8842 29.5062 11.8842C27.7581 11.8842 26.6675 10.954 26.6675 9.51056ZM35.558 11.6917H34.4674V4.85956H32.9117V3.92936H34.4674V1.47555H35.558V3.92936H37.1137V4.85956H35.558V11.6917Z" fill="#101010"/>
<path d="M43.3957 0.208555V11.6917H42.2409V0.208555H43.3957ZM46.5526 11.6917H45.446V3.92936H46.4083L46.5687 5.27654C47.0819 4.28219 48.1083 3.72086 49.231 3.72086C51.364 3.72086 52.2461 4.98786 52.2461 6.94449V11.6917H51.1395V7.18506C51.1395 5.37277 50.3216 4.73125 49.0385 4.73125C47.4508 4.73125 46.5526 5.88599 46.5526 7.63412V11.6917ZM53.199 9.51056H54.2575C54.2575 10.4087 54.9311 10.97 56.0217 10.97C57.2245 10.97 57.9302 10.4568 57.9302 9.62282C57.9302 8.98131 57.6094 8.61243 56.6953 8.3879L55.3641 8.05111C54.0169 7.71431 53.3594 7.00864 53.3594 5.95014C53.3594 4.58691 54.4981 3.72086 56.166 3.72086C57.8019 3.72086 58.8604 4.61899 58.9085 6.0624H57.834C57.8019 5.16428 57.1764 4.63503 56.1339 4.63503C55.0434 4.63503 54.4339 5.10013 54.4339 5.9341C54.4339 6.5275 54.8509 6.94449 55.7009 7.15298L57.0321 7.48978C58.3792 7.82658 58.9887 8.45206 58.9887 9.57471C58.9887 10.97 57.8019 11.8842 56.0377 11.8842C54.2896 11.8842 53.199 10.954 53.199 9.51056ZM60.8546 1.79631C60.4055 1.79631 60.0367 1.42744 60.0367 0.978376C60.0367 0.529314 60.4055 0.144404 60.8546 0.144404C61.3037 0.144404 61.6886 0.529314 61.6886 0.978376C61.6886 1.42744 61.3037 1.79631 60.8546 1.79631ZM60.3093 11.6917V3.92936H61.4159V11.6917H60.3093ZM62.6932 7.58601C62.6932 5.469 64.0564 3.72086 66.3338 3.72086C67.681 3.72086 68.7074 4.34634 69.2046 5.48504L69.3169 3.92936H70.2791V11.4511C70.2791 13.7606 68.8037 15.2682 66.5263 15.2682C64.5376 15.2682 63.1423 14.1455 62.8375 12.2691H63.9442C64.1847 13.52 65.147 14.2578 66.5423 14.2578C68.1301 14.2578 69.1886 13.1832 69.1886 11.5634V9.71905C68.6593 10.8096 67.5848 11.4511 66.2536 11.4511C64.0404 11.4511 62.6932 9.70301 62.6932 7.58601ZM63.7998 7.56997C63.7998 9.15772 64.7781 10.4568 66.414 10.4568C68.098 10.4568 69.0923 9.23791 69.0923 7.56997C69.0923 5.91806 68.1301 4.69918 66.43 4.69918C64.7621 4.69918 63.7998 5.99825 63.7998 7.56997ZM73.1938 11.6757H72.0872V6.21358e-05H73.1938V5.27654C73.691 4.34634 74.6372 3.72086 75.9363 3.72086C77.9731 3.72086 78.8873 4.98786 78.8873 6.94449V11.6917H77.7806V7.18506C77.7806 5.37277 76.9306 4.73125 75.7278 4.73125C74.0598 4.73125 73.1938 5.96617 73.1938 7.4577V11.6757ZM82.3719 11.6917H81.2813V4.85956H79.7256V3.92936H81.2813V1.47555H82.3719V3.92936H83.9275V4.85956H82.3719V11.6917ZM84.2098 9.51056H85.2683C85.2683 10.4087 85.9419 10.97 87.0325 10.97C88.2354 10.97 88.941 10.4568 88.941 9.62282C88.941 8.98131 88.6203 8.61243 87.7061 8.3879L86.375 8.05111C85.0278 7.71431 84.3702 7.00864 84.3702 5.95014C84.3702 4.58691 85.5089 3.72086 87.1769 3.72086C88.8127 3.72086 89.8712 4.61899 89.9193 6.0624H88.8448C88.8127 5.16428 88.1873 4.63503 87.1448 4.63503C86.0542 4.63503 85.4448 5.10013 85.4448 5.9341C85.4448 6.5275 85.8618 6.94449 86.7118 7.15298L88.0429 7.48978C89.3901 7.82658 89.9995 8.45206 89.9995 9.57471C89.9995 10.97 88.8127 11.8842 87.0486 11.8842C85.3004 11.8842 84.2098 10.954 84.2098 9.51056Z" fill="#FDC24C"/>
<path d="M43.3957 0.208555V11.6917H42.2409V0.208555H43.3957ZM46.5526 11.6917H45.446V3.92936H46.4083L46.5687 5.27654C47.0819 4.28219 48.1083 3.72086 49.231 3.72086C51.364 3.72086 52.2461 4.98786 52.2461 6.94449V11.6917H51.1395V7.18506C51.1395 5.37277 50.3216 4.73125 49.0385 4.73125C47.4508 4.73125 46.5526 5.88599 46.5526 7.63412V11.6917ZM53.199 9.51056H54.2575C54.2575 10.4087 54.9311 10.97 56.0217 10.97C57.2245 10.97 57.9302 10.4568 57.9302 9.62282C57.9302 8.98131 57.6094 8.61243 56.6953 8.3879L55.3641 8.05111C54.0169 7.71431 53.3594 7.00864 53.3594 5.95014C53.3594 4.58691 54.4981 3.72086 56.166 3.72086C57.8019 3.72086 58.8604 4.61899 58.9085 6.0624H57.834C57.8019 5.16428 57.1764 4.63503 56.1339 4.63503C55.0434 4.63503 54.4339 5.10013 54.4339 5.9341C54.4339 6.5275 54.8509 6.94449 55.7009 7.15298L57.0321 7.48978C58.3792 7.82658 58.9887 8.45206 58.9887 9.57471C58.9887 10.97 57.8019 11.8842 56.0377 11.8842C54.2896 11.8842 53.199 10.954 53.199 9.51056ZM60.8546 1.79631C60.4055 1.79631 60.0367 1.42744 60.0367 0.978376C60.0367 0.529314 60.4055 0.144404 60.8546 0.144404C61.3037 0.144404 61.6886 0.529314 61.6886 0.978376C61.6886 1.42744 61.3037 1.79631 60.8546 1.79631ZM60.3093 11.6917V3.92936H61.4159V11.6917H60.3093ZM62.6932 7.58601C62.6932 5.469 64.0564 3.72086 66.3338 3.72086C67.681 3.72086 68.7074 4.34634 69.2046 5.48504L69.3169 3.92936H70.2791V11.4511C70.2791 13.7606 68.8037 15.2682 66.5263 15.2682C64.5376 15.2682 63.1423 14.1455 62.8375 12.2691H63.9442C64.1847 13.52 65.147 14.2578 66.5423 14.2578C68.1301 14.2578 69.1886 13.1832 69.1886 11.5634V9.71905C68.6593 10.8096 67.5848 11.4511 66.2536 11.4511C64.0404 11.4511 62.6932 9.70301 62.6932 7.58601ZM63.7998 7.56997C63.7998 9.15772 64.7781 10.4568 66.414 10.4568C68.098 10.4568 69.0923 9.23791 69.0923 7.56997C69.0923 5.91806 68.1301 4.69918 66.43 4.69918C64.7621 4.69918 63.7998 5.99825 63.7998 7.56997ZM73.1938 11.6757H72.0872V6.21358e-05H73.1938V5.27654C73.691 4.34634 74.6372 3.72086 75.9363 3.72086C77.9731 3.72086 78.8873 4.98786 78.8873 6.94449V11.6917H77.7806V7.18506C77.7806 5.37277 76.9306 4.73125 75.7278 4.73125C74.0598 4.73125 73.1938 5.96617 73.1938 7.4577V11.6757ZM82.3719 11.6917H81.2813V4.85956H79.7256V3.92936H81.2813V1.47555H82.3719V3.92936H83.9275V4.85956H82.3719V11.6917ZM84.2098 9.51056H85.2683C85.2683 10.4087 85.9419 10.97 87.0325 10.97C88.2354 10.97 88.941 10.4568 88.941 9.62282C88.941 8.98131 88.6203 8.61243 87.7061 8.3879L86.375 8.05111C85.0278 7.71431 84.3702 7.00864 84.3702 5.95014C84.3702 4.58691 85.5089 3.72086 87.1769 3.72086C88.8127 3.72086 89.8712 4.61899 89.9193 6.0624H88.8448C88.8127 5.16428 88.1873 4.63503 87.1448 4.63503C86.0542 4.63503 85.4448 5.10013 85.4448 5.9341C85.4448 6.5275 85.8618 6.94449 86.7118 7.15298L88.0429 7.48978C89.3901 7.82658 89.9995 8.45206 89.9995 9.57471C89.9995 10.97 88.8127 11.8842 87.0486 11.8842C85.3004 11.8842 84.2098 10.954 84.2098 9.51056Z" fill="url(#paint0_radial_24829_24924)" fill-opacity="0.2"/>
<defs>
<radialGradient id="paint0_radial_24829_24924" cx="0" cy="0" r="1" gradientTransform="matrix(58.5033 10.5213 -53.3368 61.8101 9.45701 -0.619361)" gradientUnits="userSpaceOnUse">
<stop stop-color="white"/>
<stop offset="1" stop-color="white" stop-opacity="0"/>
</radialGradient>
</defs>
</svg>
