<svg width="82" height="12" viewBox="0 0 82 12" fill="none" xmlns="http://www.w3.org/2000/svg">
<path d="M1.14103 11.7116H0.000400142V0.208849H1.14103L5.33406 10.346L9.52709 0.208849H10.6838V11.7116H9.54315V6.24938C9.54315 4.24122 9.57528 3.35764 9.63955 2.57044L5.89634 11.7116H4.78784L1.04464 2.61864C1.1089 3.0524 1.14103 4.32155 1.14103 6.07266V11.7116ZM15.9952 11.9043C13.714 11.9043 12.1878 10.2657 12.1878 7.82377C12.1878 5.39792 13.6979 3.72714 15.9149 3.72714C18.0195 3.72714 19.4493 5.2212 19.4493 7.42214V7.96836H13.2641C13.3445 9.86406 14.3405 10.9565 16.0113 10.9565C17.2805 10.9565 18.0998 10.4103 18.389 9.3821H19.4493C19.0316 11.0208 17.8267 11.9043 15.9952 11.9043ZM15.9149 4.67499C14.453 4.67499 13.4891 5.6389 13.2963 7.1651H18.3408C18.3408 5.67103 17.3768 4.67499 15.9149 4.67499ZM23.9808 11.9043C21.6995 11.9043 20.1733 10.2657 20.1733 7.82377C20.1733 5.39792 21.6835 3.72714 23.9005 3.72714C26.005 3.72714 27.4348 5.2212 27.4348 7.42214V7.96836H21.2497C21.33 9.86406 22.3261 10.9565 23.9969 10.9565C25.266 10.9565 26.0853 10.4103 26.3745 9.3821H27.4348C27.0171 11.0208 25.8122 11.9043 23.9808 11.9043ZM23.9005 4.67499C22.4385 4.67499 21.4746 5.6389 21.2818 7.1651H26.3263C26.3263 5.67103 25.3624 4.67499 23.9005 4.67499ZM30.4099 11.7116H29.3175V4.86777H27.7591V3.93599H29.3175V1.478H30.4099V3.93599H31.9682V4.86777H30.4099V11.7116Z" fill="#101010"/>
<path d="M36.4134 3.19698C36.4134 1.26916 37.9557 9.57563e-07 40.2691 9.57563e-07C42.3415 9.57563e-07 43.707 1.1567 43.8837 3.08453H42.711C42.5825 1.78324 41.6989 1.04424 40.253 1.04424C38.6304 1.04424 37.5701 1.87963 37.5701 3.18092C37.5701 4.19303 38.1645 4.83564 39.3694 5.14088L41.3454 5.62284C43.1447 6.0566 44.0765 7.08477 44.0765 8.6431C44.0765 10.6352 42.5343 11.9043 40.1566 11.9043C37.9235 11.9043 36.4134 10.7316 36.2688 8.85195H37.4576C37.5219 10.0568 38.5822 10.844 40.1566 10.844C41.8435 10.844 42.9198 10.0247 42.9198 8.70736C42.9198 7.67919 42.3415 7.00445 41.1045 6.71527L39.1606 6.23332C37.3613 5.79955 36.4134 4.77138 36.4134 3.19698ZM44.8674 7.82377C44.8674 5.44612 46.5381 3.72714 48.8194 3.72714C51.1007 3.72714 52.7715 5.44612 52.7715 7.82377C52.7715 10.1854 51.1007 11.9043 48.8194 11.9043C46.5381 11.9043 44.8674 10.1854 44.8674 7.82377ZM45.9919 7.80771C45.9919 9.63915 47.1486 10.9083 48.8194 10.9083C50.4741 10.9083 51.6469 9.63915 51.6469 7.80771C51.6469 6.0084 50.4741 4.72318 48.8194 4.72318C47.1486 4.72318 45.9919 6.0084 45.9919 7.80771ZM58.1069 3.83959V4.83564H57.4964C56.0666 4.83564 55.1509 5.79955 55.1509 7.27756V11.7116H54.0424V3.93599H55.0866L55.1669 5.14088C55.4722 4.30549 56.2915 3.75927 57.3839 3.75927C57.6249 3.75927 57.8338 3.77533 58.1069 3.83959ZM62.0416 11.9043C59.7603 11.9043 58.2341 10.2657 58.2341 7.82377C58.2341 5.39792 59.7443 3.72714 61.9613 3.72714C64.0658 3.72714 65.4956 5.2212 65.4956 7.42214V7.96836H59.3105C59.3908 9.86406 60.3869 10.9565 62.0577 10.9565C63.3268 10.9565 64.1462 10.4103 64.4353 9.3821H65.4956C65.0779 11.0208 63.873 11.9043 62.0416 11.9043ZM61.9613 4.67499C60.4993 4.67499 59.5354 5.6389 59.3426 7.1651H64.3871C64.3871 5.67103 63.4232 4.67499 61.9613 4.67499ZM67.8744 11.7116H66.7659V3.93599H67.7298L67.8905 5.28547C68.4046 4.28942 69.4327 3.72714 70.5573 3.72714C72.694 3.72714 73.5776 4.99629 73.5776 6.95625V11.7116H72.4691V7.19723C72.4691 5.38186 71.6497 4.73925 70.3645 4.73925C68.7741 4.73925 67.8744 5.89595 67.8744 7.64706V11.7116ZM78.5461 11.9043C76.2649 11.9043 74.7387 10.2657 74.7387 7.82377C74.7387 5.39792 76.2488 3.72714 78.4658 3.72714C80.5704 3.72714 82.0002 5.2212 82.0002 7.42214V7.96836H75.815C75.8954 9.86406 76.8914 10.9565 78.5622 10.9565C79.8313 10.9565 80.6507 10.4103 80.9399 9.3821H82.0002C81.5825 11.0208 80.3776 11.9043 78.5461 11.9043ZM78.4658 4.67499C77.0039 4.67499 76.04 5.6389 75.8472 7.1651H80.8917C80.8917 5.67103 79.9277 4.67499 78.4658 4.67499Z" fill="#FDC24C"/>
<path d="M36.4134 3.19698C36.4134 1.26916 37.9557 9.57563e-07 40.2691 9.57563e-07C42.3415 9.57563e-07 43.707 1.1567 43.8837 3.08453H42.711C42.5825 1.78324 41.6989 1.04424 40.253 1.04424C38.6304 1.04424 37.5701 1.87963 37.5701 3.18092C37.5701 4.19303 38.1645 4.83564 39.3694 5.14088L41.3454 5.62284C43.1447 6.0566 44.0765 7.08477 44.0765 8.6431C44.0765 10.6352 42.5343 11.9043 40.1566 11.9043C37.9235 11.9043 36.4134 10.7316 36.2688 8.85195H37.4576C37.5219 10.0568 38.5822 10.844 40.1566 10.844C41.8435 10.844 42.9198 10.0247 42.9198 8.70736C42.9198 7.67919 42.3415 7.00445 41.1045 6.71527L39.1606 6.23332C37.3613 5.79955 36.4134 4.77138 36.4134 3.19698ZM44.8674 7.82377C44.8674 5.44612 46.5381 3.72714 48.8194 3.72714C51.1007 3.72714 52.7715 5.44612 52.7715 7.82377C52.7715 10.1854 51.1007 11.9043 48.8194 11.9043C46.5381 11.9043 44.8674 10.1854 44.8674 7.82377ZM45.9919 7.80771C45.9919 9.63915 47.1486 10.9083 48.8194 10.9083C50.4741 10.9083 51.6469 9.63915 51.6469 7.80771C51.6469 6.0084 50.4741 4.72318 48.8194 4.72318C47.1486 4.72318 45.9919 6.0084 45.9919 7.80771ZM58.1069 3.83959V4.83564H57.4964C56.0666 4.83564 55.1509 5.79955 55.1509 7.27756V11.7116H54.0424V3.93599H55.0866L55.1669 5.14088C55.4722 4.30549 56.2915 3.75927 57.3839 3.75927C57.6249 3.75927 57.8338 3.77533 58.1069 3.83959ZM62.0416 11.9043C59.7603 11.9043 58.2341 10.2657 58.2341 7.82377C58.2341 5.39792 59.7443 3.72714 61.9613 3.72714C64.0658 3.72714 65.4956 5.2212 65.4956 7.42214V7.96836H59.3105C59.3908 9.86406 60.3869 10.9565 62.0577 10.9565C63.3268 10.9565 64.1462 10.4103 64.4353 9.3821H65.4956C65.0779 11.0208 63.873 11.9043 62.0416 11.9043ZM61.9613 4.67499C60.4993 4.67499 59.5354 5.6389 59.3426 7.1651H64.3871C64.3871 5.67103 63.4232 4.67499 61.9613 4.67499ZM67.8744 11.7116H66.7659V3.93599H67.7298L67.8905 5.28547C68.4046 4.28942 69.4327 3.72714 70.5573 3.72714C72.694 3.72714 73.5776 4.99629 73.5776 6.95625V11.7116H72.4691V7.19723C72.4691 5.38186 71.6497 4.73925 70.3645 4.73925C68.7741 4.73925 67.8744 5.89595 67.8744 7.64706V11.7116ZM78.5461 11.9043C76.2649 11.9043 74.7387 10.2657 74.7387 7.82377C74.7387 5.39792 76.2488 3.72714 78.4658 3.72714C80.5704 3.72714 82.0002 5.2212 82.0002 7.42214V7.96836H75.815C75.8954 9.86406 76.8914 10.9565 78.5622 10.9565C79.8313 10.9565 80.6507 10.4103 80.9399 9.3821H82.0002C81.5825 11.0208 80.3776 11.9043 78.5461 11.9043ZM78.4658 4.67499C77.0039 4.67499 76.04 5.6389 75.8472 7.1651H80.8917C80.8917 5.67103 79.9277 4.67499 78.4658 4.67499Z" fill="url(#paint0_radial_0_552)" fill-opacity="0.2"/>
<defs>
<radialGradient id="paint0_radial_0_552" cx="0" cy="0" r="1" gradientTransform="matrix(53.507 10.5393 -48.7818 61.9153 8.43475 -0.620477)" gradientUnits="userSpaceOnUse">
<stop stop-color="white"/>
<stop offset="1" stop-color="white" stop-opacity="0"/>
</radialGradient>
</defs>
</svg>
