<svg width="96" height="12" viewBox="0 0 96 12" fill="none" xmlns="http://www.w3.org/2000/svg">
<path d="M0.144687 3.18974C0.144687 1.26632 1.68343 6.20994e-05 3.99154 6.20994e-05C6.05922 6.20994e-05 7.42164 1.15412 7.59796 3.07754H6.42787C6.29964 1.77923 5.41808 1.04192 3.97551 1.04192C2.35663 1.04192 1.29874 1.8754 1.29874 3.17371C1.29874 4.18351 1.8918 4.82465 3.09394 5.12919L5.06545 5.61005C6.86064 6.04282 7.7903 7.06865 7.7903 8.62341C7.7903 10.611 6.25156 11.8772 3.87934 11.8772C1.65137 11.8772 0.144687 10.7071 0.000430456 8.83178H1.18654C1.25066 10.0339 2.30854 10.8193 3.87934 10.8193C5.56233 10.8193 6.63624 10.0019 6.63624 8.68753C6.63624 7.6617 6.05922 6.9885 4.82502 6.69999L2.88557 6.21913C1.09037 5.78636 0.144687 4.76054 0.144687 3.18974ZM12.3781 11.8772C10.102 11.8772 8.57933 10.2423 8.57933 7.80596C8.57933 5.38565 10.086 3.71868 12.2979 3.71868C14.3977 3.71868 15.8242 5.20934 15.8242 7.40524V7.95022H9.65324C9.73338 9.84158 10.7272 10.9315 12.3941 10.9315C13.6604 10.9315 14.4778 10.3866 14.7663 9.36073H15.8242C15.4075 10.9956 14.2053 11.8772 12.3781 11.8772ZM12.2979 4.66437C10.8394 4.66437 9.87764 5.62608 9.6853 7.14879H14.7183C14.7183 5.65813 13.7565 4.66437 12.2979 4.66437ZM20.3454 11.8772C18.0693 11.8772 16.5466 10.2423 16.5466 7.80596C16.5466 5.38565 18.0533 3.71868 20.2653 3.71868C22.365 3.71868 23.7915 5.20934 23.7915 7.40524V7.95022H17.6205C17.7007 9.84158 18.6945 10.9315 20.3614 10.9315C21.6277 10.9315 22.4451 10.3866 22.7337 9.36073H23.7915C23.3748 10.9956 22.1727 11.8772 20.3454 11.8772ZM20.2653 4.66437C18.8067 4.66437 17.8449 5.62608 17.6526 7.14879H22.6856C22.6856 5.65813 21.7239 4.66437 20.2653 4.66437ZM30.3979 0.208433V11.6849H29.2439V0.208433H30.3979ZM34.2262 11.6849H33.1363V4.85671H31.5815V3.92705H33.1363V1.47469H34.2262V3.92705H35.781V4.85671H34.2262V11.6849ZM41.2098 1.79526C40.761 1.79526 40.3923 1.4266 40.3923 0.977802C40.3923 0.529004 40.761 0.144319 41.2098 0.144319C41.6586 0.144319 42.0433 0.529004 42.0433 0.977802C42.0433 1.4266 41.6586 1.79526 41.2098 1.79526ZM40.6648 11.6849V3.92705H41.7708V11.6849H40.6648ZM44.6822 11.6849H43.5763V3.92705H44.538L44.6983 5.27345C45.2112 4.27968 46.237 3.71868 47.359 3.71868C49.4908 3.71868 50.3724 4.98494 50.3724 6.94042V11.6849H49.2664V7.18085C49.2664 5.36962 48.4489 4.72848 47.1666 4.72848C45.5798 4.72848 44.6822 5.88253 44.6822 7.62964V11.6849Z" fill="#101010"/>
<path d="M56.2607 11.6849H55.0906L59.3061 0.208433H60.7327L64.9963 11.6849H63.7941L62.6721 8.63944H57.3827L56.2607 11.6849ZM59.8671 1.82732L57.7353 7.62964H62.3035L60.1556 1.82732C60.1076 1.66703 60.0274 1.47469 60.0114 1.36249C59.9954 1.45866 59.9312 1.66703 59.8671 1.82732ZM65.0392 7.82199C65.0392 5.38565 66.5299 3.71868 68.7899 3.71868C70.5851 3.71868 71.8994 4.76054 72.204 6.36339H71.098C70.8095 5.28948 69.8798 4.69642 68.8059 4.69642C67.2351 4.69642 66.1292 5.89856 66.1292 7.80596C66.1292 9.64924 67.155 10.8834 68.7258 10.8834C69.8798 10.8834 70.8095 10.2423 71.114 9.24853H72.236C71.8674 10.8354 70.4889 11.8772 68.7258 11.8772C66.5299 11.8772 65.0392 10.2583 65.0392 7.82199ZM75.1898 11.6849H74.0998V4.85671H72.5451V3.92705H74.0998V1.47469H75.1898V3.92705H76.7445V4.85671H75.1898V11.6849ZM78.2288 1.79526C77.78 1.79526 77.4114 1.4266 77.4114 0.977802C77.4114 0.529004 77.78 0.144319 78.2288 0.144319C78.6776 0.144319 79.0623 0.529004 79.0623 0.977802C79.0623 1.4266 78.6776 1.79526 78.2288 1.79526ZM77.6838 11.6849V3.92705H78.7898V11.6849H77.6838ZM80.0503 7.80596C80.0503 5.43374 81.7173 3.71868 83.9933 3.71868C86.2694 3.71868 87.9363 5.43374 87.9363 7.80596C87.9363 10.1622 86.2694 11.8772 83.9933 11.8772C81.7173 11.8772 80.0503 10.1622 80.0503 7.80596ZM81.1723 7.78993C81.1723 9.61718 82.3264 10.8834 83.9933 10.8834C85.6443 10.8834 86.8144 9.61718 86.8144 7.78993C86.8144 5.99473 85.6443 4.71245 83.9933 4.71245C82.3264 4.71245 81.1723 5.99473 81.1723 7.78993ZM90.3103 11.6849H89.2044V3.92705H90.1661L90.3264 5.27345C90.8393 4.27968 91.8651 3.71868 92.9871 3.71868C95.1189 3.71868 96.0005 4.98494 96.0005 6.94042V11.6849H94.8945V7.18085C94.8945 5.36962 94.077 4.72848 92.7947 4.72848C91.2079 4.72848 90.3103 5.88253 90.3103 7.62964V11.6849Z" fill="#FDC24C"/>
<path d="M56.2607 11.6849H55.0906L59.3061 0.208433H60.7327L64.9963 11.6849H63.7941L62.6721 8.63944H57.3827L56.2607 11.6849ZM59.8671 1.82732L57.7353 7.62964H62.3035L60.1556 1.82732C60.1076 1.66703 60.0274 1.47469 60.0114 1.36249C59.9954 1.45866 59.9312 1.66703 59.8671 1.82732ZM65.0392 7.82199C65.0392 5.38565 66.5299 3.71868 68.7899 3.71868C70.5851 3.71868 71.8994 4.76054 72.204 6.36339H71.098C70.8095 5.28948 69.8798 4.69642 68.8059 4.69642C67.2351 4.69642 66.1292 5.89856 66.1292 7.80596C66.1292 9.64924 67.155 10.8834 68.7258 10.8834C69.8798 10.8834 70.8095 10.2423 71.114 9.24853H72.236C71.8674 10.8354 70.4889 11.8772 68.7258 11.8772C66.5299 11.8772 65.0392 10.2583 65.0392 7.82199ZM75.1898 11.6849H74.0998V4.85671H72.5451V3.92705H74.0998V1.47469H75.1898V3.92705H76.7445V4.85671H75.1898V11.6849ZM78.2288 1.79526C77.78 1.79526 77.4114 1.4266 77.4114 0.977802C77.4114 0.529004 77.78 0.144319 78.2288 0.144319C78.6776 0.144319 79.0623 0.529004 79.0623 0.977802C79.0623 1.4266 78.6776 1.79526 78.2288 1.79526ZM77.6838 11.6849V3.92705H78.7898V11.6849H77.6838ZM80.0503 7.80596C80.0503 5.43374 81.7173 3.71868 83.9933 3.71868C86.2694 3.71868 87.9363 5.43374 87.9363 7.80596C87.9363 10.1622 86.2694 11.8772 83.9933 11.8772C81.7173 11.8772 80.0503 10.1622 80.0503 7.80596ZM81.1723 7.78993C81.1723 9.61718 82.3264 10.8834 83.9933 10.8834C85.6443 10.8834 86.8144 9.61718 86.8144 7.78993C86.8144 5.99473 85.6443 4.71245 83.9933 4.71245C82.3264 4.71245 81.1723 5.99473 81.1723 7.78993ZM90.3103 11.6849H89.2044V3.92705H90.1661L90.3264 5.27345C90.8393 4.27968 91.8651 3.71868 92.9871 3.71868C95.1189 3.71868 96.0005 4.98494 96.0005 6.94042V11.6849H94.8945V7.18085C94.8945 5.36962 94.077 4.72848 92.7947 4.72848C91.2079 4.72848 90.3103 5.88253 90.3103 7.62964V11.6849Z" fill="url(#paint0_radial_0_62)" fill-opacity="0.2"/>
<defs>
<radialGradient id="paint0_radial_0_62" cx="0" cy="0" r="1" gradientTransform="matrix(62.2822 10.5152 -56.782 61.7739 10.7939 -0.618998)" gradientUnits="userSpaceOnUse">
<stop stop-color="white"/>
<stop offset="1" stop-color="white" stop-opacity="0"/>
</radialGradient>
</defs>
</svg>
