<svg width="189" height="12" viewBox="0 0 189 12" fill="none" xmlns="http://www.w3.org/2000/svg">
<path d="M3.89735 6.89688L-0.000156621 0.208571H1.29901L4.13794 5.16466C4.26625 5.40524 4.36248 5.59771 4.47476 5.85434C4.61911 5.56564 4.61911 5.56564 4.82762 5.16466L7.63446 0.208571H8.90155L5.05217 6.89688V11.6926H3.89735V6.89688ZM7.66967 7.81111C7.66967 5.43732 9.33774 3.72114 11.6153 3.72114C13.8929 3.72114 15.5609 5.43732 15.5609 7.81111C15.5609 10.1689 13.8929 11.885 11.6153 11.885C9.33774 11.885 7.66967 10.1689 7.66967 7.81111ZM8.79241 7.79507C8.79241 9.62353 9.94723 10.8906 11.6153 10.8906C13.2673 10.8906 14.4382 9.62353 14.4382 7.79507C14.4382 5.99869 13.2673 4.71556 11.6153 4.71556C9.94723 4.71556 8.79241 5.99869 8.79241 7.79507ZM22.0951 3.92965H23.2018V11.6926H22.2395L22.0951 10.3774C21.662 11.2756 20.5874 11.885 19.3685 11.885C17.54 11.885 16.5456 10.634 16.5456 8.74138V3.91361H17.6683V8.38852C17.6683 10.233 18.4863 10.8906 19.7213 10.8906C21.213 10.8906 22.0951 9.8962 22.0951 8.0517V3.92965ZM29.0639 3.83341V4.82784H28.4544C27.0269 4.82784 26.1127 5.79018 26.1127 7.26578V11.6926H25.006V3.92965H26.0485L26.1287 5.13258C26.4334 4.29855 27.2514 3.75322 28.3421 3.75322C28.5827 3.75322 28.7912 3.76925 29.0639 3.83341ZM37.3813 11.6926L32.9865 0.208571H34.2216L37.285 8.19605C37.5256 8.82158 37.7502 9.4471 38.0068 10.2491C38.2474 9.41502 38.5361 8.61307 38.7125 8.18001L41.7599 0.208571H42.9468L38.5842 11.6926H37.3813ZM44.3001 1.79644C43.851 1.79644 43.4821 1.42754 43.4821 0.978448C43.4821 0.529353 43.851 0.144414 44.3001 0.144414C44.7492 0.144414 45.1342 0.529353 45.1342 0.978448C45.1342 1.42754 44.7492 1.79644 44.3001 1.79644ZM43.7548 11.6926V3.92965H44.8615V11.6926H43.7548ZM46.0106 9.51126H47.0691C47.0691 10.4094 47.7428 10.9708 48.8334 10.9708C50.0364 10.9708 50.7421 10.4576 50.7421 9.62353C50.7421 8.98197 50.4213 8.61307 49.5071 8.38852L48.1758 8.0517C46.8286 7.71488 46.1709 7.00916 46.1709 5.95057C46.1709 4.58725 47.3097 3.72114 48.9778 3.72114C50.6138 3.72114 51.6724 4.61933 51.7205 6.06285H50.6459C50.6138 5.16466 49.9883 4.63537 48.9457 4.63537C47.8551 4.63537 47.2456 5.1005 47.2456 5.93454C47.2456 6.52798 47.6626 6.945 48.5127 7.15351L49.8439 7.49033C51.1912 7.82715 51.8007 8.45268 51.8007 9.57542C51.8007 10.9708 50.6138 11.885 48.8495 11.885C47.1012 11.885 46.0106 10.9548 46.0106 9.51126ZM53.6667 1.79644C53.2176 1.79644 52.8487 1.42754 52.8487 0.978448C52.8487 0.529353 53.2176 0.144414 53.6667 0.144414C54.1158 0.144414 54.5008 0.529353 54.5008 0.978448C54.5008 1.42754 54.1158 1.79644 53.6667 1.79644ZM53.1214 11.6926V3.92965H54.2281V11.6926H53.1214ZM55.4894 7.81111C55.4894 5.43732 57.1575 3.72114 59.435 3.72114C61.7126 3.72114 63.3807 5.43732 63.3807 7.81111C63.3807 10.1689 61.7126 11.885 59.435 11.885C57.1575 11.885 55.4894 10.1689 55.4894 7.81111ZM56.6122 7.79507C56.6122 9.62353 57.767 10.8906 59.435 10.8906C61.0871 10.8906 62.2579 9.62353 62.2579 7.79507C62.2579 5.99869 61.0871 4.71556 59.435 4.71556C57.767 4.71556 56.6122 5.99869 56.6122 7.79507ZM65.7562 11.6926H64.6495V3.92965H65.6119L65.7723 5.27693C66.2855 4.28251 67.312 3.72114 68.4347 3.72114C70.5679 3.72114 71.4501 4.98823 71.4501 6.945V11.6926H70.3434V7.18559C70.3434 5.37317 69.5254 4.7316 68.2423 4.7316C66.6544 4.7316 65.7562 5.88642 65.7562 7.63468V11.6926ZM74.1009 11.869C73.5556 11.869 73.0905 11.4199 73.0905 10.8906C73.0905 10.3453 73.5556 9.88016 74.1009 9.88016C74.6463 9.88016 75.1114 10.3453 75.1114 10.8906C75.1114 11.4199 74.6463 11.869 74.1009 11.869Z" fill="#101010"/>
<path d="M81.0389 11.6926V0.208571H85.2411C87.4545 0.208571 88.8178 1.33131 88.8178 3.17581C88.8178 4.52309 88.2244 5.43732 87.0375 5.90246C88.3687 6.33551 89.0424 7.26578 89.0424 8.67722C89.0424 10.5217 87.663 11.6926 85.4817 11.6926H81.0389ZM85.2251 1.23507H82.1937V5.43732H85.3694C86.8129 5.43732 87.6309 4.63537 87.6309 3.27204C87.6309 1.98891 86.7648 1.23507 85.2251 1.23507ZM85.4817 6.44779H82.1937V10.65H85.4817C86.9894 10.65 87.8715 9.86412 87.8715 8.53287C87.8715 7.2337 86.9733 6.44779 85.4817 6.44779ZM95.8374 3.92965H96.9441V11.6926H95.9818L95.8374 10.3774C95.4044 11.2756 94.3298 11.885 93.1108 11.885C91.2823 11.885 90.2879 10.634 90.2879 8.74138V3.91361H91.4107V8.38852C91.4107 10.233 92.2286 10.8906 93.4637 10.8906C94.9553 10.8906 95.8374 9.8962 95.8374 8.0517V3.92965ZM99.2936 1.79644C98.8445 1.79644 98.4756 1.42754 98.4756 0.978448C98.4756 0.529353 98.8445 0.144414 99.2936 0.144414C99.7427 0.144414 100.128 0.529353 100.128 0.978448C100.128 1.42754 99.7427 1.79644 99.2936 1.79644ZM98.7483 11.6926V3.92965H99.855V11.6926H98.7483ZM102.816 11.6926H101.71V6.21404e-05H102.816V11.6926ZM106.449 11.6926H105.359V4.85991H103.803V3.92965H105.359V1.47566H106.449V3.92965H108.005V4.85991H106.449V11.6926ZM114.528 11.6926L111.962 3.92965H113.101L114.624 8.61307C114.801 9.12632 114.945 9.65561 115.106 10.2811C115.234 9.65561 115.491 8.86969 115.571 8.61307L117.11 3.92965H118.249L119.773 8.61307C119.917 9.03009 120.11 9.70373 120.254 10.2811C120.415 9.63957 120.447 9.4471 120.719 8.61307L122.259 3.92965H123.414L120.783 11.6926H119.709L118.105 6.81669C117.912 6.23928 117.784 5.75811 117.688 5.29297C117.576 5.70999 117.447 6.17512 117.239 6.81669L115.635 11.6926H114.528ZM124.84 1.79644C124.391 1.79644 124.022 1.42754 124.022 0.978448C124.022 0.529353 124.391 0.144414 124.84 0.144414C125.289 0.144414 125.674 0.529353 125.674 0.978448C125.674 1.42754 125.289 1.79644 124.84 1.79644ZM124.295 11.6926V3.92965H125.402V11.6926H124.295ZM128.989 11.6926H127.898V4.85991H126.342V3.92965H127.898V1.47566H128.989V3.92965H130.544V4.85991H128.989V11.6926ZM132.591 11.6765H131.484V6.21404e-05H132.591V5.27693C133.088 4.34666 134.035 3.72114 135.334 3.72114C137.371 3.72114 138.285 4.98823 138.285 6.945V11.6926H137.178V7.18559C137.178 5.37317 136.328 4.7316 135.125 4.7316C133.457 4.7316 132.591 5.96661 132.591 7.45825V11.6765ZM143.488 3.19185C143.488 1.26715 145.027 6.21404e-05 147.337 6.21404e-05C149.406 6.21404e-05 150.769 1.15488 150.946 3.07957H149.775C149.647 1.7804 148.764 1.0426 147.321 1.0426C145.701 1.0426 144.642 1.87664 144.642 3.17581C144.642 4.18627 145.236 4.82784 146.439 5.13258L148.412 5.61375C150.208 6.04681 151.138 7.07331 151.138 8.62911C151.138 10.618 149.598 11.885 147.225 11.885C144.995 11.885 143.488 10.7142 143.343 8.83762H144.53C144.594 10.0405 145.653 10.8265 147.225 10.8265C148.909 10.8265 149.983 10.0085 149.983 8.69326C149.983 7.66676 149.406 6.99312 148.171 6.70441L146.23 6.22324C144.434 5.79018 143.488 4.76368 143.488 3.19185ZM151.928 7.81111C151.928 5.43732 153.596 3.72114 155.873 3.72114C158.151 3.72114 159.819 5.43732 159.819 7.81111C159.819 10.1689 158.151 11.885 155.873 11.885C153.596 11.885 151.928 10.1689 151.928 7.81111ZM153.05 7.79507C153.05 9.62353 154.205 10.8906 155.873 10.8906C157.525 10.8906 158.696 9.62353 158.696 7.79507C158.696 5.99869 157.525 4.71556 155.873 4.71556C154.205 4.71556 153.05 5.99869 153.05 7.79507ZM165.146 3.83341V4.82784H164.536C163.109 4.82784 162.195 5.79018 162.195 7.26578V11.6926H161.088V3.92965H162.13L162.211 5.13258C162.515 4.29855 163.333 3.75322 164.424 3.75322C164.665 3.75322 164.873 3.76925 165.146 3.83341ZM169.074 11.885C166.797 11.885 165.273 10.2491 165.273 7.81111C165.273 5.38921 166.78 3.72114 168.994 3.72114C171.095 3.72114 172.522 5.21278 172.522 7.41013V7.95546H166.347C166.428 9.84808 167.422 10.9387 169.09 10.9387C170.357 10.9387 171.175 10.3934 171.464 9.36691H172.522C172.105 11.0029 170.903 11.885 169.074 11.885ZM168.994 4.66745C167.534 4.66745 166.572 5.62979 166.379 7.15351H171.416C171.416 5.66187 170.453 4.66745 168.994 4.66745ZM174.897 11.6926H173.791V3.92965H174.753L174.913 5.27693C175.427 4.28251 176.453 3.72114 177.576 3.72114C179.709 3.72114 180.591 4.98823 180.591 6.945V11.6926H179.485V7.18559C179.485 5.37317 178.667 4.7316 177.383 4.7316C175.796 4.7316 174.897 5.88642 174.897 7.63468V11.6926ZM185.552 11.885C183.274 11.885 181.75 10.2491 181.75 7.81111C181.75 5.38921 183.258 3.72114 185.472 3.72114C187.573 3.72114 189 5.21278 189 7.41013V7.95546H182.825C182.905 9.84808 183.9 10.9387 185.568 10.9387C186.835 10.9387 187.653 10.3934 187.942 9.36691H189C188.583 11.0029 187.38 11.885 185.552 11.885ZM185.472 4.66745C184.012 4.66745 183.05 5.62979 182.857 7.15351H187.893C187.893 5.66187 186.931 4.66745 185.472 4.66745Z" fill="#FDC24C"/>
<path d="M81.0389 11.6926V0.208571H85.2411C87.4545 0.208571 88.8178 1.33131 88.8178 3.17581C88.8178 4.52309 88.2244 5.43732 87.0375 5.90246C88.3687 6.33551 89.0424 7.26578 89.0424 8.67722C89.0424 10.5217 87.663 11.6926 85.4817 11.6926H81.0389ZM85.2251 1.23507H82.1937V5.43732H85.3694C86.8129 5.43732 87.6309 4.63537 87.6309 3.27204C87.6309 1.98891 86.7648 1.23507 85.2251 1.23507ZM85.4817 6.44779H82.1937V10.65H85.4817C86.9894 10.65 87.8715 9.86412 87.8715 8.53287C87.8715 7.2337 86.9733 6.44779 85.4817 6.44779ZM95.8374 3.92965H96.9441V11.6926H95.9818L95.8374 10.3774C95.4044 11.2756 94.3298 11.885 93.1108 11.885C91.2823 11.885 90.2879 10.634 90.2879 8.74138V3.91361H91.4107V8.38852C91.4107 10.233 92.2286 10.8906 93.4637 10.8906C94.9553 10.8906 95.8374 9.8962 95.8374 8.0517V3.92965ZM99.2936 1.79644C98.8445 1.79644 98.4756 1.42754 98.4756 0.978448C98.4756 0.529353 98.8445 0.144414 99.2936 0.144414C99.7427 0.144414 100.128 0.529353 100.128 0.978448C100.128 1.42754 99.7427 1.79644 99.2936 1.79644ZM98.7483 11.6926V3.92965H99.855V11.6926H98.7483ZM102.816 11.6926H101.71V6.21404e-05H102.816V11.6926ZM106.449 11.6926H105.359V4.85991H103.803V3.92965H105.359V1.47566H106.449V3.92965H108.005V4.85991H106.449V11.6926ZM114.528 11.6926L111.962 3.92965H113.101L114.624 8.61307C114.801 9.12632 114.945 9.65561 115.106 10.2811C115.234 9.65561 115.491 8.86969 115.571 8.61307L117.11 3.92965H118.249L119.773 8.61307C119.917 9.03009 120.11 9.70373 120.254 10.2811C120.415 9.63957 120.447 9.4471 120.719 8.61307L122.259 3.92965H123.414L120.783 11.6926H119.709L118.105 6.81669C117.912 6.23928 117.784 5.75811 117.688 5.29297C117.576 5.70999 117.447 6.17512 117.239 6.81669L115.635 11.6926H114.528ZM124.84 1.79644C124.391 1.79644 124.022 1.42754 124.022 0.978448C124.022 0.529353 124.391 0.144414 124.84 0.144414C125.289 0.144414 125.674 0.529353 125.674 0.978448C125.674 1.42754 125.289 1.79644 124.84 1.79644ZM124.295 11.6926V3.92965H125.402V11.6926H124.295ZM128.989 11.6926H127.898V4.85991H126.342V3.92965H127.898V1.47566H128.989V3.92965H130.544V4.85991H128.989V11.6926ZM132.591 11.6765H131.484V6.21404e-05H132.591V5.27693C133.088 4.34666 134.035 3.72114 135.334 3.72114C137.371 3.72114 138.285 4.98823 138.285 6.945V11.6926H137.178V7.18559C137.178 5.37317 136.328 4.7316 135.125 4.7316C133.457 4.7316 132.591 5.96661 132.591 7.45825V11.6765ZM143.488 3.19185C143.488 1.26715 145.027 6.21404e-05 147.337 6.21404e-05C149.406 6.21404e-05 150.769 1.15488 150.946 3.07957H149.775C149.647 1.7804 148.764 1.0426 147.321 1.0426C145.701 1.0426 144.642 1.87664 144.642 3.17581C144.642 4.18627 145.236 4.82784 146.439 5.13258L148.412 5.61375C150.208 6.04681 151.138 7.07331 151.138 8.62911C151.138 10.618 149.598 11.885 147.225 11.885C144.995 11.885 143.488 10.7142 143.343 8.83762H144.53C144.594 10.0405 145.653 10.8265 147.225 10.8265C148.909 10.8265 149.983 10.0085 149.983 8.69326C149.983 7.66676 149.406 6.99312 148.171 6.70441L146.23 6.22324C144.434 5.79018 143.488 4.76368 143.488 3.19185ZM151.928 7.81111C151.928 5.43732 153.596 3.72114 155.873 3.72114C158.151 3.72114 159.819 5.43732 159.819 7.81111C159.819 10.1689 158.151 11.885 155.873 11.885C153.596 11.885 151.928 10.1689 151.928 7.81111ZM153.05 7.79507C153.05 9.62353 154.205 10.8906 155.873 10.8906C157.525 10.8906 158.696 9.62353 158.696 7.79507C158.696 5.99869 157.525 4.71556 155.873 4.71556C154.205 4.71556 153.05 5.99869 153.05 7.79507ZM165.146 3.83341V4.82784H164.536C163.109 4.82784 162.195 5.79018 162.195 7.26578V11.6926H161.088V3.92965H162.13L162.211 5.13258C162.515 4.29855 163.333 3.75322 164.424 3.75322C164.665 3.75322 164.873 3.76925 165.146 3.83341ZM169.074 11.885C166.797 11.885 165.273 10.2491 165.273 7.81111C165.273 5.38921 166.78 3.72114 168.994 3.72114C171.095 3.72114 172.522 5.21278 172.522 7.41013V7.95546H166.347C166.428 9.84808 167.422 10.9387 169.09 10.9387C170.357 10.9387 171.175 10.3934 171.464 9.36691H172.522C172.105 11.0029 170.903 11.885 169.074 11.885ZM168.994 4.66745C167.534 4.66745 166.572 5.62979 166.379 7.15351H171.416C171.416 5.66187 170.453 4.66745 168.994 4.66745ZM174.897 11.6926H173.791V3.92965H174.753L174.913 5.27693C175.427 4.28251 176.453 3.72114 177.576 3.72114C179.709 3.72114 180.591 4.98823 180.591 6.945V11.6926H179.485V7.18559C179.485 5.37317 178.667 4.7316 177.383 4.7316C175.796 4.7316 174.897 5.88642 174.897 7.63468V11.6926ZM185.552 11.885C183.274 11.885 181.75 10.2491 181.75 7.81111C181.75 5.38921 183.258 3.72114 185.472 3.72114C187.573 3.72114 189 5.21278 189 7.41013V7.95546H182.825C182.905 9.84808 183.9 10.9387 185.568 10.9387C186.835 10.9387 187.653 10.3934 187.942 9.36691H189C188.583 11.0029 187.38 11.885 185.552 11.885ZM185.472 4.66745C184.012 4.66745 183.05 5.62979 182.857 7.15351H187.893C187.893 5.66187 186.931 4.66745 185.472 4.66745Z" fill="url(#paint0_radial_0_611)" fill-opacity="0.2"/>
<defs>
<radialGradient id="paint0_radial_0_611" cx="0" cy="0" r="1" gradientTransform="matrix(120.831 10.5221 -110.16 61.8146 22.0698 -0.619407)" gradientUnits="userSpaceOnUse">
<stop stop-color="white"/>
<stop offset="1" stop-color="white" stop-opacity="0"/>
</radialGradient>
</defs>
</svg>
