<svg width="20" height="20" viewBox="0 0 20 20" fill="none" xmlns="http://www.w3.org/2000/svg">
<path d="M16.8584 9.23281C16.8347 9.13264 16.7867 9.03986 16.7185 8.96272C16.6504 8.88558 16.5642 8.82646 16.4678 8.79062L11.967 7.10234L13.1123 1.37343C13.1382 1.24032 13.1202 1.10239 13.0608 0.980449C13.0015 0.858507 12.9041 0.759171 12.7834 0.697433C12.6626 0.635694 12.5251 0.614903 12.3915 0.638195C12.2579 0.661487 12.1355 0.7276 12.0427 0.826557L3.29275 10.2016C3.22168 10.2764 3.17027 10.3678 3.14311 10.4674C3.11595 10.567 3.11389 10.6717 3.1371 10.7723C3.16031 10.8729 3.20808 10.9662 3.27614 11.0438C3.3442 11.1215 3.43043 11.181 3.52713 11.2172L8.02947 12.9055L6.88728 18.6281C6.86135 18.7612 6.87941 18.8992 6.93874 19.0211C6.99808 19.143 7.09547 19.2424 7.21621 19.3041C7.33695 19.3659 7.4745 19.3867 7.6081 19.3634C7.74169 19.3401 7.86409 19.274 7.95681 19.175L16.7068 9.8C16.7766 9.7251 16.8269 9.6342 16.8533 9.53531C16.8798 9.43641 16.8815 9.33253 16.8584 9.23281ZM8.54431 16.7195L9.36228 12.6273C9.39156 12.4822 9.36836 12.3314 9.29682 12.2018C9.22529 12.0721 9.11005 11.9721 8.97166 11.9195L4.84353 10.3687L11.4545 3.28593L10.6373 7.37812C10.608 7.52325 10.6312 7.67406 10.7027 7.80369C10.7743 7.93331 10.8895 8.03334 11.0279 8.08593L15.1529 9.63281L8.54431 16.7195Z" fill="#151515"/>
</svg>
