<svg width="24" height="24" viewBox="0 0 24 24" fill="none" xmlns="http://www.w3.org/2000/svg">
<path d="M9.88806 10.0679C9.20406 10.0679 8.66406 10.6679 8.66406 11.3999C8.66406 12.1319 9.21606 12.7319 9.88806 12.7319C10.5721 12.7319 11.1121 12.1319 11.1121 11.3999C11.1241 10.6679 10.5721 10.0679 9.88806 10.0679ZM14.2681 10.0679C13.5841 10.0679 13.0441 10.6679 13.0441 11.3999C13.0441 12.1319 13.5961 12.7319 14.2681 12.7319C14.9521 12.7319 15.4921 12.1319 15.4921 11.3999C15.4921 10.6679 14.9521 10.0679 14.2681 10.0679Z" fill="#101010"/>
<path d="M20.0996 0H4.01957C2.66357 0 1.55957 1.104 1.55957 2.472V18.696C1.55957 20.064 2.66357 21.168 4.01957 21.168H17.6276L16.9916 18.948L18.5276 20.376L19.9796 21.72L22.5596 24V2.472C22.5596 1.104 21.4556 0 20.0996 0ZM15.4676 15.672C15.4676 15.672 15.0356 15.156 14.6756 14.7C16.2476 14.256 16.8476 13.272 16.8476 13.272C16.3556 13.596 15.8876 13.824 15.4676 13.98C14.8676 14.232 14.2916 14.4 13.7276 14.496C12.5756 14.712 11.5196 14.652 10.6196 14.484C9.93557 14.352 9.34757 14.16 8.85557 13.968C8.57957 13.86 8.27957 13.728 7.97957 13.56C7.94357 13.536 7.90757 13.524 7.87157 13.5C7.84757 13.488 7.83557 13.476 7.82357 13.464C7.60757 13.344 7.48757 13.26 7.48757 13.26C7.48757 13.26 8.06357 14.22 9.58757 14.676C9.22757 15.132 8.78357 15.672 8.78357 15.672C6.13157 15.588 5.12357 13.848 5.12357 13.848C5.12357 9.984 6.85157 6.852 6.85157 6.852C8.57957 5.556 10.2236 5.592 10.2236 5.592L10.3436 5.736C8.18357 6.36 7.18757 7.308 7.18757 7.308C7.18757 7.308 7.45157 7.164 7.89557 6.96C9.17957 6.396 10.1996 6.24 10.6196 6.204C10.6916 6.192 10.7516 6.18 10.8236 6.18C11.5556 6.084 12.3836 6.06 13.2476 6.156C14.3876 6.288 15.6116 6.624 16.8596 7.308C16.8596 7.308 15.9116 6.408 13.8716 5.784L14.0396 5.592C14.0396 5.592 15.6836 5.556 17.4116 6.852C17.4116 6.852 19.1396 9.984 19.1396 13.848C19.1396 13.848 18.1196 15.588 15.4676 15.672Z" fill="#101010"/>
</svg>
