<svg width="14" height="14" viewBox="0 0 14 14" fill="none" xmlns="http://www.w3.org/2000/svg">
<path d="M7 4.8125C6.56735 4.8125 6.14442 4.94079 5.78469 5.18116C5.42496 5.42153 5.14458 5.76317 4.97901 6.16288C4.81345 6.56259 4.77013 7.00243 4.85453 7.42676C4.93894 7.85109 5.14728 8.24087 5.4532 8.5468C5.75913 8.85272 6.14891 9.06106 6.57324 9.14547C6.99757 9.22987 7.43741 9.18655 7.83712 9.02099C8.23683 8.85542 8.57847 8.57504 8.81884 8.21531C9.05921 7.85558 9.1875 7.43265 9.1875 7C9.1875 6.41984 8.95703 5.86344 8.5468 5.4532C8.13656 5.04297 7.58016 4.8125 7 4.8125ZM7 8.3125C6.74041 8.3125 6.48665 8.23552 6.27081 8.0913C6.05497 7.94708 5.88675 7.7421 5.78741 7.50227C5.68807 7.26244 5.66208 6.99854 5.71272 6.74394C5.76336 6.48934 5.88837 6.25548 6.07192 6.07192C6.25548 5.88837 6.48934 5.76336 6.74394 5.71272C6.99854 5.66208 7.26244 5.68807 7.50227 5.78741C7.7421 5.88675 7.94708 6.05497 8.0913 6.27081C8.23552 6.48665 8.3125 6.74041 8.3125 7C8.3125 7.3481 8.17422 7.68194 7.92808 7.92808C7.68194 8.17422 7.3481 8.3125 7 8.3125ZM13.125 3.0625H0.875C0.758968 3.0625 0.647688 3.10859 0.565641 3.19064C0.483594 3.27269 0.4375 3.38397 0.4375 3.5V10.5C0.4375 10.616 0.483594 10.7273 0.565641 10.8094C0.647688 10.8914 0.758968 10.9375 0.875 10.9375H13.125C13.241 10.9375 13.3523 10.8914 13.4344 10.8094C13.5164 10.7273 13.5625 10.616 13.5625 10.5V3.5C13.5625 3.38397 13.5164 3.27269 13.4344 3.19064C13.3523 3.10859 13.241 3.0625 13.125 3.0625ZM10.5902 10.0625H3.40977C3.26288 9.56572 2.99404 9.11358 2.62773 8.74727C2.26142 8.38096 1.80928 8.11212 1.3125 7.96523V6.03477C1.80928 5.88788 2.26142 5.61904 2.62773 5.25273C2.99404 4.88642 3.26288 4.43428 3.40977 3.9375H10.5902C10.7371 4.43428 11.006 4.88642 11.3723 5.25273C11.7386 5.61904 12.1907 5.88788 12.6875 6.03477V7.96523C12.1907 8.11212 11.7386 8.38096 11.3723 8.74727C11.006 9.11358 10.7371 9.56572 10.5902 10.0625ZM12.6875 5.10617C12.1627 4.88053 11.7445 4.46226 11.5188 3.9375H12.6875V5.10617ZM2.48117 3.9375C2.25553 4.46226 1.83726 4.88053 1.3125 5.10617V3.9375H2.48117ZM1.3125 8.89383C1.83726 9.11947 2.25553 9.53774 2.48117 10.0625H1.3125V8.89383ZM11.5188 10.0625C11.7445 9.53774 12.1627 9.11947 12.6875 8.89383V10.0625H11.5188Z" fill="#218256"/>
</svg>
