<svg width="20" height="20" viewBox="0 0 20 20" fill="none" xmlns="http://www.w3.org/2000/svg">
<path d="M19.375 7.24122C19.3755 7.077 19.3434 6.91433 19.2805 6.76264C19.2176 6.61095 19.1251 6.47328 19.0086 6.35762L13.6429 0.991217C13.5269 0.875114 13.3891 0.783014 13.2374 0.720178C13.0857 0.657342 12.9231 0.625 12.759 0.625C12.5948 0.625 12.4322 0.657342 12.2805 0.720178C12.1289 0.783014 11.991 0.875114 11.875 0.991217L9.65388 3.21231L5.12263 4.91309C4.91669 4.98989 4.73455 5.11944 4.59442 5.28877C4.4543 5.4581 4.36111 5.66127 4.32419 5.87794L2.50857 16.7725C2.49358 16.862 2.4983 16.9538 2.52237 17.0413C2.54645 17.1289 2.58931 17.2101 2.64798 17.2794C2.70665 17.3487 2.77971 17.4044 2.86209 17.4426C2.94446 17.4808 3.03417 17.5006 3.12497 17.5006C3.15952 17.5004 3.194 17.4976 3.2281 17.492L14.1218 15.6764C14.3383 15.6403 14.5413 15.5478 14.7107 15.4084C14.8801 15.2689 15.0097 15.0873 15.0867 14.8818L16.7875 10.3506L19.0086 8.12559C19.1252 8.00982 19.2177 7.87202 19.2806 7.72019C19.3435 7.56837 19.3756 7.40556 19.375 7.24122ZM13.9164 14.4436L4.94685 15.9381L8.64763 12.2373C9.10986 12.4871 9.64655 12.5622 10.1596 12.4489C10.6726 12.3355 11.1277 12.0413 11.4417 11.62C11.7557 11.1987 11.9075 10.6785 11.8694 10.1545C11.8314 9.63044 11.606 9.13761 11.2345 8.76608C10.863 8.39456 10.3701 8.16917 9.8461 8.13112C9.32206 8.09307 8.80184 8.24491 8.38055 8.55887C7.95926 8.87283 7.66504 9.32793 7.55169 9.84097C7.43835 10.354 7.51344 10.8907 7.76325 11.3529L4.06247 15.0553L5.557 6.08341L9.84372 4.47637L15.5234 10.1568L13.9164 14.4436ZM8.74997 10.3131C8.74997 10.1277 8.80496 9.94642 8.90797 9.79225C9.01098 9.63807 9.1574 9.51791 9.32871 9.44696C9.50001 9.376 9.68851 9.35743 9.87037 9.39361C10.0522 9.42978 10.2193 9.51907 10.3504 9.65018C10.4815 9.78129 10.5708 9.94834 10.607 10.1302C10.6431 10.3121 10.6246 10.5006 10.5536 10.6719C10.4827 10.8432 10.3625 10.9896 10.2083 11.0926C10.0541 11.1956 9.87289 11.2506 9.68747 11.2506C9.43883 11.2506 9.20038 11.1518 9.02456 10.976C8.84874 10.8002 8.74997 10.5617 8.74997 10.3131ZM16.25 9.11622L10.8836 3.75059L12.7586 1.87559L18.125 7.24122L16.25 9.11622Z" fill="#151515"/>
</svg>
