<svg width="20" height="20" viewBox="0 0 20 20" fill="none" xmlns="http://www.w3.org/2000/svg">
<path d="M12.4992 3.125C12.4992 2.63055 12.3526 2.1472 12.0779 1.73608C11.8032 1.32495 11.4127 1.00452 10.9559 0.815302C10.4991 0.626083 9.99642 0.576575 9.51147 0.673038C9.02652 0.769501 8.58106 1.0076 8.23143 1.35723C7.8818 1.70687 7.6437 2.15232 7.54723 2.63728C7.45077 3.12223 7.50028 3.62489 7.6895 4.08171C7.87872 4.53852 8.19915 4.92897 8.61027 5.20368C9.02139 5.47838 9.50474 5.625 9.9992 5.625C10.6622 5.625 11.2981 5.36161 11.767 4.89277C12.2358 4.42393 12.4992 3.78804 12.4992 3.125ZM9.9992 4.375C9.75197 4.375 9.5103 4.30169 9.30473 4.16434C9.09917 4.02699 8.93896 3.83176 8.84435 3.60336C8.74974 3.37495 8.72498 3.12361 8.77322 2.88114C8.82145 2.63866 8.9405 2.41593 9.11531 2.24112C9.29013 2.0663 9.51286 1.94725 9.75533 1.89902C9.99781 1.85079 10.2491 1.87554 10.4776 1.97015C10.706 2.06476 10.9012 2.22498 11.0385 2.43054C11.1759 2.6361 11.2492 2.87777 11.2492 3.125C11.2492 3.45652 11.1175 3.77446 10.8831 4.00888C10.6487 4.24331 10.3307 4.375 9.9992 4.375ZM17.057 10.4727L13.5281 6.4711C13.2935 6.20514 13.0049 5.99214 12.6817 5.84626C12.3584 5.70039 12.0078 5.62496 11.6531 5.625H8.34529C7.99063 5.62496 7.64001 5.70039 7.31674 5.84626C6.99346 5.99214 6.70492 6.20514 6.47029 6.4711L2.94138 10.4727C2.6548 10.7658 2.49488 11.1597 2.4961 11.5697C2.49732 11.9796 2.65958 12.3726 2.94789 12.664C3.23621 12.9554 3.62749 13.1218 4.03738 13.1274C4.44726 13.1329 4.84292 12.9772 5.13904 12.6938L6.41248 11.6719L5.12029 16.5844C4.94914 16.962 4.93502 17.3921 5.08102 17.7802C5.22702 18.1682 5.52118 18.4824 5.89881 18.6535C6.27643 18.8247 6.70657 18.8388 7.09461 18.6928C7.48265 18.5468 7.7968 18.2526 7.96795 17.875L9.9992 14.3695L12.0304 17.875C12.2092 18.24 12.5232 18.5209 12.9057 18.6582C13.2882 18.7955 13.7091 18.7784 14.0792 18.6105C14.4493 18.4426 14.7394 18.1371 14.8879 17.7588C15.0365 17.3805 15.0319 16.9593 14.875 16.5844L13.5859 11.6719L14.8594 12.6938C15.1555 12.9772 15.5511 13.1329 15.961 13.1274C16.3709 13.1218 16.7622 12.9554 17.0505 12.664C17.3388 12.3726 17.5011 11.9796 17.5023 11.5697C17.5035 11.1597 17.3436 10.7658 17.057 10.4727ZM16.1578 11.7828C16.1288 11.8119 16.0943 11.8349 16.0564 11.8506C16.0184 11.8664 15.9778 11.8745 15.9367 11.8745C15.8956 11.8745 15.855 11.8664 15.817 11.8506C15.7791 11.8349 15.7446 11.8119 15.7156 11.7828C15.6992 11.7672 15.6828 11.7516 15.6648 11.7375L12.8898 9.5125C12.7874 9.43075 12.6619 9.38326 12.531 9.37674C12.4001 9.37022 12.2705 9.405 12.1605 9.47616C12.0504 9.54733 11.9656 9.65128 11.9178 9.77332C11.8701 9.89536 11.8619 10.0293 11.8945 10.1563L13.682 16.9531C13.6912 16.9894 13.7038 17.0247 13.7195 17.0586C13.7375 17.0959 13.748 17.1364 13.7502 17.1777C13.7525 17.2191 13.7465 17.2605 13.7326 17.2995C13.7187 17.3385 13.6972 17.3744 13.6693 17.405C13.6415 17.4356 13.6078 17.4604 13.5702 17.4779C13.5327 17.4954 13.4921 17.5053 13.4507 17.5069C13.4093 17.5086 13.368 17.502 13.3292 17.4876C13.2904 17.4731 13.2548 17.4511 13.2246 17.4228C13.1944 17.3945 13.1701 17.3604 13.1531 17.3227C13.1454 17.3058 13.1368 17.2893 13.1273 17.2734L10.5398 12.8125C10.4849 12.7178 10.406 12.6392 10.3111 12.5845C10.2163 12.5299 10.1087 12.5011 9.9992 12.5011C9.8897 12.5011 9.78213 12.5299 9.68725 12.5845C9.59237 12.6392 9.51351 12.7178 9.45857 12.8125L6.8742 17.2695C6.86468 17.2854 6.85607 17.3019 6.84842 17.3188C6.83106 17.356 6.80653 17.3894 6.77624 17.4172C6.74594 17.4449 6.71047 17.4664 6.67185 17.4805C6.61374 17.5018 6.55061 17.5053 6.49047 17.4907C6.43032 17.4761 6.37588 17.4439 6.33404 17.3983C6.29219 17.3527 6.26484 17.2957 6.25543 17.2345C6.24603 17.1733 6.25501 17.1108 6.28123 17.0547C6.29697 17.0208 6.30952 16.9855 6.31873 16.9492L8.10388 10.1563C8.13644 10.0293 8.12828 9.89536 8.08055 9.77332C8.03283 9.65128 7.94795 9.54733 7.83791 9.47616C7.72788 9.405 7.59826 9.37022 7.46738 9.37674C7.3365 9.38326 7.21099 9.43075 7.10857 9.5125L4.33357 11.7375C4.3156 11.7516 4.2992 11.7672 4.28279 11.7828C4.25409 11.8131 4.21962 11.8373 4.18141 11.854C4.1432 11.8708 4.10203 11.8797 4.06032 11.8802C4.01862 11.8808 3.97722 11.873 3.93856 11.8573C3.89991 11.8417 3.86479 11.8184 3.83527 11.7889C3.80575 11.7595 3.78243 11.7244 3.76668 11.6858C3.75093 11.6471 3.74307 11.6058 3.74357 11.564C3.74407 11.5223 3.75291 11.4812 3.76957 11.4429C3.78624 11.4047 3.81039 11.3702 3.8406 11.3414C3.84998 11.332 3.85857 11.3227 3.86717 11.3125L7.40779 7.29766C7.52514 7.16475 7.66943 7.05833 7.83106 6.98546C7.9927 6.91258 8.16799 6.87493 8.34529 6.875H11.6531C11.8304 6.87493 12.0057 6.91258 12.1673 6.98546C12.329 7.05833 12.4733 7.16475 12.5906 7.29766L16.1312 11.3125C16.1398 11.3227 16.1484 11.332 16.1578 11.3414C16.2162 11.4 16.2491 11.4794 16.2491 11.5621C16.2491 11.6449 16.2162 11.7242 16.1578 11.7828Z" fill="#151515"/>
</svg>
