<svg width="20" height="20" viewBox="0 0 20 20" fill="none" xmlns="http://www.w3.org/2000/svg">
<path d="M11.6925 10.8083C11.6345 10.7502 11.5656 10.7041 11.4897 10.6726C11.4138 10.6412 11.3325 10.625 11.2503 10.625C11.1682 10.625 11.0869 10.6412 11.011 10.6726C10.9351 10.7041 10.8662 10.7502 10.8082 10.8083L9.37535 12.2419L7.75894 10.6255L9.19254 9.19268C9.30981 9.0754 9.3757 8.91634 9.3757 8.75049C9.3757 8.58464 9.30981 8.42558 9.19254 8.3083C9.07526 8.19103 8.9162 8.12514 8.75035 8.12514C8.5845 8.12514 8.42544 8.19103 8.30816 8.3083L6.87535 9.7419L5.44254 8.3083C5.32526 8.19103 5.1662 8.12514 5.00035 8.12514C4.8345 8.12514 4.67544 8.19103 4.55816 8.3083C4.44088 8.42558 4.375 8.58464 4.375 8.75049C4.375 8.91634 4.44088 9.0754 4.55816 9.19268L5.05425 9.68799L3.23238 11.5091C3.00017 11.7412 2.81597 12.0169 2.6903 12.3202C2.56463 12.6236 2.49994 12.9487 2.49994 13.2771C2.49994 13.6054 2.56463 13.9305 2.6903 14.2339C2.81597 14.5372 3.00017 14.8129 3.23238 15.045L3.65269 15.4646L1.43316 17.6833C1.37509 17.7414 1.32903 17.8103 1.2976 17.8862C1.26618 17.9621 1.25 18.0434 1.25 18.1255C1.25 18.2076 1.26618 18.2889 1.2976 18.3648C1.32903 18.4407 1.37509 18.5096 1.43316 18.5677C1.55044 18.685 1.7095 18.7508 1.87535 18.7508C1.95747 18.7508 2.03879 18.7347 2.11466 18.7032C2.19053 18.6718 2.25947 18.6257 2.31754 18.5677L4.53629 16.3481L4.95582 16.7685C5.18797 17.0007 5.46359 17.1849 5.76694 17.3105C6.0703 17.4362 6.39543 17.5009 6.72378 17.5009C7.05214 17.5009 7.37727 17.4362 7.68063 17.3105C7.98398 17.1849 8.2596 17.0007 8.49175 16.7685L10.3128 14.9466L10.8082 15.4427C10.8662 15.5007 10.9352 15.5468 11.011 15.5782C11.0869 15.6097 11.1682 15.6258 11.2503 15.6258C11.3325 15.6258 11.4138 15.6097 11.4897 15.5782C11.5655 15.5468 11.6345 15.5007 11.6925 15.4427C11.7506 15.3846 11.7967 15.3157 11.8281 15.2398C11.8595 15.1639 11.8757 15.0826 11.8757 15.0005C11.8757 14.9184 11.8595 14.8371 11.8281 14.7612C11.7967 14.6853 11.7506 14.6164 11.6925 14.5583L10.2589 13.1255L11.6925 11.6927C11.7506 11.6346 11.7967 11.5657 11.8282 11.4898C11.8597 11.414 11.8758 11.3326 11.8758 11.2505C11.8758 11.1684 11.8597 11.087 11.8282 11.0112C11.7967 10.9353 11.7506 10.8663 11.6925 10.8083ZM7.60738 15.8864C7.37298 16.1207 7.05516 16.2523 6.72378 16.2523C6.39241 16.2523 6.07459 16.1207 5.84019 15.8864L4.11675 14.1606C3.88251 13.9263 3.75093 13.6084 3.75093 13.2771C3.75093 12.9457 3.88251 12.6279 4.11675 12.3935L5.93785 10.5716L9.42925 14.063L7.60738 15.8864ZM18.5675 1.4333C18.5095 1.37519 18.4406 1.32909 18.3647 1.29764C18.2888 1.26619 18.2075 1.25 18.1253 1.25C18.0432 1.25 17.9619 1.26619 17.886 1.29764C17.8101 1.32909 17.7412 1.37519 17.6832 1.4333L15.4644 3.65284L15.0449 3.23252C14.5755 2.76451 13.9397 2.5017 13.2769 2.5017C12.6141 2.5017 11.9783 2.76451 11.5089 3.23252L9.68785 5.0544L9.19254 4.5583C9.07526 4.44103 8.9162 4.37514 8.75035 4.37514C8.5845 4.37514 8.42544 4.44103 8.30816 4.5583C8.19089 4.67558 8.125 4.83464 8.125 5.00049C8.125 5.16634 8.19088 5.3254 8.30816 5.44268L14.5582 11.6927C14.6162 11.7507 14.6852 11.7968 14.761 11.8282C14.8369 11.8597 14.9182 11.8758 15.0003 11.8758C15.0825 11.8758 15.1638 11.8597 15.2397 11.8282C15.3155 11.7968 15.3845 11.7507 15.4425 11.6927C15.5006 11.6346 15.5467 11.5657 15.5781 11.4898C15.6095 11.4139 15.6257 11.3326 15.6257 11.2505C15.6257 11.1684 15.6095 11.0871 15.5781 11.0112C15.5467 10.9353 15.5006 10.8664 15.4425 10.8083L14.9464 10.313L16.7683 8.4919C17.0005 8.25974 17.1847 7.98412 17.3104 7.68077C17.4361 7.37742 17.5008 7.05228 17.5008 6.72393C17.5008 6.39558 17.4361 6.07044 17.3104 5.76709C17.1847 5.46374 17.0005 5.18811 16.7683 4.95596L16.348 4.53643L18.5675 2.31768C18.6256 2.25963 18.6717 2.1907 18.7032 2.11483C18.7347 2.03896 18.7508 1.95763 18.7508 1.87549C18.7508 1.79336 18.7347 1.71203 18.7032 1.63615C18.6717 1.56028 18.6256 1.49135 18.5675 1.4333ZM15.8839 7.60518L14.0628 9.4294L10.5714 5.93799L12.3933 4.1169C12.6277 3.88265 12.9455 3.75107 13.2769 3.75107C13.6083 3.75107 13.9261 3.88265 14.1605 4.1169L15.8839 5.83565C16.0006 5.9518 16.0932 6.08985 16.1564 6.24189C16.2196 6.39392 16.2521 6.55694 16.2521 6.72159C16.2521 6.88623 16.2196 7.04925 16.1564 7.20128C16.0932 7.35332 16.0006 7.49137 15.8839 7.60752V7.60518Z" fill="#151515"/>
</svg>
