<svg width="10" height="10" viewBox="0 0 10 10" fill="none" xmlns="http://www.w3.org/2000/svg">
<path fill-rule="evenodd" clip-rule="evenodd" d="M4.71273 2.14405C4.79411 2.06297 4.92658 2.06278 5.00784 2.14405L6.23831 3.37452C6.3193 3.4557 6.31904 3.58726 6.23831 3.66861L5.14467 4.76327C5.06338 4.84457 4.93094 4.84445 4.84957 4.76327C4.76821 4.68191 4.76821 4.54952 4.84957 4.46816L5.6481 3.66861C5.62029 3.67328 5.59139 3.67408 5.56232 3.66657C5.13131 3.55403 4.6753 3.58012 4.26037 3.74213C3.84523 3.90444 3.49102 4.19501 3.25046 4.57027C3.01015 4.94546 2.89476 5.38759 2.92064 5.8324C2.94663 6.27716 3.11219 6.70285 3.39445 7.04755C3.67687 7.39231 4.06209 7.63908 4.49319 7.75214C4.92421 7.86506 5.37997 7.83836 5.79514 7.67657C6.21046 7.5147 6.5641 7.22549 6.80504 6.85047C7.04585 6.4756 7.16118 6.03419 7.13589 5.58937C7.12937 5.47459 7.21823 5.37547 7.33297 5.3688C7.44753 5.36252 7.54681 5.45032 7.55354 5.56486C7.58392 6.09761 7.44472 6.62718 7.15632 7.07614C6.86789 7.52505 6.44339 7.87077 5.94627 8.06461C5.4491 8.25824 4.90309 8.28982 4.38699 8.15447C3.87077 8.01905 3.40992 7.7239 3.07177 7.31101C2.73383 6.8982 2.53606 6.38847 2.50503 5.85589C2.47413 5.32348 2.61159 4.79471 2.89919 4.34562C3.18717 3.89634 3.61122 3.54949 4.10822 3.35512C4.55222 3.18161 5.03501 3.13785 5.50105 3.22646L4.71273 2.43814C4.63191 2.35681 4.63174 2.22527 4.71273 2.14405Z" fill="#757575"/>
</svg>
