<svg width="32" height="32" viewBox="0 0 32 32" fill="none" xmlns="http://www.w3.org/2000/svg">
<path d="M27.98 5.88952C27.9504 5.40193 27.7433 4.94204 27.3979 4.59663C27.0525 4.25121 26.5926 4.04416 26.105 4.01452C24.5325 3.92077 20.5138 4.06452 17.1788 7.39827L16.585 7.99952H9.29377C9.03012 7.99804 8.7688 8.04899 8.52502 8.14942C8.28124 8.24985 8.05986 8.39776 7.87377 8.58452L3.58627 12.8745C3.32333 13.1373 3.13882 13.4681 3.05345 13.8299C2.96809 14.1917 2.98524 14.5701 3.10298 14.9227C3.22073 15.2753 3.43441 15.5881 3.72004 15.826C4.00567 16.0639 4.35195 16.2175 4.72002 16.2695L9.52877 16.9408L15.055 22.467L15.7263 27.2783C15.7779 27.6464 15.9314 27.9927 16.1696 28.2781C16.4077 28.5635 16.7209 28.7766 17.0738 28.8933C17.2793 28.9619 17.4946 28.997 17.7113 28.997C17.9737 28.9975 18.2336 28.9461 18.476 28.8457C18.7184 28.7453 18.9386 28.5979 19.1238 28.412L23.4138 24.1245C23.6005 23.9384 23.7484 23.7171 23.8489 23.4733C23.9493 23.2295 24.0003 22.9682 23.9988 22.7045V15.4133L24.595 14.817C27.93 11.482 28.0738 7.46327 27.98 5.88952ZM9.29377 9.99952H14.585L9.64377 14.9395L4.99877 14.292L9.29377 9.99952ZM18.595 8.81827C19.5559 7.85145 20.7121 7.10078 21.9862 6.61642C23.2604 6.13206 24.6233 5.92516 25.9838 6.00952C26.0714 7.37075 25.8666 8.73496 25.3833 10.0105C24.8999 11.286 24.1491 12.4433 23.1813 13.4045L15.9988 20.5845L11.4138 15.9995L18.595 8.81827ZM21.9988 22.7045L17.7075 26.9995L17.0588 22.3533L21.9988 17.4133V22.7045ZM12.7288 23.892C12.1663 25.1245 10.285 27.9995 4.99877 27.9995C4.73355 27.9995 4.4792 27.8942 4.29166 27.7066C4.10412 27.5191 3.99877 27.2647 3.99877 26.9995C3.99877 21.7133 6.87377 19.832 8.10627 19.2683C8.22577 19.2138 8.35484 19.1833 8.4861 19.1787C8.61736 19.1741 8.74825 19.1954 8.87129 19.2414C8.99432 19.2873 9.1071 19.3571 9.20318 19.4466C9.29927 19.5362 9.37677 19.6438 9.43127 19.7633C9.48577 19.8828 9.51619 20.0118 9.52081 20.1431C9.52543 20.2744 9.50415 20.4053 9.45818 20.5283C9.41222 20.6513 9.34247 20.7641 9.25292 20.8602C9.16337 20.9563 9.05577 21.0338 8.93627 21.0883C8.13252 21.4545 6.35877 22.6333 6.04627 25.952C9.36502 25.6395 10.5463 23.8658 10.91 23.062C10.9645 22.9425 11.042 22.8349 11.1381 22.7454C11.2342 22.6558 11.347 22.5861 11.47 22.5401C11.593 22.4941 11.7239 22.4729 11.8552 22.4775C11.9864 22.4821 12.1155 22.5125 12.235 22.567C12.3545 22.6215 12.4621 22.699 12.5517 22.7951C12.6412 22.8912 12.711 23.004 12.7569 23.127C12.8029 23.25 12.8242 23.3809 12.8196 23.5122C12.8149 23.6435 12.7845 23.7725 12.73 23.892H12.7288Z" fill="white"/>
</svg>
