<svg width="20" height="20" viewBox="0 0 20 20" fill="none" xmlns="http://www.w3.org/2000/svg">
<path d="M17.9293 8.82869L12.973 7.02713L11.1715 2.07088C11.0827 1.83166 10.9228 1.62534 10.7133 1.47965C10.5038 1.33395 10.2548 1.25586 9.99959 1.25586C9.74442 1.25586 9.49536 1.33395 9.28587 1.47965C9.07639 1.62534 8.91651 1.83166 8.82771 2.07088L7.02615 7.02713L2.0699 8.82869C1.83068 8.91748 1.62436 9.07736 1.47867 9.28685C1.33298 9.49634 1.25488 9.74539 1.25488 10.0006C1.25488 10.2557 1.33298 10.5048 1.47867 10.7143C1.62436 10.9238 1.83068 11.0836 2.0699 11.1724L7.02615 12.9748L8.82771 17.9303C8.91651 18.1695 9.07639 18.3758 9.28587 18.5215C9.49536 18.6672 9.74442 18.7453 9.99959 18.7453C10.2548 18.7453 10.5038 18.6672 10.7133 18.5215C10.9228 18.3758 11.0827 18.1695 11.1715 17.9303L12.9738 12.974L17.9293 11.1724C18.1685 11.0836 18.3748 10.9238 18.5205 10.7143C18.6662 10.5048 18.7443 10.2557 18.7443 10.0006C18.7443 9.74539 18.6662 9.49634 18.5205 9.28685C18.3748 9.07736 18.1685 8.91748 17.9293 8.82869ZM12.2715 11.899C12.1857 11.9302 12.1079 11.9798 12.0434 12.0443C11.9788 12.1089 11.9292 12.1867 11.898 12.2724L9.99959 17.4928L8.10115 12.2724C8.06993 12.1867 8.02033 12.1089 7.95581 12.0443C7.8913 11.9798 7.81344 11.9302 7.72771 11.899L2.5074 10.0006L7.72771 8.10213C7.81344 8.07091 7.8913 8.0213 7.95581 7.95679C8.02033 7.89228 8.06993 7.81442 8.10115 7.72869L9.99959 2.50838L11.898 7.72869C11.9292 7.81442 11.9788 7.89228 12.0434 7.95679C12.1079 8.0213 12.1857 8.07091 12.2715 8.10213L17.4918 10.0006L12.2715 11.899Z" fill="#151515"/>
</svg>
