<svg width="4" height="5" viewBox="0 0 4 5" fill="none" xmlns="http://www.w3.org/2000/svg">
<path d="M1.81818 0C2.57132 0 3.18176 0.61051 3.18182 1.36364V1.81818C3.43282 1.81818 3.63626 2.02175 3.63636 2.27273V4.54545C3.63636 4.79651 3.43288 5 3.18182 5H0.454545C0.203504 4.99998 0 4.7965 0 4.54545V2.27273C0.000100643 2.02177 0.203566 1.8182 0.454545 1.81818V1.36364C0.454606 0.61056 1.06511 8.05434e-05 1.81818 0ZM1.81818 0.454545C1.31617 0.454626 0.909151 0.861619 0.909091 1.36364V1.81818H2.72727V1.36364C2.72721 0.86157 2.32026 0.454545 1.81818 0.454545Z" fill="#8B8A8D"/>
</svg>
