<svg width="14" height="14" viewBox="0 0 14 14" fill="none" xmlns="http://www.w3.org/2000/svg">
<path d="M6.41076 8.63563C6.99712 8.24526 7.4423 7.67656 7.68044 7.01363C7.91859 6.35069 7.93708 5.62871 7.73317 4.95445C7.52925 4.28019 7.11377 3.68946 6.54815 3.2696C5.98254 2.84974 5.29682 2.62305 4.5924 2.62305C3.88799 2.62305 3.20227 2.84974 2.63665 3.2696C2.07104 3.68946 1.65555 4.28019 1.45164 4.95445C1.24773 5.62871 1.26621 6.35069 1.50436 7.01363C1.74251 7.67656 2.18768 8.24526 2.77404 8.63563C1.71338 9.02655 0.80754 9.74996 0.191701 10.6979C0.159334 10.746 0.136853 10.8001 0.125562 10.8569C0.114272 10.9138 0.114398 10.9723 0.125934 11.0292C0.13747 11.086 0.160185 11.1399 0.192759 11.1879C0.225333 11.2359 0.267115 11.2769 0.315679 11.3086C0.364242 11.3402 0.418617 11.3619 0.475643 11.3724C0.532669 11.3829 0.591208 11.3819 0.647858 11.3696C0.704508 11.3572 0.758139 11.3338 0.805633 11.3005C0.853127 11.2672 0.893536 11.2249 0.924513 11.1759C1.32176 10.5649 1.86533 10.0628 2.50588 9.71526C3.14642 9.36769 3.86364 9.18565 4.5924 9.18565C5.32117 9.18565 6.03839 9.36769 6.67893 9.71526C7.31947 10.0628 7.86305 10.5649 8.26029 11.1759C8.32446 11.2712 8.42359 11.3375 8.53624 11.3604C8.64889 11.3833 8.76601 11.3609 8.86229 11.2981C8.95857 11.2353 9.02627 11.1371 9.05075 11.0248C9.07522 10.9125 9.05452 10.7951 8.99311 10.6979C8.37727 9.74996 7.47143 9.02655 6.41076 8.63563ZM2.18615 5.90563C2.18615 5.42972 2.32728 4.96449 2.59168 4.56879C2.85608 4.17308 3.23189 3.86467 3.67157 3.68254C4.11126 3.50042 4.59507 3.45277 5.06184 3.54561C5.52861 3.63846 5.95736 3.86763 6.29388 4.20415C6.6304 4.54067 6.85957 4.96943 6.95242 5.43619C7.04526 5.90296 6.99761 6.38678 6.81549 6.82646C6.63337 7.26615 6.32495 7.64195 5.92924 7.90635C5.53354 8.17075 5.06832 8.31188 4.5924 8.31188C3.95445 8.31115 3.34283 8.05741 2.89173 7.6063C2.44062 7.1552 2.18688 6.54358 2.18615 5.90563ZM13.6782 11.3033C13.581 11.3667 13.4626 11.3888 13.3491 11.3649C13.2356 11.341 13.1362 11.273 13.0728 11.1759C12.676 10.5645 12.1325 10.0622 11.4918 9.71482C10.8512 9.3674 10.1337 9.1859 9.4049 9.18688C9.28887 9.18688 9.17759 9.14078 9.09554 9.05874C9.0135 8.97669 8.9674 8.86541 8.9674 8.74938C8.9674 8.63335 9.0135 8.52207 9.09554 8.44002C9.17759 8.35797 9.28887 8.31188 9.4049 8.31188C9.75926 8.31154 10.1092 8.23295 10.4296 8.08171C10.7501 7.93046 11.0332 7.71031 11.2587 7.43697C11.4842 7.16364 11.6466 6.84386 11.7342 6.50051C11.8218 6.15715 11.8325 5.79868 11.7655 5.45071C11.6985 5.10274 11.5555 4.77387 11.3466 4.48758C11.1378 4.20129 10.8683 3.96466 10.5574 3.7946C10.2466 3.62454 9.90196 3.52523 9.54825 3.50379C9.19454 3.48235 8.84046 3.53929 8.51131 3.67055C8.45764 3.69375 8.39987 3.70596 8.34141 3.70645C8.28294 3.70695 8.22497 3.69572 8.17092 3.67343C8.11687 3.65114 8.06783 3.61824 8.02671 3.57668C7.98559 3.53512 7.95322 3.48574 7.9315 3.43145C7.90979 3.37717 7.89917 3.31908 7.90029 3.26062C7.9014 3.20217 7.91422 3.14453 7.93799 3.09111C7.96176 3.03769 7.996 2.98958 8.03867 2.94962C8.08135 2.90966 8.13161 2.87865 8.18647 2.85844C8.93977 2.55802 9.77763 2.5472 10.5384 2.82809C11.2992 3.10898 11.9291 3.66167 12.3064 4.37953C12.6837 5.09739 12.7819 5.92956 12.5819 6.71551C12.3818 7.50145 11.8979 8.18548 11.2233 8.63563C12.2839 9.02655 13.1898 9.74996 13.8056 10.6979C13.869 10.7951 13.8912 10.9134 13.8673 11.027C13.8434 11.1405 13.7754 11.2399 13.6782 11.3033Z" fill="#218256"/>
</svg>
