<svg width="24" height="40" viewBox="0 0 24 40" fill="none" xmlns="http://www.w3.org/2000/svg">
<path d="M10.5216 39.9258C8.89816 39.4963 8.40969 38.7313 8.25446 36.3735C8.03088 33.0004 7.128 32.0761 3.78989 31.8045C0.78076 31.5585 0.0473446 30.8659 0.0345276 28.2608C0.0274071 26.8842 0.248143 26.159 0.873325 25.5077C1.37319 24.9872 1.99125 24.835 3.62042 24.835C4.74689 24.8336 5.08725 24.8877 5.61417 25.1536C6.59253 25.6456 6.87878 26.2969 7.03828 28.3816C7.22626 30.8617 7.7247 31.8301 9.15307 32.4885C9.79535 32.7843 10.2283 32.8682 11.3633 32.9151C14.6074 33.0502 16.0329 32.0477 16.4559 29.3316C16.7364 27.5327 16.2209 25.3157 15.338 24.5193C14.7327 23.9733 13.7202 23.6718 12.1095 23.558C10.3208 23.4315 9.48346 23.1599 8.95797 22.5356C8.5108 22.0037 8.36839 21.4435 8.18753 19.4725C7.90271 16.3696 7.01264 15.5178 3.82692 15.3002C1.56259 15.1452 0.830603 14.7925 0.295139 13.5994C-0.0794005 12.7647 -0.102187 10.8122 0.253839 9.97464C0.779334 8.7403 1.48142 8.39475 3.84258 8.20988C7.04112 7.95818 8.02091 6.94284 8.24734 3.64084C8.39118 1.52341 8.71445 0.847942 9.80958 0.36729C11.0998 -0.198685 13.3399 -0.0948748 14.2143 0.570643C14.925 1.11244 15.1713 1.78223 15.3009 3.53135C15.4405 5.42409 15.7324 6.34984 16.3975 7.01536C17.1551 7.77047 17.9697 8.0691 19.6416 8.20277C21.6823 8.36631 22.0256 8.44879 22.598 8.92091C23.3215 9.51674 23.602 10.4496 23.5266 12.0181C23.4525 13.5724 23.0708 14.3489 22.1267 14.8764C21.5698 15.1879 21.3121 15.2334 20.1343 15.2334C18.9751 15.2348 18.6789 15.1836 18.0694 14.8793C17.0213 14.356 16.6951 13.6819 16.5556 11.7508C16.3719 9.21954 15.8464 8.15442 14.4536 7.50312C13.7173 7.15899 13.508 7.12913 11.8033 7.13197C10.1827 7.13481 9.8637 7.17605 9.23994 7.46046C7.81014 8.11176 7.18923 9.15839 7.06676 11.1265C6.91153 13.6051 7.56519 15.1808 9.05623 15.9245C9.73838 16.2658 10.1471 16.3525 11.6082 16.4677C14.6045 16.7038 15.0759 17.1574 15.2952 20.01C15.4376 21.8672 15.6014 22.4958 16.1355 23.2324C16.8162 24.1695 17.7532 24.535 20.0731 24.7654C21.8689 24.9445 22.0711 24.9943 22.5411 25.3712C23.2859 25.967 23.5664 26.8572 23.5137 28.4598C23.4781 29.5036 23.4055 29.8577 23.1178 30.3782C22.5696 31.3693 21.9259 31.6495 19.8339 31.8088C17.7148 31.9694 16.8233 32.315 16.1568 33.2337C15.5986 34.0016 15.4376 34.6145 15.2981 36.5072C15.1058 39.1024 14.381 39.8931 12.1138 39.9898C11.4729 40.0168 10.7566 39.9884 10.5216 39.9258Z" fill="#101010"/>
</svg>
