<svg width="22" height="36" viewBox="0 0 22 36" fill="none" xmlns="http://www.w3.org/2000/svg">
<path d="M9.46947 35.9332C8.00834 35.5467 7.56872 34.8582 7.42901 32.7362C7.22779 29.7004 6.4152 28.8685 3.4109 28.624C0.702684 28.4026 0.0426101 27.7794 0.0310749 25.4347C0.0246664 24.1958 0.223329 23.5431 0.785993 22.9569C1.23587 22.4885 1.79212 22.3515 3.25838 22.3515C4.2722 22.3503 4.57853 22.3989 5.05275 22.6382C5.93328 23.081 6.1909 23.6672 6.33445 25.5435C6.50363 27.7755 6.95223 28.6471 8.23777 29.2396C8.81581 29.5059 9.20544 29.5814 10.227 29.6236C13.1467 29.7452 14.4296 28.8429 14.8103 26.3984C15.0628 24.7794 14.5988 22.7841 13.8042 22.0674C13.2594 21.576 12.3482 21.3046 10.8986 21.2022C9.28875 21.0883 8.53512 20.8439 8.06217 20.282C7.65972 19.8034 7.53155 19.2991 7.36877 17.5252C7.11243 14.7326 6.31138 13.966 3.44423 13.7702C1.40633 13.6307 0.747542 13.3133 0.265625 12.2395C-0.0714605 11.4882 -0.0919687 9.73101 0.228455 8.97718C0.7014 7.86627 1.33328 7.55527 3.45833 7.38889C6.33701 7.16236 7.21882 6.24855 7.42261 3.27676C7.55206 1.37107 7.843 0.763147 8.82863 0.330561C9.98984 -0.178817 12.0059 -0.0853873 12.7929 0.513579C13.4325 1.0012 13.6542 1.604 13.7708 3.17821C13.8964 4.88168 14.1592 5.71486 14.7577 6.31383C15.4396 6.99342 16.1727 7.26219 17.6774 7.38249C19.5141 7.52968 19.823 7.60391 20.3382 8.02882C20.9893 8.56507 21.2418 9.40465 21.1739 10.8163C21.1073 12.2152 20.7638 12.914 19.914 13.3888C19.4129 13.6691 19.1809 13.71 18.1209 13.71C17.0776 13.7113 16.811 13.6652 16.2625 13.3914C15.3191 12.9204 15.0256 12.3137 14.9 10.5757C14.7347 8.29758 14.2617 7.33898 13.0082 6.75281C12.3456 6.44309 12.1572 6.41621 10.623 6.41877C9.16443 6.42133 8.87733 6.45845 8.31595 6.71442C7.02913 7.30058 6.47031 8.24255 6.36008 10.0138C6.22038 12.2446 6.80867 13.6627 8.15061 14.332C8.76454 14.6392 9.13239 14.7173 10.4474 14.8209C13.1441 15.0334 13.5683 15.4417 13.7657 18.009C13.8939 19.6805 14.0413 20.2462 14.5219 20.9092C15.1346 21.7526 15.9779 22.0815 18.0658 22.2888C19.682 22.4501 19.864 22.4949 20.287 22.834C20.9573 23.3703 21.2098 24.1715 21.1624 25.6139C21.1303 26.5533 21.065 26.8719 20.8061 27.3404C20.3126 28.2324 19.7333 28.4845 17.8505 28.6279C15.9433 28.7725 15.141 29.0835 14.5411 29.9103C14.0387 30.6014 13.8939 31.153 13.7683 32.8565C13.5952 35.1922 12.9429 35.9038 10.9024 35.9908C10.3256 36.0151 9.68095 35.9895 9.46947 35.9332Z" fill="#101010"/>
</svg>
