<svg width="28" height="28" viewBox="0 0 28 28" fill="none" xmlns="http://www.w3.org/2000/svg">
<path d="M13.8638 9.62066L11.9931 18.3662H9.73048L11.6013 9.62066H13.8638ZM23.3826 15.2678L24.5734 11.9836L25.2588 15.2678H23.3826ZM25.9079 18.3662H28L26.1722 9.62066H24.2424C23.8075 9.62066 23.4408 9.87283 23.2786 10.2617L19.8837 18.3662H22.2598L22.7315 17.0601H25.6339L25.9079 18.3662ZM20.0015 15.5111C20.0113 13.203 16.8108 13.0751 16.8322 12.0438C16.8391 11.7305 17.1381 11.3967 17.7915 11.3113C18.1155 11.2696 19.0095 11.2358 20.0229 11.7028L20.4193 9.84746C19.875 9.65056 19.1746 9.46094 18.303 9.46094C16.0663 9.46094 14.4928 10.649 14.4803 12.3517C14.4659 13.6108 15.6042 14.3128 16.4601 14.7322C17.3425 15.1608 17.6381 15.4356 17.6338 15.8186C17.6277 16.4053 16.9302 16.6652 16.2807 16.675C15.1425 16.6927 14.4828 16.3674 13.957 16.1223L13.5463 18.0395C14.0758 18.2819 15.0515 18.4927 16.0617 18.5035C18.4397 18.5035 19.9944 17.3294 20.0015 15.5111ZM10.6308 9.62066L6.96484 18.3662H4.57353L2.76937 11.3867C2.66001 10.9574 2.56461 10.7997 2.23198 10.6183C1.6879 10.3229 0.78976 10.0465 0 9.8746L0.0535037 9.62066H3.90336C4.39374 9.62066 4.83495 9.94699 4.94726 10.5119L5.90029 15.5731L8.25383 9.62066H10.6308Z" fill="#FFCC4E"/>
</svg>
