<svg width="20" height="20" viewBox="0 0 20 20" fill="none" xmlns="http://www.w3.org/2000/svg">
<path d="M17.7167 5.38978C17.6788 5.29608 17.6187 5.21297 17.5416 5.14758C17.4645 5.08219 17.3727 5.03647 17.2741 5.01435C17.1755 4.99223 17.0729 4.99436 16.9753 5.02056C16.8777 5.04676 16.7879 5.09625 16.7136 5.16478L13.5651 8.07025L12.219 7.78119L11.93 6.4351L14.8354 3.28666C14.904 3.21236 14.9535 3.12254 14.9797 3.02491C15.0059 2.92728 15.008 2.82475 14.9859 2.72612C14.9638 2.62749 14.918 2.53569 14.8526 2.45861C14.7873 2.38152 14.7041 2.32145 14.6104 2.28353C13.7565 1.93809 12.8308 1.80766 11.9146 1.9037C10.9984 1.99975 10.1199 2.31932 9.35614 2.83436C8.59238 3.34939 7.96681 4.04411 7.53438 4.85748C7.10194 5.67085 6.87589 6.57798 6.87607 7.49916C6.87506 8.27703 7.03464 9.04674 7.34482 9.7601L2.64091 13.8273C2.62919 13.8367 2.61825 13.8476 2.60732 13.8578C2.13842 14.3266 1.875 14.9626 1.875 15.6257C1.875 15.9541 1.93967 16.2792 2.06532 16.5825C2.19097 16.8859 2.37514 17.1615 2.60732 17.3937C2.83949 17.6259 3.11512 17.81 3.41847 17.9357C3.72182 18.0613 4.04694 18.126 4.37529 18.126C5.0384 18.126 5.67436 17.8626 6.14325 17.3937C6.15341 17.3835 6.16435 17.3718 6.17372 17.3609L10.2401 12.6554C11.0967 13.0314 12.0336 13.1879 12.9658 13.1106C13.8981 13.0333 14.7964 12.7247 15.5794 12.2127C16.3623 11.7008 17.0053 11.0017 17.4499 10.1786C17.8946 9.35558 18.127 8.43464 18.1261 7.49916C18.1273 6.77618 17.9883 6.05982 17.7167 5.38978ZM12.5011 11.8742C11.7613 11.8731 11.0338 11.685 10.3862 11.3273C10.2608 11.258 10.1153 11.2339 9.97421 11.2591C9.83312 11.2842 9.70496 11.3572 9.61122 11.4656L5.24404 16.5234C5.00771 16.7479 4.69302 16.8712 4.36707 16.8671C4.04112 16.8629 3.72969 16.7315 3.49919 16.501C3.26869 16.2705 3.13735 15.9591 3.13317 15.6332C3.129 15.3072 3.25232 14.9925 3.47685 14.7562L8.53075 10.3898C8.63936 10.296 8.71238 10.1677 8.73756 10.0264C8.76274 9.88517 8.73854 9.73954 8.66904 9.614C8.27062 8.89341 8.08365 8.07501 8.12961 7.25289C8.17557 6.43078 8.4526 5.63832 8.92885 4.96662C9.4051 4.29493 10.0612 3.77126 10.8218 3.45584C11.5824 3.14041 12.4166 3.04603 13.2284 3.18353L10.7909 5.82494C10.7231 5.89851 10.6739 5.98729 10.6476 6.08382C10.6212 6.18034 10.6184 6.28179 10.6393 6.37963L11.0815 8.43666C11.1068 8.55431 11.1655 8.66216 11.2506 8.74725C11.3357 8.83234 11.4436 8.89106 11.5612 8.91635L13.6198 9.35853C13.7177 9.37952 13.8191 9.37671 13.9156 9.35033C14.0122 9.32396 14.1009 9.27479 14.1745 9.20697L16.8159 6.76947C16.9212 7.39682 16.8886 8.03958 16.7203 8.65305C16.552 9.26651 16.2521 9.83596 15.8415 10.3218C15.4308 10.8076 14.9193 11.1981 14.3424 11.4662C13.7655 11.7343 13.1372 11.8735 12.5011 11.8742Z" fill="#151515"/>
</svg>
